<svg width="500" height="467" viewBox="0 0 500 467" fill="none" xmlns="http://www.w3.org/2000/svg">
<g clip-path="url(#clip0_1310_14867)">
<path d="M130.023 78.998C131.115 78.9982 132 79.884 132 80.9756V89.0225C132 90.114 131.115 90.9989 130.023 90.999H117.977C116.885 90.999 116 90.1141 116 89.0225V80.9756C116 79.8839 116.885 78.9981 117.977 78.998H119.2V81.8223C119.2 82.9139 120.085 83.7988 121.177 83.7988H126.823C127.915 83.7988 128.8 82.9139 128.8 81.8223V78.998H130.023Z" fill="#E1DCD6"/>
<rect x="120" y="75" width="7.9999" height="8.00049" rx="1.97664" fill="#E1DCD6"/>
<path d="M153.023 78.998C154.115 78.9982 155 79.884 155 80.9756V89.0225C155 90.114 154.115 90.9989 153.023 90.999H140.977C139.885 90.999 139 90.1141 139 89.0225V80.9756C139 79.8839 139.885 78.9981 140.977 78.998H142.2V81.8223C142.2 82.9139 143.085 83.7988 144.177 83.7988H149.823C150.915 83.7988 151.8 82.9139 151.8 81.8223V78.998H153.023Z" fill="#E1DCD6"/>
<rect x="143" y="75" width="7.9999" height="8.00049" rx="1.97664" fill="#E1DCD6"/>
<path d="M176.023 78.998C177.115 78.9982 178 79.884 178 80.9756V89.0225C178 90.114 177.115 90.9989 176.023 90.999H163.977C162.885 90.999 162 90.1141 162 89.0225V80.9756C162 79.8839 162.885 78.9981 163.977 78.998H165.2V81.8223C165.2 82.9139 166.085 83.7988 167.177 83.7988H172.823C173.915 83.7988 174.8 82.9139 174.8 81.8223V78.998H176.023Z" fill="#E1DCD6"/>
<rect x="166" y="75" width="7.9999" height="8.00049" rx="1.97664" fill="#E1DCD6"/>
<path d="M199.023 78.998C200.115 78.9982 201 79.884 201 80.9756V89.0225C201 90.114 200.115 90.9989 199.023 90.999H186.977C185.885 90.999 185 90.1141 185 89.0225V80.9756C185 79.8839 185.885 78.9981 186.977 78.998H188.2V81.8223C188.2 82.9139 189.085 83.7988 190.177 83.7988H195.823C196.915 83.7988 197.8 82.9139 197.8 81.8223V78.998H199.023Z" fill="#E1DCD6"/>
<rect x="189" y="75" width="7.9999" height="8.00049" rx="1.97664" fill="#E1DCD6"/>
<path d="M222.023 78.998C223.115 78.9982 224 79.884 224 80.9756V89.0225C224 90.114 223.115 90.9989 222.023 90.999H209.977C208.885 90.999 208 90.1141 208 89.0225V80.9756C208 79.8839 208.885 78.9981 209.977 78.998H211.2V81.8223C211.2 82.9139 212.085 83.7988 213.177 83.7988H218.823C219.915 83.7988 220.8 82.9139 220.8 81.8223V78.998H222.023Z" fill="#E1DCD6"/>
<rect x="212" y="75" width="7.9999" height="8.00049" rx="1.97664" fill="#E1DCD6"/>
<path d="M245.023 78.998C246.115 78.9982 247 79.884 247 80.9756V89.0225C247 90.114 246.115 90.9989 245.023 90.999H232.977C231.885 90.999 231 90.1141 231 89.0225V80.9756C231 79.8839 231.885 78.9981 232.977 78.998H234.2V81.8223C234.2 82.9139 235.085 83.7988 236.177 83.7988H241.823C242.915 83.7988 243.8 82.9139 243.8 81.8223V78.998H245.023Z" fill="#E1DCD6"/>
<rect x="235" y="75" width="7.9999" height="8.00049" rx="1.97664" fill="#E1DCD6"/>
<path d="M268.023 78.998C269.115 78.9982 270 79.884 270 80.9756V89.0225C270 90.114 269.115 90.9989 268.023 90.999H255.977C254.885 90.999 254 90.1141 254 89.0225V80.9756C254 79.8839 254.885 78.9981 255.977 78.998H257.2V81.8223C257.2 82.9139 258.085 83.7988 259.177 83.7988H264.823C265.915 83.7988 266.8 82.9139 266.8 81.8223V78.998H268.023Z" fill="#E1DCD6"/>
<rect x="258" y="75" width="7.9999" height="8.00049" rx="1.97664" fill="#E1DCD6"/>
<path d="M291.023 78.998C292.115 78.9982 293 79.884 293 80.9756V89.0225C293 90.114 292.115 90.9989 291.023 90.999H278.977C277.885 90.999 277 90.1141 277 89.0225V80.9756C277 79.8839 277.885 78.9981 278.977 78.998H280.2V81.8223C280.2 82.9139 281.085 83.7988 282.177 83.7988H287.823C288.915 83.7988 289.8 82.9139 289.8 81.8223V78.998H291.023Z" fill="#E1DCD6"/>
<rect x="281" y="75" width="7.9999" height="8.00049" rx="1.97664" fill="#E1DCD6"/>
<path d="M314.023 78.998C315.115 78.9982 316 79.884 316 80.9756V89.0225C316 90.114 315.115 90.9989 314.023 90.999H301.977C300.885 90.999 300 90.1141 300 89.0225V80.9756C300 79.8839 300.885 78.9981 301.977 78.998H303.2V81.8223C303.2 82.9139 304.085 83.7988 305.177 83.7988H310.823C311.915 83.7988 312.8 82.9139 312.8 81.8223V78.998H314.023Z" fill="#E1DCD6"/>
<rect x="304" y="75" width="7.9999" height="8.00049" rx="1.97664" fill="#E1DCD6"/>
<path d="M337.023 78.998C338.115 78.9982 339 79.884 339 80.9756V89.0225C339 90.114 338.115 90.9989 337.023 90.999H324.977C323.885 90.999 323 90.1141 323 89.0225V80.9756C323 79.8839 323.885 78.9981 324.977 78.998H326.2V81.8223C326.2 82.9139 327.085 83.7988 328.177 83.7988H333.823C334.915 83.7988 335.8 82.9139 335.8 81.8223V78.998H337.023Z" fill="#E1DCD6"/>
<rect x="327" y="75" width="7.9999" height="8.00049" rx="1.97664" fill="#E1DCD6"/>
<path d="M360.023 78.998C361.115 78.9982 362 79.884 362 80.9756V89.0225C362 90.114 361.115 90.9989 360.023 90.999H347.977C346.885 90.999 346 90.1141 346 89.0225V80.9756C346 79.8839 346.885 78.9981 347.977 78.998H349.2V81.8223C349.2 82.9139 350.085 83.7988 351.177 83.7988H356.823C357.915 83.7988 358.8 82.9139 358.8 81.8223V78.998H360.023Z" fill="#E1DCD6"/>
<rect x="350" y="75" width="7.9999" height="8.00049" rx="1.97664" fill="#E1DCD6"/>
<path d="M383.023 78.998C384.115 78.9982 385 79.884 385 80.9756V89.0225C385 90.114 384.115 90.9989 383.023 90.999H370.977C369.885 90.999 369 90.1141 369 89.0225V80.9756C369 79.8839 369.885 78.9981 370.977 78.998H372.2V81.8223C372.2 82.9139 373.085 83.7988 374.177 83.7988H379.823C380.915 83.7988 381.8 82.9139 381.8 81.8223V78.998H383.023Z" fill="#E1DCD6"/>
<rect x="373" y="75" width="7.9999" height="8.00049" rx="1.97664" fill="#E1DCD6"/>
<path d="M130.023 112.998C131.115 112.998 132 113.884 132 114.976V123.022C132 124.114 131.115 124.999 130.023 124.999H117.977C116.885 124.999 116 124.114 116 123.022V114.976C116 113.884 116.885 112.998 117.977 112.998H119.2V115.822C119.2 116.914 120.085 117.799 121.177 117.799H126.823C127.915 117.799 128.8 116.914 128.8 115.822V112.998H130.023Z" fill="#E1DCD6"/>
<rect x="120" y="109" width="7.9999" height="8.00049" rx="1.97664" fill="#E1DCD6"/>
<path d="M153.023 112.998C154.115 112.998 155 113.884 155 114.976V123.022C155 124.114 154.115 124.999 153.023 124.999H140.977C139.885 124.999 139 124.114 139 123.022V114.976C139 113.884 139.885 112.998 140.977 112.998H142.2V115.822C142.2 116.914 143.085 117.799 144.177 117.799H149.823C150.915 117.799 151.8 116.914 151.8 115.822V112.998H153.023Z" fill="#E1DCD6"/>
<rect x="143" y="109" width="7.9999" height="8.00049" rx="1.97664" fill="#E1DCD6"/>
<path d="M176.023 112.998C177.115 112.998 178 113.884 178 114.976V123.022C178 124.114 177.115 124.999 176.023 124.999H163.977C162.885 124.999 162 124.114 162 123.022V114.976C162 113.884 162.885 112.998 163.977 112.998H165.2V115.822C165.2 116.914 166.085 117.799 167.177 117.799H172.823C173.915 117.799 174.8 116.914 174.8 115.822V112.998H176.023Z" fill="#E1DCD6"/>
<rect x="166" y="109" width="7.9999" height="8.00049" rx="1.97664" fill="#E1DCD6"/>
<path d="M199.023 112.998C200.115 112.998 201 113.884 201 114.976V123.022C201 124.114 200.115 124.999 199.023 124.999H186.977C185.885 124.999 185 124.114 185 123.022V114.976C185 113.884 185.885 112.998 186.977 112.998H188.2V115.822C188.2 116.914 189.085 117.799 190.177 117.799H195.823C196.915 117.799 197.8 116.914 197.8 115.822V112.998H199.023Z" fill="#E1DCD6"/>
<rect x="189" y="109" width="7.9999" height="8.00049" rx="1.97664" fill="#E1DCD6"/>
<path d="M222.023 112.998C223.115 112.998 224 113.884 224 114.976V123.022C224 124.114 223.115 124.999 222.023 124.999H209.977C208.885 124.999 208 124.114 208 123.022V114.976C208 113.884 208.885 112.998 209.977 112.998H211.2V115.822C211.2 116.914 212.085 117.799 213.177 117.799H218.823C219.915 117.799 220.8 116.914 220.8 115.822V112.998H222.023Z" fill="#E1DCD6"/>
<rect x="212" y="109" width="7.9999" height="8.00049" rx="1.97664" fill="#E1DCD6"/>
<path d="M245.023 112.998C246.115 112.998 247 113.884 247 114.976V123.022C247 124.114 246.115 124.999 245.023 124.999H232.977C231.885 124.999 231 124.114 231 123.022V114.976C231 113.884 231.885 112.998 232.977 112.998H234.2V115.822C234.2 116.914 235.085 117.799 236.177 117.799H241.823C242.915 117.799 243.8 116.914 243.8 115.822V112.998H245.023Z" fill="#E1DCD6"/>
<rect x="235" y="109" width="7.9999" height="8.00049" rx="1.97664" fill="#E1DCD6"/>
<path d="M268.023 112.998C269.115 112.998 270 113.884 270 114.976V123.022C270 124.114 269.115 124.999 268.023 124.999H255.977C254.885 124.999 254 124.114 254 123.022V114.976C254 113.884 254.885 112.998 255.977 112.998H257.2V115.822C257.2 116.914 258.085 117.799 259.177 117.799H264.823C265.915 117.799 266.8 116.914 266.8 115.822V112.998H268.023Z" fill="#E1DCD6"/>
<rect x="258" y="109" width="7.9999" height="8.00049" rx="1.97664" fill="#E1DCD6"/>
<path d="M291.023 112.998C292.115 112.998 293 113.884 293 114.976V123.022C293 124.114 292.115 124.999 291.023 124.999H278.977C277.885 124.999 277 124.114 277 123.022V114.976C277 113.884 277.885 112.998 278.977 112.998H280.2V115.822C280.2 116.914 281.085 117.799 282.177 117.799H287.823C288.915 117.799 289.8 116.914 289.8 115.822V112.998H291.023Z" fill="#E1DCD6"/>
<rect x="281" y="109" width="7.9999" height="8.00049" rx="1.97664" fill="#E1DCD6"/>
<path d="M314.023 112.998C315.115 112.998 316 113.884 316 114.976V123.022C316 124.114 315.115 124.999 314.023 124.999H301.977C300.885 124.999 300 124.114 300 123.022V114.976C300 113.884 300.885 112.998 301.977 112.998H303.2V115.822C303.2 116.914 304.085 117.799 305.177 117.799H310.823C311.915 117.799 312.8 116.914 312.8 115.822V112.998H314.023Z" fill="#E1DCD6"/>
<rect x="304" y="109" width="7.9999" height="8.00049" rx="1.97664" fill="#E1DCD6"/>
<path d="M337.023 112.998C338.115 112.998 339 113.884 339 114.976V123.022C339 124.114 338.115 124.999 337.023 124.999H324.977C323.885 124.999 323 124.114 323 123.022V114.976C323 113.884 323.885 112.998 324.977 112.998H326.2V115.822C326.2 116.914 327.085 117.799 328.177 117.799H333.823C334.915 117.799 335.8 116.914 335.8 115.822V112.998H337.023Z" fill="#E1DCD6"/>
<rect x="327" y="109" width="7.9999" height="8.00049" rx="1.97664" fill="#E1DCD6"/>
<path d="M360.023 112.998C361.115 112.998 362 113.884 362 114.976V123.022C362 124.114 361.115 124.999 360.023 124.999H347.977C346.885 124.999 346 124.114 346 123.022V114.976C346 113.884 346.885 112.998 347.977 112.998H349.2V115.822C349.2 116.914 350.085 117.799 351.177 117.799H356.823C357.915 117.799 358.8 116.914 358.8 115.822V112.998H360.023Z" fill="#E1DCD6"/>
<rect x="350" y="109" width="7.9999" height="8.00049" rx="1.97664" fill="#E1DCD6"/>
<path d="M383.023 112.998C384.115 112.998 385 113.884 385 114.976V123.022C385 124.114 384.115 124.999 383.023 124.999H370.977C369.885 124.999 369 124.114 369 123.022V114.976C369 113.884 369.885 112.998 370.977 112.998H372.2V115.822C372.2 116.914 373.085 117.799 374.177 117.799H379.823C380.915 117.799 381.8 116.914 381.8 115.822V112.998H383.023Z" fill="#E1DCD6"/>
<rect x="373" y="109" width="7.9999" height="8.00049" rx="1.97664" fill="#E1DCD6"/>
<path d="M78.0859 89H76.6172L80.7578 77.6875H82.2422L86.3828 89H84.8984L83.7734 85.8125H79.2266L78.0859 89ZM79.6484 84.5781H83.3359L81.5391 79.5156H81.4453L79.6484 84.5781Z" fill="black"/>
<path d="M72.7969 125V113.688H76.7656C79.1406 113.688 80.25 115.016 80.25 116.688C80.25 118.141 79.3906 118.797 78.4062 119.062V119.172C79.4531 119.234 80.7031 120.203 80.7031 122C80.7031 123.703 79.5781 125 76.9062 125H72.7969ZM76.8906 123.75C78.6562 123.75 79.3438 122.969 79.3438 121.984C79.3438 120.828 78.4219 119.859 76.9688 119.859H74.2031V123.75H76.8906ZM76.7188 118.641C77.9375 118.641 78.9062 117.891 78.9062 116.703C78.9062 115.719 78.25 114.938 76.7656 114.938H74.2031V118.641H76.7188Z" fill="black"/>
<path d="M130.023 150.998C131.115 150.998 132 151.884 132 152.976V161.022C132 162.114 131.115 162.999 130.023 162.999H117.977C116.885 162.999 116 162.114 116 161.022V152.976C116 151.884 116.885 150.998 117.977 150.998H119.2V153.822C119.2 154.914 120.085 155.799 121.177 155.799H126.823C127.915 155.799 128.8 154.914 128.8 153.822V150.998H130.023Z" fill="#E1DCD6"/>
<rect x="120" y="147" width="7.9999" height="8.00049" rx="1.97664" fill="#E1DCD6"/>
<path d="M153.023 150.998C154.115 150.998 155 151.884 155 152.976V161.022C155 162.114 154.115 162.999 153.023 162.999H140.977C139.885 162.999 139 162.114 139 161.022V152.976C139 151.884 139.885 150.998 140.977 150.998H142.2V153.822C142.2 154.914 143.085 155.799 144.177 155.799H149.823C150.915 155.799 151.8 154.914 151.8 153.822V150.998H153.023Z" fill="#E1DCD6"/>
<rect x="143" y="147" width="7.9999" height="8.00049" rx="1.97664" fill="#E1DCD6"/>
<path d="M176.023 150.998C177.115 150.998 178 151.884 178 152.976V161.022C178 162.114 177.115 162.999 176.023 162.999H163.977C162.885 162.999 162 162.114 162 161.022V152.976C162 151.884 162.885 150.998 163.977 150.998H165.2V153.822C165.2 154.914 166.085 155.799 167.177 155.799H172.823C173.915 155.799 174.8 154.914 174.8 153.822V150.998H176.023Z" fill="#E1DCD6"/>
<rect x="166" y="147" width="7.9999" height="8.00049" rx="1.97664" fill="#E1DCD6"/>
<path d="M199.023 150.998C200.115 150.998 201 151.884 201 152.976V161.022C201 162.114 200.115 162.999 199.023 162.999H186.977C185.885 162.999 185 162.114 185 161.022V152.976C185 151.884 185.885 150.998 186.977 150.998H188.2V153.822C188.2 154.914 189.085 155.799 190.177 155.799H195.823C196.915 155.799 197.8 154.914 197.8 153.822V150.998H199.023Z" fill="#E1DCD6"/>
<rect x="189" y="147" width="7.9999" height="8.00049" rx="1.97664" fill="#E1DCD6"/>
<path d="M222.023 150.998C223.115 150.998 224 151.884 224 152.976V161.022C224 162.114 223.115 162.999 222.023 162.999H209.977C208.885 162.999 208 162.114 208 161.022V152.976C208 151.884 208.885 150.998 209.977 150.998H211.2V153.822C211.2 154.914 212.085 155.799 213.177 155.799H218.823C219.915 155.799 220.8 154.914 220.8 153.822V150.998H222.023Z" fill="#E1DCD6"/>
<rect x="212" y="147" width="7.9999" height="8.00049" rx="1.97664" fill="#E1DCD6"/>
<path d="M245.023 150.998C246.115 150.998 247 151.884 247 152.976V161.022C247 162.114 246.115 162.999 245.023 162.999H232.977C231.885 162.999 231 162.114 231 161.022V152.976C231 151.884 231.885 150.998 232.977 150.998H234.2V153.822C234.2 154.914 235.085 155.799 236.177 155.799H241.823C242.915 155.799 243.8 154.914 243.8 153.822V150.998H245.023Z" fill="#E1DCD6"/>
<rect x="235" y="147" width="7.9999" height="8.00049" rx="1.97664" fill="#E1DCD6"/>
<path d="M268.023 150.998C269.115 150.998 270 151.884 270 152.976V161.022C270 162.114 269.115 162.999 268.023 162.999H255.977C254.885 162.999 254 162.114 254 161.022V152.976C254 151.884 254.885 150.998 255.977 150.998H257.2V153.822C257.2 154.914 258.085 155.799 259.177 155.799H264.823C265.915 155.799 266.8 154.914 266.8 153.822V150.998H268.023Z" fill="#E1DCD6"/>
<rect x="258" y="147" width="7.9999" height="8.00049" rx="1.97664" fill="#E1DCD6"/>
<path d="M291.023 150.998C292.115 150.998 293 151.884 293 152.976V161.022C293 162.114 292.115 162.999 291.023 162.999H278.977C277.885 162.999 277 162.114 277 161.022V152.976C277 151.884 277.885 150.998 278.977 150.998H280.2V153.822C280.2 154.914 281.085 155.799 282.177 155.799H287.823C288.915 155.799 289.8 154.914 289.8 153.822V150.998H291.023Z" fill="#E1DCD6"/>
<rect x="281" y="147" width="7.9999" height="8.00049" rx="1.97664" fill="#E1DCD6"/>
<path d="M314.023 150.998C315.115 150.998 316 151.884 316 152.976V161.022C316 162.114 315.115 162.999 314.023 162.999H301.977C300.885 162.999 300 162.114 300 161.022V152.976C300 151.884 300.885 150.998 301.977 150.998H303.2V153.822C303.2 154.914 304.085 155.799 305.177 155.799H310.823C311.915 155.799 312.8 154.914 312.8 153.822V150.998H314.023Z" fill="#E1DCD6"/>
<rect x="304" y="147" width="7.9999" height="8.00049" rx="1.97664" fill="#E1DCD6"/>
<path d="M337.023 150.998C338.115 150.998 339 151.884 339 152.976V161.022C339 162.114 338.115 162.999 337.023 162.999H324.977C323.885 162.999 323 162.114 323 161.022V152.976C323 151.884 323.885 150.998 324.977 150.998H326.2V153.822C326.2 154.914 327.085 155.799 328.177 155.799H333.823C334.915 155.799 335.8 154.914 335.8 153.822V150.998H337.023Z" fill="#E1DCD6"/>
<rect x="327" y="147" width="7.9999" height="8.00049" rx="1.97664" fill="#E1DCD6"/>
<path d="M360.023 150.998C361.115 150.998 362 151.884 362 152.976V161.022C362 162.114 361.115 162.999 360.023 162.999H347.977C346.885 162.999 346 162.114 346 161.022V152.976C346 151.884 346.885 150.998 347.977 150.998H349.2V153.822C349.2 154.914 350.085 155.799 351.177 155.799H356.823C357.915 155.799 358.8 154.914 358.8 153.822V150.998H360.023Z" fill="#E1DCD6"/>
<rect x="350" y="147" width="7.9999" height="8.00049" rx="1.97664" fill="#E1DCD6"/>
<path d="M383.023 150.998C384.115 150.998 385 151.884 385 152.976V161.022C385 162.114 384.115 162.999 383.023 162.999H370.977C369.885 162.999 369 162.114 369 161.022V152.976C369 151.884 369.885 150.998 370.977 150.998H372.2V153.822C372.2 154.914 373.085 155.799 374.177 155.799H379.823C380.915 155.799 381.8 154.914 381.8 153.822V150.998H383.023Z" fill="#E1DCD6"/>
<rect x="373" y="147" width="7.9999" height="8.00049" rx="1.97664" fill="#E1DCD6"/>
<path d="M74.9219 153.25C74.5938 151.688 73.25 150.844 71.7656 150.844C69.7188 150.844 68.125 152.422 68.125 155.344C68.125 158.266 69.7188 159.844 71.7656 159.844C73.25 159.844 74.5781 159 74.9219 157.453H76.3281C75.9219 159.766 74.0625 161.156 71.7656 161.156C68.8594 161.156 66.7656 158.922 66.7656 155.344C66.7656 151.766 68.8594 149.531 71.7656 149.531C74.0469 149.531 75.9062 150.906 76.3281 153.25H74.9219Z" fill="black"/>
<path d="M121.023 186.998C122.115 186.998 123 187.884 123 188.976V197.022C123 198.114 122.115 198.999 121.023 198.999H108.977C107.885 198.999 107 198.114 107 197.022V188.976C107 187.884 107.885 186.998 108.977 186.998H110.2V189.822C110.2 190.914 111.085 191.799 112.177 191.799H117.823C118.915 191.799 119.8 190.914 119.8 189.822V186.998H121.023Z" fill="#E1DCD6"/>
<rect x="111" y="183" width="7.9999" height="8.00049" rx="1.97664" fill="#E1DCD6"/>
<path d="M144.023 186.998C145.115 186.998 146 187.884 146 188.976V197.022C146 198.114 145.115 198.999 144.023 198.999H131.977C130.885 198.999 130 198.114 130 197.022V188.976C130 187.884 130.885 186.998 131.977 186.998H133.2V189.822C133.2 190.914 134.085 191.799 135.177 191.799H140.823C141.915 191.799 142.8 190.914 142.8 189.822V186.998H144.023Z" fill="#FE8E6E"/>
<rect x="134" y="183" width="7.9999" height="8.00049" rx="1.97664" fill="#FE8E6E"/>
<path d="M167.023 186.998C168.115 186.998 169 187.884 169 188.976V197.022C169 198.114 168.115 198.999 167.023 198.999H154.977C153.885 198.999 153 198.114 153 197.022V188.976C153 187.884 153.885 186.998 154.977 186.998H156.2V189.822C156.2 190.914 157.085 191.799 158.177 191.799H163.823C164.915 191.799 165.8 190.914 165.8 189.822V186.998H167.023Z" fill="#FE8E6E"/>
<rect x="157" y="183" width="7.9999" height="8.00049" rx="1.97664" fill="#FE8E6E"/>
<path d="M190.023 186.998C191.115 186.998 192 187.884 192 188.976V197.022C192 198.114 191.115 198.999 190.023 198.999H177.977C176.885 198.999 176 198.114 176 197.022V188.976C176 187.884 176.885 186.998 177.977 186.998H179.2V189.822C179.2 190.914 180.085 191.799 181.177 191.799H186.823C187.915 191.799 188.8 190.914 188.8 189.822V186.998H190.023Z" fill="#E1DCD6"/>
<rect x="180" y="183" width="7.9999" height="8.00049" rx="1.97664" fill="#E1DCD6"/>
<path d="M213.023 186.998C214.115 186.998 215 187.884 215 188.976V197.022C215 198.114 214.115 198.999 213.023 198.999H200.977C199.885 198.999 199 198.114 199 197.022V188.976C199 187.884 199.885 186.998 200.977 186.998H202.2V189.822C202.2 190.914 203.085 191.799 204.177 191.799H209.823C210.915 191.799 211.8 190.914 211.8 189.822V186.998H213.023Z" fill="#FE8E6E"/>
<rect x="203" y="183" width="7.9999" height="8.00049" rx="1.97664" fill="#FE8E6E"/>
<path d="M236.023 186.998C237.115 186.998 238 187.884 238 188.976V197.022C238 198.114 237.115 198.999 236.023 198.999H223.977C222.885 198.999 222 198.114 222 197.022V188.976C222 187.884 222.885 186.998 223.977 186.998H225.2V189.822C225.2 190.914 226.085 191.799 227.177 191.799H232.823C233.915 191.799 234.8 190.914 234.8 189.822V186.998H236.023Z" fill="#E1DCD6"/>
<rect x="226" y="183" width="7.9999" height="8.00049" rx="1.97664" fill="#E1DCD6"/>
<path d="M259.023 186.998C260.115 186.998 261 187.884 261 188.976V197.022C261 198.114 260.115 198.999 259.023 198.999H246.977C245.885 198.999 245 198.114 245 197.022V188.976C245 187.884 245.885 186.998 246.977 186.998H248.2V189.822C248.2 190.914 249.085 191.799 250.177 191.799H255.823C256.915 191.799 257.8 190.914 257.8 189.822V186.998H259.023Z" fill="#E1DCD6"/>
<rect x="249" y="183" width="7.9999" height="8.00049" rx="1.97664" fill="#E1DCD6"/>
<path d="M282.023 186.998C283.115 186.998 284 187.884 284 188.976V197.022C284 198.114 283.115 198.999 282.023 198.999H269.977C268.885 198.999 268 198.114 268 197.022V188.976C268 187.884 268.885 186.998 269.977 186.998H271.2V189.822C271.2 190.914 272.085 191.799 273.177 191.799H278.823C279.915 191.799 280.8 190.914 280.8 189.822V186.998H282.023Z" fill="#E1DCD6"/>
<rect x="272" y="183" width="7.9999" height="8.00049" rx="1.97664" fill="#E1DCD6"/>
<path d="M305.023 186.998C306.115 186.998 307 187.884 307 188.976V197.022C307 198.114 306.115 198.999 305.023 198.999H292.977C291.885 198.999 291 198.114 291 197.022V188.976C291 187.884 291.885 186.998 292.977 186.998H294.2V189.822C294.2 190.914 295.085 191.799 296.177 191.799H301.823C302.915 191.799 303.8 190.914 303.8 189.822V186.998H305.023Z" fill="#E1DCD6"/>
<rect x="295" y="183" width="7.9999" height="8.00049" rx="1.97664" fill="#E1DCD6"/>
<path d="M328.023 186.998C329.115 186.998 330 187.884 330 188.976V197.022C330 198.114 329.115 198.999 328.023 198.999H315.977C314.885 198.999 314 198.114 314 197.022V188.976C314 187.884 314.885 186.998 315.977 186.998H317.2V189.822C317.2 190.914 318.085 191.799 319.177 191.799H324.823C325.915 191.799 326.8 190.914 326.8 189.822V186.998H328.023Z" fill="#E1DCD6"/>
<rect x="318" y="183" width="7.9999" height="8.00049" rx="1.97664" fill="#E1DCD6"/>
<path d="M351.023 186.998C352.115 186.998 353 187.884 353 188.976V197.022C353 198.114 352.115 198.999 351.023 198.999H338.977C337.885 198.999 337 198.114 337 197.022V188.976C337 187.884 337.885 186.998 338.977 186.998H340.2V189.822C340.2 190.914 341.085 191.799 342.177 191.799H347.823C348.915 191.799 349.8 190.914 349.8 189.822V186.998H351.023Z" fill="#E1DCD6"/>
<rect x="341" y="183" width="7.9999" height="8.00049" rx="1.97664" fill="#E1DCD6"/>
<path d="M374.023 186.998C375.115 186.998 376 187.884 376 188.976V197.022C376 198.114 375.115 198.999 374.023 198.999H361.977C360.885 198.999 360 198.114 360 197.022V188.976C360 187.884 360.885 186.998 361.977 186.998H363.2V189.822C363.2 190.914 364.085 191.799 365.177 191.799H370.823C371.915 191.799 372.8 190.914 372.8 189.822V186.998H374.023Z" fill="#E1DCD6"/>
<rect x="364" y="183" width="7.9999" height="8.00049" rx="1.97664" fill="#E1DCD6"/>
<path d="M397.023 186.998C398.115 186.998 399 187.884 399 188.976V197.022C399 198.114 398.115 198.999 397.023 198.999H384.977C383.885 198.999 383 198.114 383 197.022V188.976C383 187.884 383.885 186.998 384.977 186.998H386.2V189.822C386.2 190.914 387.085 191.799 388.177 191.799H393.823C394.915 191.799 395.8 190.914 395.8 189.822V186.998H397.023Z" fill="#FE8E6E"/>
<rect x="387" y="183" width="7.9999" height="8.00049" rx="1.97664" fill="#FE8E6E"/>
<path d="M65.7812 197H62.2656V185.688H65.9219C69.2188 185.688 71.1719 187.812 71.1719 191.328C71.1719 194.859 69.2188 197 65.7812 197ZM63.6719 195.75H65.6875C68.4688 195.75 69.7969 194.078 69.7969 191.328C69.7969 188.594 68.4688 186.938 65.8281 186.938H63.6719V195.75Z" fill="black"/>
<path d="M109.023 222.998C110.115 222.998 111 223.884 111 224.976V233.022C111 234.114 110.115 234.999 109.023 234.999H96.9766C95.8849 234.999 95 234.114 95 233.022V224.976C95 223.884 95.8849 222.998 96.9766 222.998H98.2002V225.822C98.2002 226.914 99.0851 227.799 100.177 227.799H105.823C106.915 227.799 107.8 226.914 107.8 225.822V222.998H109.023Z" fill="#E1DCD6"/>
<rect x="99" y="219" width="7.9999" height="8.00049" rx="1.97664" fill="#E1DCD6"/>
<path d="M132.023 222.998C133.115 222.998 134 223.884 134 224.976V233.022C134 234.114 133.115 234.999 132.023 234.999H119.977C118.885 234.999 118 234.114 118 233.022V224.976C118 223.884 118.885 222.998 119.977 222.998H121.2V225.822C121.2 226.914 122.085 227.799 123.177 227.799H128.823C129.915 227.799 130.8 226.914 130.8 225.822V222.998H132.023Z" fill="#E1DCD6"/>
<rect x="122" y="219" width="7.9999" height="8.00049" rx="1.97664" fill="#E1DCD6"/>
<path d="M155.023 222.998C156.115 222.998 157 223.884 157 224.976V233.022C157 234.114 156.115 234.999 155.023 234.999H142.977C141.885 234.999 141 234.114 141 233.022V224.976C141 223.884 141.885 222.998 142.977 222.998H144.2V225.822C144.2 226.914 145.085 227.799 146.177 227.799H151.823C152.915 227.799 153.8 226.914 153.8 225.822V222.998H155.023Z" fill="#E1DCD6"/>
<rect x="145" y="219" width="7.9999" height="8.00049" rx="1.97664" fill="#E1DCD6"/>
<path d="M178.023 222.998C179.115 222.998 180 223.884 180 224.976V233.022C180 234.114 179.115 234.999 178.023 234.999H165.977C164.885 234.999 164 234.114 164 233.022V224.976C164 223.884 164.885 222.998 165.977 222.998H167.2V225.822C167.2 226.914 168.085 227.799 169.177 227.799H174.823C175.915 227.799 176.8 226.914 176.8 225.822V222.998H178.023Z" fill="#E1DCD6"/>
<rect x="168" y="219" width="7.9999" height="8.00049" rx="1.97664" fill="#E1DCD6"/>
<path d="M201.023 222.998C202.115 222.998 203 223.884 203 224.976V233.022C203 234.114 202.115 234.999 201.023 234.999H188.977C187.885 234.999 187 234.114 187 233.022V224.976C187 223.884 187.885 222.998 188.977 222.998H190.2V225.822C190.2 226.914 191.085 227.799 192.177 227.799H197.823C198.915 227.799 199.8 226.914 199.8 225.822V222.998H201.023Z" fill="#E1DCD6"/>
<rect x="191" y="219" width="7.9999" height="8.00049" rx="1.97664" fill="#E1DCD6"/>
<path d="M224.023 222.998C225.115 222.998 226 223.884 226 224.976V233.022C226 234.114 225.115 234.999 224.023 234.999H211.977C210.885 234.999 210 234.114 210 233.022V224.976C210 223.884 210.885 222.998 211.977 222.998H213.2V225.822C213.2 226.914 214.085 227.799 215.177 227.799H220.823C221.915 227.799 222.8 226.914 222.8 225.822V222.998H224.023Z" fill="#E1DCD6"/>
<rect x="214" y="219" width="7.9999" height="8.00049" rx="1.97664" fill="#E1DCD6"/>
<path d="M247.023 222.998C248.115 222.998 249 223.884 249 224.976V233.022C249 234.114 248.115 234.999 247.023 234.999H234.977C233.885 234.999 233 234.114 233 233.022V224.976C233 223.884 233.885 222.998 234.977 222.998H236.2V225.822C236.2 226.914 237.085 227.799 238.177 227.799H243.823C244.915 227.799 245.8 226.914 245.8 225.822V222.998H247.023Z" fill="#E1DCD6"/>
<rect x="237" y="219" width="7.9999" height="8.00049" rx="1.97664" fill="#E1DCD6"/>
<path d="M270.023 222.998C271.115 222.998 272 223.884 272 224.976V233.022C272 234.114 271.115 234.999 270.023 234.999H257.977C256.885 234.999 256 234.114 256 233.022V224.976C256 223.884 256.885 222.998 257.977 222.998H259.2V225.822C259.2 226.914 260.085 227.799 261.177 227.799H266.823C267.915 227.799 268.8 226.914 268.8 225.822V222.998H270.023Z" fill="#E1DCD6"/>
<rect x="260" y="219" width="7.9999" height="8.00049" rx="1.97664" fill="#E1DCD6"/>
<path d="M293.023 222.998C294.115 222.998 295 223.884 295 224.976V233.022C295 234.114 294.115 234.999 293.023 234.999H280.977C279.885 234.999 279 234.114 279 233.022V224.976C279 223.884 279.885 222.998 280.977 222.998H282.2V225.822C282.2 226.914 283.085 227.799 284.177 227.799H289.823C290.915 227.799 291.8 226.914 291.8 225.822V222.998H293.023Z" fill="#E1DCD6"/>
<rect x="283" y="219" width="7.9999" height="8.00049" rx="1.97664" fill="#E1DCD6"/>
<path d="M316.023 222.998C317.115 222.998 318 223.884 318 224.976V233.022C318 234.114 317.115 234.999 316.023 234.999H303.977C302.885 234.999 302 234.114 302 233.022V224.976C302 223.884 302.885 222.998 303.977 222.998H305.2V225.822C305.2 226.914 306.085 227.799 307.177 227.799H312.823C313.915 227.799 314.8 226.914 314.8 225.822V222.998H316.023Z" fill="#E1DCD6"/>
<rect x="306" y="219" width="7.9999" height="8.00049" rx="1.97664" fill="#E1DCD6"/>
<path d="M339.023 222.998C340.115 222.998 341 223.884 341 224.976V233.022C341 234.114 340.115 234.999 339.023 234.999H326.977C325.885 234.999 325 234.114 325 233.022V224.976C325 223.884 325.885 222.998 326.977 222.998H328.2V225.822C328.2 226.914 329.085 227.799 330.177 227.799H335.823C336.915 227.799 337.8 226.914 337.8 225.822V222.998H339.023Z" fill="#E1DCD6"/>
<rect x="329" y="219" width="7.9999" height="8.00049" rx="1.97664" fill="#E1DCD6"/>
<path d="M362.023 222.998C363.115 222.998 364 223.884 364 224.976V233.022C364 234.114 363.115 234.999 362.023 234.999H349.977C348.885 234.999 348 234.114 348 233.022V224.976C348 223.884 348.885 222.998 349.977 222.998H351.2V225.822C351.2 226.914 352.085 227.799 353.177 227.799H358.823C359.915 227.799 360.8 226.914 360.8 225.822V222.998H362.023Z" fill="#E1DCD6"/>
<rect x="352" y="219" width="7.9999" height="8.00049" rx="1.97664" fill="#E1DCD6"/>
<path d="M385.023 222.998C386.115 222.998 387 223.884 387 224.976V233.022C387 234.114 386.115 234.999 385.023 234.999H372.977C371.885 234.999 371 234.114 371 233.022V224.976C371 223.884 371.885 222.998 372.977 222.998H374.2V225.822C374.2 226.914 375.085 227.799 376.177 227.799H381.823C382.915 227.799 383.8 226.914 383.8 225.822V222.998H385.023Z" fill="#E1DCD6"/>
<rect x="375" y="219" width="7.9999" height="8.00049" rx="1.97664" fill="#E1DCD6"/>
<path d="M408.023 222.998C409.115 222.998 410 223.884 410 224.976V233.022C410 234.114 409.115 234.999 408.023 234.999H395.977C394.885 234.999 394 234.114 394 233.022V224.976C394 223.884 394.885 222.998 395.977 222.998H397.2V225.822C397.2 226.914 398.085 227.799 399.177 227.799H404.823C405.915 227.799 406.8 226.914 406.8 225.822V222.998H408.023Z" fill="#E1DCD6"/>
<rect x="398" y="219" width="7.9999" height="8.00049" rx="1.97664" fill="#E1DCD6"/>
<path d="M58.2969 233V221.688H65.1094V222.938H59.7031V226.719H64.5938V227.953H59.7031V233H58.2969Z" fill="black"/>
<path d="M109.023 258.998C110.115 258.998 111 259.884 111 260.976V269.022C111 270.114 110.115 270.999 109.023 270.999H96.9766C95.8849 270.999 95 270.114 95 269.022V260.976C95 259.884 95.8849 258.998 96.9766 258.998H98.2002V261.822C98.2002 262.914 99.0851 263.799 100.177 263.799H105.823C106.915 263.799 107.8 262.914 107.8 261.822V258.998H109.023Z" fill="#E1DCD6"/>
<rect x="99" y="255" width="7.9999" height="8.00049" rx="1.97664" fill="#E1DCD6"/>
<path d="M132.023 258.998C133.115 258.998 134 259.884 134 260.976V269.022C134 270.114 133.115 270.999 132.023 270.999H119.977C118.885 270.999 118 270.114 118 269.022V260.976C118 259.884 118.885 258.998 119.977 258.998H121.2V261.822C121.2 262.914 122.085 263.799 123.177 263.799H128.823C129.915 263.799 130.8 262.914 130.8 261.822V258.998H132.023Z" fill="#E1DCD6"/>
<rect x="122" y="255" width="7.9999" height="8.00049" rx="1.97664" fill="#E1DCD6"/>
<path d="M155.023 258.998C156.115 258.998 157 259.884 157 260.976V269.022C157 270.114 156.115 270.999 155.023 270.999H142.977C141.885 270.999 141 270.114 141 269.022V260.976C141 259.884 141.885 258.998 142.977 258.998H144.2V261.822C144.2 262.914 145.085 263.799 146.177 263.799H151.823C152.915 263.799 153.8 262.914 153.8 261.822V258.998H155.023Z" fill="#E1DCD6"/>
<rect x="145" y="255" width="7.9999" height="8.00049" rx="1.97664" fill="#E1DCD6"/>
<path d="M178.023 258.998C179.115 258.998 180 259.884 180 260.976V269.022C180 270.114 179.115 270.999 178.023 270.999H165.977C164.885 270.999 164 270.114 164 269.022V260.976C164 259.884 164.885 258.998 165.977 258.998H167.2V261.822C167.2 262.914 168.085 263.799 169.177 263.799H174.823C175.915 263.799 176.8 262.914 176.8 261.822V258.998H178.023Z" fill="#E1DCD6"/>
<rect x="168" y="255" width="7.9999" height="8.00049" rx="1.97664" fill="#E1DCD6"/>
<path d="M201.023 258.998C202.115 258.998 203 259.884 203 260.976V269.022C203 270.114 202.115 270.999 201.023 270.999H188.977C187.885 270.999 187 270.114 187 269.022V260.976C187 259.884 187.885 258.998 188.977 258.998H190.2V261.822C190.2 262.914 191.085 263.799 192.177 263.799H197.823C198.915 263.799 199.8 262.914 199.8 261.822V258.998H201.023Z" fill="#E1DCD6"/>
<rect x="191" y="255" width="7.9999" height="8.00049" rx="1.97664" fill="#E1DCD6"/>
<path d="M224.023 258.998C225.115 258.998 226 259.884 226 260.976V269.022C226 270.114 225.115 270.999 224.023 270.999H211.977C210.885 270.999 210 270.114 210 269.022V260.976C210 259.884 210.885 258.998 211.977 258.998H213.2V261.822C213.2 262.914 214.085 263.799 215.177 263.799H220.823C221.915 263.799 222.8 262.914 222.8 261.822V258.998H224.023Z" fill="#E1DCD6"/>
<rect x="214" y="255" width="7.9999" height="8.00049" rx="1.97664" fill="#E1DCD6"/>
<path d="M247.023 258.998C248.115 258.998 249 259.884 249 260.976V269.022C249 270.114 248.115 270.999 247.023 270.999H234.977C233.885 270.999 233 270.114 233 269.022V260.976C233 259.884 233.885 258.998 234.977 258.998H236.2V261.822C236.2 262.914 237.085 263.799 238.177 263.799H243.823C244.915 263.799 245.8 262.914 245.8 261.822V258.998H247.023Z" fill="#E1DCD6"/>
<rect x="237" y="255" width="7.9999" height="8.00049" rx="1.97664" fill="#E1DCD6"/>
<path d="M270.023 258.998C271.115 258.998 272 259.884 272 260.976V269.022C272 270.114 271.115 270.999 270.023 270.999H257.977C256.885 270.999 256 270.114 256 269.022V260.976C256 259.884 256.885 258.998 257.977 258.998H259.2V261.822C259.2 262.914 260.085 263.799 261.177 263.799H266.823C267.915 263.799 268.8 262.914 268.8 261.822V258.998H270.023Z" fill="#E1DCD6"/>
<rect x="260" y="255" width="7.9999" height="8.00049" rx="1.97664" fill="#E1DCD6"/>
<path d="M293.023 258.998C294.115 258.998 295 259.884 295 260.976V269.022C295 270.114 294.115 270.999 293.023 270.999H280.977C279.885 270.999 279 270.114 279 269.022V260.976C279 259.884 279.885 258.998 280.977 258.998H282.2V261.822C282.2 262.914 283.085 263.799 284.177 263.799H289.823C290.915 263.799 291.8 262.914 291.8 261.822V258.998H293.023Z" fill="#E1DCD6"/>
<rect x="283" y="255" width="7.9999" height="8.00049" rx="1.97664" fill="#E1DCD6"/>
<path d="M316.023 258.998C317.115 258.998 318 259.884 318 260.976V269.022C318 270.114 317.115 270.999 316.023 270.999H303.977C302.885 270.999 302 270.114 302 269.022V260.976C302 259.884 302.885 258.998 303.977 258.998H305.2V261.822C305.2 262.914 306.085 263.799 307.177 263.799H312.823C313.915 263.799 314.8 262.914 314.8 261.822V258.998H316.023Z" fill="#E1DCD6"/>
<rect x="306" y="255" width="7.9999" height="8.00049" rx="1.97664" fill="#E1DCD6"/>
<path d="M339.023 258.998C340.115 258.998 341 259.884 341 260.976V269.022C341 270.114 340.115 270.999 339.023 270.999H326.977C325.885 270.999 325 270.114 325 269.022V260.976C325 259.884 325.885 258.998 326.977 258.998H328.2V261.822C328.2 262.914 329.085 263.799 330.177 263.799H335.823C336.915 263.799 337.8 262.914 337.8 261.822V258.998H339.023Z" fill="#E1DCD6"/>
<rect x="329" y="255" width="7.9999" height="8.00049" rx="1.97664" fill="#E1DCD6"/>
<path d="M362.023 258.998C363.115 258.998 364 259.884 364 260.976V269.022C364 270.114 363.115 270.999 362.023 270.999H349.977C348.885 270.999 348 270.114 348 269.022V260.976C348 259.884 348.885 258.998 349.977 258.998H351.2V261.822C351.2 262.914 352.085 263.799 353.177 263.799H358.823C359.915 263.799 360.8 262.914 360.8 261.822V258.998H362.023Z" fill="#E1DCD6"/>
<rect x="352" y="255" width="7.9999" height="8.00049" rx="1.97664" fill="#E1DCD6"/>
<path d="M385.023 258.998C386.115 258.998 387 259.884 387 260.976V269.022C387 270.114 386.115 270.999 385.023 270.999H372.977C371.885 270.999 371 270.114 371 269.022V260.976C371 259.884 371.885 258.998 372.977 258.998H374.2V261.822C374.2 262.914 375.085 263.799 376.177 263.799H381.823C382.915 263.799 383.8 262.914 383.8 261.822V258.998H385.023Z" fill="#E1DCD6"/>
<rect x="375" y="255" width="7.9999" height="8.00049" rx="1.97664" fill="#E1DCD6"/>
<path d="M408.023 258.998C409.115 258.998 410 259.884 410 260.976V269.022C410 270.114 409.115 270.999 408.023 270.999H395.977C394.885 270.999 394 270.114 394 269.022V260.976C394 259.884 394.885 258.998 395.977 258.998H397.2V261.822C397.2 262.914 398.085 263.799 399.177 263.799H404.823C405.915 263.799 406.8 262.914 406.8 261.822V258.998H408.023Z" fill="#E1DCD6"/>
<rect x="398" y="255" width="7.9999" height="8.00049" rx="1.97664" fill="#E1DCD6"/>
<path d="M59.7969 260.219C59.3125 258.766 58.2031 257.844 56.5938 257.844C54.5938 257.844 53 259.422 53 262.344C53 265.266 54.5938 266.844 56.6875 266.844C58.6016 266.844 59.9062 265.562 59.9375 263.562H56.9844V262.328H61.3125V263.547C61.3125 266.359 59.375 268.156 56.6875 268.156C53.6719 268.156 51.6406 265.922 51.6406 262.344C51.6406 258.766 53.6875 256.531 56.5938 256.531C58.9844 256.531 60.8281 258.031 61.25 260.219H59.7969Z" fill="black"/>
<path d="M98.0234 294.998C99.115 294.998 100 295.884 100 296.976V305.022C100 306.114 99.115 306.999 98.0234 306.999H85.9766C84.8849 306.999 84 306.114 84 305.022V296.976C84 295.884 84.8849 294.998 85.9766 294.998H87.2002V297.822C87.2002 298.914 88.0851 299.799 89.1768 299.799H94.8232C95.9149 299.799 96.7998 298.914 96.7998 297.822V294.998H98.0234Z" fill="#E1DCD6"/>
<rect x="88" y="291" width="7.9999" height="8.00049" rx="1.97664" fill="#E1DCD6"/>
<path d="M121.023 294.998C122.115 294.998 123 295.884 123 296.976V305.022C123 306.114 122.115 306.999 121.023 306.999H108.977C107.885 306.999 107 306.114 107 305.022V296.976C107 295.884 107.885 294.998 108.977 294.998H110.2V297.822C110.2 298.914 111.085 299.799 112.177 299.799H117.823C118.915 299.799 119.8 298.914 119.8 297.822V294.998H121.023Z" fill="#E1DCD6"/>
<rect x="111" y="291" width="7.9999" height="8.00049" rx="1.97664" fill="#E1DCD6"/>
<path d="M144.023 294.998C145.115 294.998 146 295.884 146 296.976V305.022C146 306.114 145.115 306.999 144.023 306.999H131.977C130.885 306.999 130 306.114 130 305.022V296.976C130 295.884 130.885 294.998 131.977 294.998H133.2V297.822C133.2 298.914 134.085 299.799 135.177 299.799H140.823C141.915 299.799 142.8 298.914 142.8 297.822V294.998H144.023Z" fill="#E1DCD6"/>
<rect x="134" y="291" width="7.9999" height="8.00049" rx="1.97664" fill="#E1DCD6"/>
<path d="M167.023 294.998C168.115 294.998 169 295.884 169 296.976V305.022C169 306.114 168.115 306.999 167.023 306.999H154.977C153.885 306.999 153 306.114 153 305.022V296.976C153 295.884 153.885 294.998 154.977 294.998H156.2V297.822C156.2 298.914 157.085 299.799 158.177 299.799H163.823C164.915 299.799 165.8 298.914 165.8 297.822V294.998H167.023Z" fill="#E1DCD6"/>
<rect x="157" y="291" width="7.9999" height="8.00049" rx="1.97664" fill="#E1DCD6"/>
<path d="M190.023 294.998C191.115 294.998 192 295.884 192 296.976V305.022C192 306.114 191.115 306.999 190.023 306.999H177.977C176.885 306.999 176 306.114 176 305.022V296.976C176 295.884 176.885 294.998 177.977 294.998H179.2V297.822C179.2 298.914 180.085 299.799 181.177 299.799H186.823C187.915 299.799 188.8 298.914 188.8 297.822V294.998H190.023Z" fill="#E1DCD6"/>
<rect x="180" y="291" width="7.9999" height="8.00049" rx="1.97664" fill="#E1DCD6"/>
<path d="M213.023 294.998C214.115 294.998 215 295.884 215 296.976V305.022C215 306.114 214.115 306.999 213.023 306.999H200.977C199.885 306.999 199 306.114 199 305.022V296.976C199 295.884 199.885 294.998 200.977 294.998H202.2V297.822C202.2 298.914 203.085 299.799 204.177 299.799H209.823C210.915 299.799 211.8 298.914 211.8 297.822V294.998H213.023Z" fill="#E1DCD6"/>
<rect x="203" y="291" width="7.9999" height="8.00049" rx="1.97664" fill="#E1DCD6"/>
<path d="M236.023 294.998C237.115 294.998 238 295.884 238 296.976V305.022C238 306.114 237.115 306.999 236.023 306.999H223.977C222.885 306.999 222 306.114 222 305.022V296.976C222 295.884 222.885 294.998 223.977 294.998H225.2V297.822C225.2 298.914 226.085 299.799 227.177 299.799H232.823C233.915 299.799 234.8 298.914 234.8 297.822V294.998H236.023Z" fill="#E1DCD6"/>
<rect x="226" y="291" width="7.9999" height="8.00049" rx="1.97664" fill="#E1DCD6"/>
<path d="M259.023 294.998C260.115 294.998 261 295.884 261 296.976V305.022C261 306.114 260.115 306.999 259.023 306.999H246.977C245.885 306.999 245 306.114 245 305.022V296.976C245 295.884 245.885 294.998 246.977 294.998H248.2V297.822C248.2 298.914 249.085 299.799 250.177 299.799H255.823C256.915 299.799 257.8 298.914 257.8 297.822V294.998H259.023Z" fill="#FE8E6E"/>
<rect x="249" y="291" width="7.9999" height="8.00049" rx="1.97664" fill="#FE8E6E"/>
<path d="M282.023 294.998C283.115 294.998 284 295.884 284 296.976V305.022C284 306.114 283.115 306.999 282.023 306.999H269.977C268.885 306.999 268 306.114 268 305.022V296.976C268 295.884 268.885 294.998 269.977 294.998H271.2V297.822C271.2 298.914 272.085 299.799 273.177 299.799H278.823C279.915 299.799 280.8 298.914 280.8 297.822V294.998H282.023Z" fill="#E1DCD6"/>
<rect x="272" y="291" width="7.9999" height="8.00049" rx="1.97664" fill="#E1DCD6"/>
<path d="M305.023 294.998C306.115 294.998 307 295.884 307 296.976V305.022C307 306.114 306.115 306.999 305.023 306.999H292.977C291.885 306.999 291 306.114 291 305.022V296.976C291 295.884 291.885 294.998 292.977 294.998H294.2V297.822C294.2 298.914 295.085 299.799 296.177 299.799H301.823C302.915 299.799 303.8 298.914 303.8 297.822V294.998H305.023Z" fill="#FE8E6E"/>
<rect x="295" y="291" width="7.9999" height="8.00049" rx="1.97664" fill="#FE8E6E"/>
<path d="M328.023 294.998C329.115 294.998 330 295.884 330 296.976V305.022C330 306.114 329.115 306.999 328.023 306.999H315.977C314.885 306.999 314 306.114 314 305.022V296.976C314 295.884 314.885 294.998 315.977 294.998H317.2V297.822C317.2 298.914 318.085 299.799 319.177 299.799H324.823C325.915 299.799 326.8 298.914 326.8 297.822V294.998H328.023Z" fill="#E1DCD6"/>
<rect x="318" y="291" width="7.9999" height="8.00049" rx="1.97664" fill="#E1DCD6"/>
<path d="M351.023 294.998C352.115 294.998 353 295.884 353 296.976V305.022C353 306.114 352.115 306.999 351.023 306.999H338.977C337.885 306.999 337 306.114 337 305.022V296.976C337 295.884 337.885 294.998 338.977 294.998H340.2V297.822C340.2 298.914 341.085 299.799 342.177 299.799H347.823C348.915 299.799 349.8 298.914 349.8 297.822V294.998H351.023Z" fill="#E1DCD6"/>
<rect x="341" y="291" width="7.9999" height="8.00049" rx="1.97664" fill="#E1DCD6"/>
<path d="M374.023 294.998C375.115 294.998 376 295.884 376 296.976V305.022C376 306.114 375.115 306.999 374.023 306.999H361.977C360.885 306.999 360 306.114 360 305.022V296.976C360 295.884 360.885 294.998 361.977 294.998H363.2V297.822C363.2 298.914 364.085 299.799 365.177 299.799H370.823C371.915 299.799 372.8 298.914 372.8 297.822V294.998H374.023Z" fill="#E1DCD6"/>
<rect x="364" y="291" width="7.9999" height="8.00049" rx="1.97664" fill="#E1DCD6"/>
<path d="M397.023 294.998C398.115 294.998 399 295.884 399 296.976V305.022C399 306.114 398.115 306.999 397.023 306.999H384.977C383.885 306.999 383 306.114 383 305.022V296.976C383 295.884 383.885 294.998 384.977 294.998H386.2V297.822C386.2 298.914 387.085 299.799 388.177 299.799H393.823C394.915 299.799 395.8 298.914 395.8 297.822V294.998H397.023Z" fill="#E1DCD6"/>
<rect x="387" y="291" width="7.9999" height="8.00049" rx="1.97664" fill="#E1DCD6"/>
<path d="M420.023 294.998C421.115 294.998 422 295.884 422 296.976V305.022C422 306.114 421.115 306.999 420.023 306.999H407.977C406.885 306.999 406 306.114 406 305.022V296.976C406 295.884 406.885 294.998 407.977 294.998H409.2V297.822C409.2 298.914 410.085 299.799 411.177 299.799H416.823C417.915 299.799 418.8 298.914 418.8 297.822V294.998H420.023Z" fill="#FE8E6E"/>
<rect x="410" y="291" width="7.9999" height="8.00049" rx="1.97664" fill="#FE8E6E"/>
<path d="M98.0234 328.998C99.115 328.998 100 329.884 100 330.976V339.022C100 340.114 99.115 340.999 98.0234 340.999H85.9766C84.8849 340.999 84 340.114 84 339.022V330.976C84 329.884 84.8849 328.998 85.9766 328.998H87.2002V331.822C87.2002 332.914 88.0851 333.799 89.1768 333.799H94.8232C95.9149 333.799 96.7998 332.914 96.7998 331.822V328.998H98.0234Z" fill="#E1DCD6"/>
<rect x="88" y="325" width="7.9999" height="8.00049" rx="1.97664" fill="#E1DCD6"/>
<path d="M121.023 328.998C122.115 328.998 123 329.884 123 330.976V339.022C123 340.114 122.115 340.999 121.023 340.999H108.977C107.885 340.999 107 340.114 107 339.022V330.976C107 329.884 107.885 328.998 108.977 328.998H110.2V331.822C110.2 332.914 111.085 333.799 112.177 333.799H117.823C118.915 333.799 119.8 332.914 119.8 331.822V328.998H121.023Z" fill="#E1DCD6"/>
<rect x="111" y="325" width="7.9999" height="8.00049" rx="1.97664" fill="#E1DCD6"/>
<path d="M144.023 328.998C145.115 328.998 146 329.884 146 330.976V339.022C146 340.114 145.115 340.999 144.023 340.999H131.977C130.885 340.999 130 340.114 130 339.022V330.976C130 329.884 130.885 328.998 131.977 328.998H133.2V331.822C133.2 332.914 134.085 333.799 135.177 333.799H140.823C141.915 333.799 142.8 332.914 142.8 331.822V328.998H144.023Z" fill="#E1DCD6"/>
<rect x="134" y="325" width="7.9999" height="8.00049" rx="1.97664" fill="#E1DCD6"/>
<path d="M167.023 328.998C168.115 328.998 169 329.884 169 330.976V339.022C169 340.114 168.115 340.999 167.023 340.999H154.977C153.885 340.999 153 340.114 153 339.022V330.976C153 329.884 153.885 328.998 154.977 328.998H156.2V331.822C156.2 332.914 157.085 333.799 158.177 333.799H163.823C164.915 333.799 165.8 332.914 165.8 331.822V328.998H167.023Z" fill="#E1DCD6"/>
<rect x="157" y="325" width="7.9999" height="8.00049" rx="1.97664" fill="#E1DCD6"/>
<path d="M190.023 328.998C191.115 328.998 192 329.884 192 330.976V339.022C192 340.114 191.115 340.999 190.023 340.999H177.977C176.885 340.999 176 340.114 176 339.022V330.976C176 329.884 176.885 328.998 177.977 328.998H179.2V331.822C179.2 332.914 180.085 333.799 181.177 333.799H186.823C187.915 333.799 188.8 332.914 188.8 331.822V328.998H190.023Z" fill="#E1DCD6"/>
<rect x="180" y="325" width="7.9999" height="8.00049" rx="1.97664" fill="#E1DCD6"/>
<path d="M213.023 328.998C214.115 328.998 215 329.884 215 330.976V339.022C215 340.114 214.115 340.999 213.023 340.999H200.977C199.885 340.999 199 340.114 199 339.022V330.976C199 329.884 199.885 328.998 200.977 328.998H202.2V331.822C202.2 332.914 203.085 333.799 204.177 333.799H209.823C210.915 333.799 211.8 332.914 211.8 331.822V328.998H213.023Z" fill="#E1DCD6"/>
<rect x="203" y="325" width="7.9999" height="8.00049" rx="1.97664" fill="#E1DCD6"/>
<path d="M236.023 328.998C237.115 328.998 238 329.884 238 330.976V339.022C238 340.114 237.115 340.999 236.023 340.999H223.977C222.885 340.999 222 340.114 222 339.022V330.976C222 329.884 222.885 328.998 223.977 328.998H225.2V331.822C225.2 332.914 226.085 333.799 227.177 333.799H232.823C233.915 333.799 234.8 332.914 234.8 331.822V328.998H236.023Z" fill="#E1DCD6"/>
<rect x="226" y="325" width="7.9999" height="8.00049" rx="1.97664" fill="#E1DCD6"/>
<path d="M259.023 328.998C260.115 328.998 261 329.884 261 330.976V339.022C261 340.114 260.115 340.999 259.023 340.999H246.977C245.885 340.999 245 340.114 245 339.022V330.976C245 329.884 245.885 328.998 246.977 328.998H248.2V331.822C248.2 332.914 249.085 333.799 250.177 333.799H255.823C256.915 333.799 257.8 332.914 257.8 331.822V328.998H259.023Z" fill="#FE8E6E"/>
<rect x="249" y="325" width="7.9999" height="8.00049" rx="1.97664" fill="#FE8E6E"/>
<path d="M282.023 328.998C283.115 328.998 284 329.884 284 330.976V339.022C284 340.114 283.115 340.999 282.023 340.999H269.977C268.885 340.999 268 340.114 268 339.022V330.976C268 329.884 268.885 328.998 269.977 328.998H271.2V331.822C271.2 332.914 272.085 333.799 273.177 333.799H278.823C279.915 333.799 280.8 332.914 280.8 331.822V328.998H282.023Z" fill="#E1DCD6"/>
<rect x="272" y="325" width="7.9999" height="8.00049" rx="1.97664" fill="#E1DCD6"/>
<path d="M305.023 328.998C306.115 328.998 307 329.884 307 330.976V339.022C307 340.114 306.115 340.999 305.023 340.999H292.977C291.885 340.999 291 340.114 291 339.022V330.976C291 329.884 291.885 328.998 292.977 328.998H294.2V331.822C294.2 332.914 295.085 333.799 296.177 333.799H301.823C302.915 333.799 303.8 332.914 303.8 331.822V328.998H305.023Z" fill="#FE8E6E"/>
<rect x="295" y="325" width="7.9999" height="8.00049" rx="1.97664" fill="#FE8E6E"/>
<path d="M328.023 328.998C329.115 328.998 330 329.884 330 330.976V339.022C330 340.114 329.115 340.999 328.023 340.999H315.977C314.885 340.999 314 340.114 314 339.022V330.976C314 329.884 314.885 328.998 315.977 328.998H317.2V331.822C317.2 332.914 318.085 333.799 319.177 333.799H324.823C325.915 333.799 326.8 332.914 326.8 331.822V328.998H328.023Z" fill="#E1DCD6"/>
<rect x="318" y="325" width="7.9999" height="8.00049" rx="1.97664" fill="#E1DCD6"/>
<path d="M351.023 328.998C352.115 328.998 353 329.884 353 330.976V339.022C353 340.114 352.115 340.999 351.023 340.999H338.977C337.885 340.999 337 340.114 337 339.022V330.976C337 329.884 337.885 328.998 338.977 328.998H340.2V331.822C340.2 332.914 341.085 333.799 342.177 333.799H347.823C348.915 333.799 349.8 332.914 349.8 331.822V328.998H351.023Z" fill="#E1DCD6"/>
<rect x="341" y="325" width="7.9999" height="8.00049" rx="1.97664" fill="#E1DCD6"/>
<path d="M374.023 328.998C375.115 328.998 376 329.884 376 330.976V339.022C376 340.114 375.115 340.999 374.023 340.999H361.977C360.885 340.999 360 340.114 360 339.022V330.976C360 329.884 360.885 328.998 361.977 328.998H363.2V331.822C363.2 332.914 364.085 333.799 365.177 333.799H370.823C371.915 333.799 372.8 332.914 372.8 331.822V328.998H374.023Z" fill="#E1DCD6"/>
<rect x="364" y="325" width="7.9999" height="8.00049" rx="1.97664" fill="#E1DCD6"/>
<path d="M397.023 328.998C398.115 328.998 399 329.884 399 330.976V339.022C399 340.114 398.115 340.999 397.023 340.999H384.977C383.885 340.999 383 340.114 383 339.022V330.976C383 329.884 383.885 328.998 384.977 328.998H386.2V331.822C386.2 332.914 387.085 333.799 388.177 333.799H393.823C394.915 333.799 395.8 332.914 395.8 331.822V328.998H397.023Z" fill="#E1DCD6"/>
<rect x="387" y="325" width="7.9999" height="8.00049" rx="1.97664" fill="#E1DCD6"/>
<path d="M420.023 328.998C421.115 328.998 422 329.884 422 330.976V339.022C422 340.114 421.115 340.999 420.023 340.999H407.977C406.885 340.999 406 340.114 406 339.022V330.976C406 329.884 406.885 328.998 407.977 328.998H409.2V331.822C409.2 332.914 410.085 333.799 411.177 333.799H416.823C417.915 333.799 418.8 332.914 418.8 331.822V328.998H420.023Z" fill="#FE8E6E"/>
<rect x="410" y="325" width="7.9999" height="8.00049" rx="1.97664" fill="#FE8E6E"/>
<path d="M47.1016 303V291.688H48.5078V296.719H54.4922V291.688H55.9141V303H54.4922V297.953H48.5078V303H47.1016Z" fill="black"/>
<path d="M47.2031 326.688V338H45.7969V326.688H47.2031Z" fill="black"/>
<path d="M98.0234 366.998C99.115 366.998 100 367.884 100 368.976V377.022C100 378.114 99.115 378.999 98.0234 378.999H85.9766C84.8849 378.999 84 378.114 84 377.022V368.976C84 367.884 84.8849 366.998 85.9766 366.998H87.2002V369.822C87.2002 370.914 88.0851 371.799 89.1768 371.799H94.8232C95.9149 371.799 96.7998 370.914 96.7998 369.822V366.998H98.0234Z" fill="#FE8E6E"/>
<rect x="88" y="363" width="7.9999" height="8.00049" rx="1.97664" fill="#FE8E6E"/>
<path d="M121.023 366.998C122.115 366.998 123 367.884 123 368.976V377.022C123 378.114 122.115 378.999 121.023 378.999H108.977C107.885 378.999 107 378.114 107 377.022V368.976C107 367.884 107.885 366.998 108.977 366.998H110.2V369.822C110.2 370.914 111.085 371.799 112.177 371.799H117.823C118.915 371.799 119.8 370.914 119.8 369.822V366.998H121.023Z" fill="#FE8E6E"/>
<rect x="111" y="363" width="7.9999" height="8.00049" rx="1.97664" fill="#FE8E6E"/>
<path d="M144.023 366.998C145.115 366.998 146 367.884 146 368.976V377.022C146 378.114 145.115 378.999 144.023 378.999H131.977C130.885 378.999 130 378.114 130 377.022V368.976C130 367.884 130.885 366.998 131.977 366.998H133.2V369.822C133.2 370.914 134.085 371.799 135.177 371.799H140.823C141.915 371.799 142.8 370.914 142.8 369.822V366.998H144.023Z" fill="#E1DCD6"/>
<rect x="134" y="363" width="7.9999" height="8.00049" rx="1.97664" fill="#E1DCD6"/>
<path d="M167.023 366.998C168.115 366.998 169 367.884 169 368.976V377.022C169 378.114 168.115 378.999 167.023 378.999H154.977C153.885 378.999 153 378.114 153 377.022V368.976C153 367.884 153.885 366.998 154.977 366.998H156.2V369.822C156.2 370.914 157.085 371.799 158.177 371.799H163.823C164.915 371.799 165.8 370.914 165.8 369.822V366.998H167.023Z" fill="#E1DCD6"/>
<rect x="157" y="363" width="7.9999" height="8.00049" rx="1.97664" fill="#E1DCD6"/>
<path d="M190.023 366.998C191.115 366.998 192 367.884 192 368.976V377.022C192 378.114 191.115 378.999 190.023 378.999H177.977C176.885 378.999 176 378.114 176 377.022V368.976C176 367.884 176.885 366.998 177.977 366.998H179.2V369.822C179.2 370.914 180.085 371.799 181.177 371.799H186.823C187.915 371.799 188.8 370.914 188.8 369.822V366.998H190.023Z" fill="#E1DCD6"/>
<rect x="180" y="363" width="7.9999" height="8.00049" rx="1.97664" fill="#E1DCD6"/>
<path d="M213.023 366.998C214.115 366.998 215 367.884 215 368.976V377.022C215 378.114 214.115 378.999 213.023 378.999H200.977C199.885 378.999 199 378.114 199 377.022V368.976C199 367.884 199.885 366.998 200.977 366.998H202.2V369.822C202.2 370.914 203.085 371.799 204.177 371.799H209.823C210.915 371.799 211.8 370.914 211.8 369.822V366.998H213.023Z" fill="#FE8E6E"/>
<rect x="203" y="363" width="7.9999" height="8.00049" rx="1.97664" fill="#FE8E6E"/>
<path d="M236.023 366.998C237.115 366.998 238 367.884 238 368.976V377.022C238 378.114 237.115 378.999 236.023 378.999H223.977C222.885 378.999 222 378.114 222 377.022V368.976C222 367.884 222.885 366.998 223.977 366.998H225.2V369.822C225.2 370.914 226.085 371.799 227.177 371.799H232.823C233.915 371.799 234.8 370.914 234.8 369.822V366.998H236.023Z" fill="#FE8E6E"/>
<rect x="226" y="363" width="7.9999" height="8.00049" rx="1.97664" fill="#FE8E6E"/>
<path d="M259.023 366.998C260.115 366.998 261 367.884 261 368.976V377.022C261 378.114 260.115 378.999 259.023 378.999H246.977C245.885 378.999 245 378.114 245 377.022V368.976C245 367.884 245.885 366.998 246.977 366.998H248.2V369.822C248.2 370.914 249.085 371.799 250.177 371.799H255.823C256.915 371.799 257.8 370.914 257.8 369.822V366.998H259.023Z" fill="#FE8E6E"/>
<rect x="249" y="363" width="7.9999" height="8.00049" rx="1.97664" fill="#FE8E6E"/>
<path d="M282.023 366.998C283.115 366.998 284 367.884 284 368.976V377.022C284 378.114 283.115 378.999 282.023 378.999H269.977C268.885 378.999 268 378.114 268 377.022V368.976C268 367.884 268.885 366.998 269.977 366.998H271.2V369.822C271.2 370.914 272.085 371.799 273.177 371.799H278.823C279.915 371.799 280.8 370.914 280.8 369.822V366.998H282.023Z" fill="#FE8E6E"/>
<rect x="272" y="363" width="7.9999" height="8.00049" rx="1.97664" fill="#FE8E6E"/>
<path d="M305.023 366.998C306.115 366.998 307 367.884 307 368.976V377.022C307 378.114 306.115 378.999 305.023 378.999H292.977C291.885 378.999 291 378.114 291 377.022V368.976C291 367.884 291.885 366.998 292.977 366.998H294.2V369.822C294.2 370.914 295.085 371.799 296.177 371.799H301.823C302.915 371.799 303.8 370.914 303.8 369.822V366.998H305.023Z" fill="#FE8E6E"/>
<rect x="295" y="363" width="7.9999" height="8.00049" rx="1.97664" fill="#FE8E6E"/>
<path d="M328.023 366.998C329.115 366.998 330 367.884 330 368.976V377.022C330 378.114 329.115 378.999 328.023 378.999H315.977C314.885 378.999 314 378.114 314 377.022V368.976C314 367.884 314.885 366.998 315.977 366.998H317.2V369.822C317.2 370.914 318.085 371.799 319.177 371.799H324.823C325.915 371.799 326.8 370.914 326.8 369.822V366.998H328.023Z" fill="#E1DCD6"/>
<rect x="318" y="363" width="7.9999" height="8.00049" rx="1.97664" fill="#E1DCD6"/>
<path d="M351.023 366.998C352.115 366.998 353 367.884 353 368.976V377.022C353 378.114 352.115 378.999 351.023 378.999H338.977C337.885 378.999 337 378.114 337 377.022V368.976C337 367.884 337.885 366.998 338.977 366.998H340.2V369.822C340.2 370.914 341.085 371.799 342.177 371.799H347.823C348.915 371.799 349.8 370.914 349.8 369.822V366.998H351.023Z" fill="#E1DCD6"/>
<rect x="341" y="363" width="7.9999" height="8.00049" rx="1.97664" fill="#E1DCD6"/>
<path d="M374.023 366.998C375.115 366.998 376 367.884 376 368.976V377.022C376 378.114 375.115 378.999 374.023 378.999H361.977C360.885 378.999 360 378.114 360 377.022V368.976C360 367.884 360.885 366.998 361.977 366.998H363.2V369.822C363.2 370.914 364.085 371.799 365.177 371.799H370.823C371.915 371.799 372.8 370.914 372.8 369.822V366.998H374.023Z" fill="#E1DCD6"/>
<rect x="364" y="363" width="7.9999" height="8.00049" rx="1.97664" fill="#E1DCD6"/>
<path d="M397.023 366.998C398.115 366.998 399 367.884 399 368.976V377.022C399 378.114 398.115 378.999 397.023 378.999H384.977C383.885 378.999 383 378.114 383 377.022V368.976C383 367.884 383.885 366.998 384.977 366.998H386.2V369.822C386.2 370.914 387.085 371.799 388.177 371.799H393.823C394.915 371.799 395.8 370.914 395.8 369.822V366.998H397.023Z" fill="#E1DCD6"/>
<rect x="387" y="363" width="7.9999" height="8.00049" rx="1.97664" fill="#E1DCD6"/>
<path d="M420.023 366.998C421.115 366.998 422 367.884 422 368.976V377.022C422 378.114 421.115 378.999 420.023 378.999H407.977C406.885 378.999 406 378.114 406 377.022V368.976C406 367.884 406.885 366.998 407.977 366.998H409.2V369.822C409.2 370.914 410.085 371.799 411.177 371.799H416.823C417.915 371.799 418.8 370.914 418.8 369.822V366.998H420.023Z" fill="#E1DCD6"/>
<rect x="410" y="363" width="7.9999" height="8.00049" rx="1.97664" fill="#E1DCD6"/>
<path d="M98.0234 398.998C99.115 398.998 100 399.884 100 400.976V409.022C100 410.114 99.115 410.999 98.0234 410.999H85.9766C84.8849 410.999 84 410.114 84 409.022V400.976C84 399.884 84.8849 398.998 85.9766 398.998H87.2002V401.822C87.2002 402.914 88.0851 403.799 89.1768 403.799H94.8232C95.9149 403.799 96.7998 402.914 96.7998 401.822V398.998H98.0234Z" fill="#FE8E6E"/>
<rect x="88" y="395" width="7.9999" height="8.00049" rx="1.97664" fill="#FE8E6E"/>
<path d="M121.023 398.998C122.115 398.998 123 399.884 123 400.976V409.022C123 410.114 122.115 410.999 121.023 410.999H108.977C107.885 410.999 107 410.114 107 409.022V400.976C107 399.884 107.885 398.998 108.977 398.998H110.2V401.822C110.2 402.914 111.085 403.799 112.177 403.799H117.823C118.915 403.799 119.8 402.914 119.8 401.822V398.998H121.023Z" fill="#FE8E6E"/>
<rect x="111" y="395" width="7.9999" height="8.00049" rx="1.97664" fill="#FE8E6E"/>
<path d="M144.023 398.998C145.115 398.998 146 399.884 146 400.976V409.022C146 410.114 145.115 410.999 144.023 410.999H131.977C130.885 410.999 130 410.114 130 409.022V400.976C130 399.884 130.885 398.998 131.977 398.998H133.2V401.822C133.2 402.914 134.085 403.799 135.177 403.799H140.823C141.915 403.799 142.8 402.914 142.8 401.822V398.998H144.023Z" fill="#E1DCD6"/>
<rect x="134" y="395" width="7.9999" height="8.00049" rx="1.97664" fill="#E1DCD6"/>
<path d="M167.023 398.998C168.115 398.998 169 399.884 169 400.976V409.022C169 410.114 168.115 410.999 167.023 410.999H154.977C153.885 410.999 153 410.114 153 409.022V400.976C153 399.884 153.885 398.998 154.977 398.998H156.2V401.822C156.2 402.914 157.085 403.799 158.177 403.799H163.823C164.915 403.799 165.8 402.914 165.8 401.822V398.998H167.023Z" fill="#E1DCD6"/>
<rect x="157" y="395" width="7.9999" height="8.00049" rx="1.97664" fill="#E1DCD6"/>
<path d="M190.023 398.998C191.115 398.998 192 399.884 192 400.976V409.022C192 410.114 191.115 410.999 190.023 410.999H177.977C176.885 410.999 176 410.114 176 409.022V400.976C176 399.884 176.885 398.998 177.977 398.998H179.2V401.822C179.2 402.914 180.085 403.799 181.177 403.799H186.823C187.915 403.799 188.8 402.914 188.8 401.822V398.998H190.023Z" fill="#E1DCD6"/>
<rect x="180" y="395" width="7.9999" height="8.00049" rx="1.97664" fill="#E1DCD6"/>
<path d="M213.023 398.998C214.115 398.998 215 399.884 215 400.976V409.022C215 410.114 214.115 410.999 213.023 410.999H200.977C199.885 410.999 199 410.114 199 409.022V400.976C199 399.884 199.885 398.998 200.977 398.998H202.2V401.822C202.2 402.914 203.085 403.799 204.177 403.799H209.823C210.915 403.799 211.8 402.914 211.8 401.822V398.998H213.023Z" fill="#FE8E6E"/>
<rect x="203" y="395" width="7.9999" height="8.00049" rx="1.97664" fill="#FE8E6E"/>
<path d="M236.023 398.998C237.115 398.998 238 399.884 238 400.976V409.022C238 410.114 237.115 410.999 236.023 410.999H223.977C222.885 410.999 222 410.114 222 409.022V400.976C222 399.884 222.885 398.998 223.977 398.998H225.2V401.822C225.2 402.914 226.085 403.799 227.177 403.799H232.823C233.915 403.799 234.8 402.914 234.8 401.822V398.998H236.023Z" fill="#FE8E6E"/>
<rect x="226" y="395" width="7.9999" height="8.00049" rx="1.97664" fill="#FE8E6E"/>
<path d="M259.023 398.998C260.115 398.998 261 399.884 261 400.976V409.022C261 410.114 260.115 410.999 259.023 410.999H246.977C245.885 410.999 245 410.114 245 409.022V400.976C245 399.884 245.885 398.998 246.977 398.998H248.2V401.822C248.2 402.914 249.085 403.799 250.177 403.799H255.823C256.915 403.799 257.8 402.914 257.8 401.822V398.998H259.023Z" fill="#FE8E6E"/>
<rect x="249" y="395" width="7.9999" height="8.00049" rx="1.97664" fill="#FE8E6E"/>
<path d="M282.023 398.998C283.115 398.998 284 399.884 284 400.976V409.022C284 410.114 283.115 410.999 282.023 410.999H269.977C268.885 410.999 268 410.114 268 409.022V400.976C268 399.884 268.885 398.998 269.977 398.998H271.2V401.822C271.2 402.914 272.085 403.799 273.177 403.799H278.823C279.915 403.799 280.8 402.914 280.8 401.822V398.998H282.023Z" fill="#FE8E6E"/>
<rect x="272" y="395" width="7.9999" height="8.00049" rx="1.97664" fill="#FE8E6E"/>
<path d="M305.023 398.998C306.115 398.998 307 399.884 307 400.976V409.022C307 410.114 306.115 410.999 305.023 410.999H292.977C291.885 410.999 291 410.114 291 409.022V400.976C291 399.884 291.885 398.998 292.977 398.998H294.2V401.822C294.2 402.914 295.085 403.799 296.177 403.799H301.823C302.915 403.799 303.8 402.914 303.8 401.822V398.998H305.023Z" fill="#FE8E6E"/>
<rect x="295" y="395" width="7.9999" height="8.00049" rx="1.97664" fill="#FE8E6E"/>
<path d="M328.023 398.998C329.115 398.998 330 399.884 330 400.976V409.022C330 410.114 329.115 410.999 328.023 410.999H315.977C314.885 410.999 314 410.114 314 409.022V400.976C314 399.884 314.885 398.998 315.977 398.998H317.2V401.822C317.2 402.914 318.085 403.799 319.177 403.799H324.823C325.915 403.799 326.8 402.914 326.8 401.822V398.998H328.023Z" fill="#E1DCD6"/>
<rect x="318" y="395" width="7.9999" height="8.00049" rx="1.97664" fill="#E1DCD6"/>
<path d="M351.023 398.998C352.115 398.998 353 399.884 353 400.976V409.022C353 410.114 352.115 410.999 351.023 410.999H338.977C337.885 410.999 337 410.114 337 409.022V400.976C337 399.884 337.885 398.998 338.977 398.998H340.2V401.822C340.2 402.914 341.085 403.799 342.177 403.799H347.823C348.915 403.799 349.8 402.914 349.8 401.822V398.998H351.023Z" fill="#E1DCD6"/>
<rect x="341" y="395" width="7.9999" height="8.00049" rx="1.97664" fill="#E1DCD6"/>
<path d="M374.023 398.998C375.115 398.998 376 399.884 376 400.976V409.022C376 410.114 375.115 410.999 374.023 410.999H361.977C360.885 410.999 360 410.114 360 409.022V400.976C360 399.884 360.885 398.998 361.977 398.998H363.2V401.822C363.2 402.914 364.085 403.799 365.177 403.799H370.823C371.915 403.799 372.8 402.914 372.8 401.822V398.998H374.023Z" fill="#E1DCD6"/>
<rect x="364" y="395" width="7.9999" height="8.00049" rx="1.97664" fill="#E1DCD6"/>
<path d="M397.023 398.998C398.115 398.998 399 399.884 399 400.976V409.022C399 410.114 398.115 410.999 397.023 410.999H384.977C383.885 410.999 383 410.114 383 409.022V400.976C383 399.884 383.885 398.998 384.977 398.998H386.2V401.822C386.2 402.914 387.085 403.799 388.177 403.799H393.823C394.915 403.799 395.8 402.914 395.8 401.822V398.998H397.023Z" fill="#E1DCD6"/>
<rect x="387" y="395" width="7.9999" height="8.00049" rx="1.97664" fill="#E1DCD6"/>
<path d="M420.023 398.998C421.115 398.998 422 399.884 422 400.976V409.022C422 410.114 421.115 410.999 420.023 410.999H407.977C406.885 410.999 406 410.114 406 409.022V400.976C406 399.884 406.885 398.998 407.977 398.998H409.2V401.822C409.2 402.914 410.085 403.799 411.177 403.799H416.823C417.915 403.799 418.8 402.914 418.8 401.822V398.998H420.023Z" fill="#E1DCD6"/>
<rect x="410" y="395" width="7.9999" height="8.00049" rx="1.97664" fill="#E1DCD6"/>
<path d="M42.9531 361.688H44.375V369.766C44.375 371.938 43.0938 373.156 41.125 373.156C39.25 373.156 37.8906 372.078 37.8906 370.328H39.2812C39.2812 371.281 40.0625 371.906 41.125 371.906C42.2969 371.906 42.9531 371.172 42.9531 369.766V361.688Z" fill="black"/>
<path d="M32.7812 408V396.688H34.1875V402.281H34.3281L39.3594 396.688H41.2031L36.4688 401.797L41.2031 408H39.4844L35.5938 402.766L34.1875 404.359V408H32.7812Z" fill="black"/>
<path d="M390.746 59.0932C394.751 59.0581 398.165 61.9881 398.735 65.9507C414.913 178.38 431.461 293.878 448.2 410.971C448.82 415.304 445.844 419.321 441.534 419.965C317.395 438.517 194.612 437.61 67.3455 431.339C62.7391 431.112 59.2833 427.033 59.81 422.446C72.7697 309.574 85.2892 198.841 97.1835 90.7608L99.5537 69.1802L99.6039 68.8065C100.206 64.9721 103.492 62.1004 107.41 62.0533C201.704 60.9203 293.614 59.9454 390.746 59.0932Z" stroke="#FF8C8B" stroke-width="4"/>
</g>
<defs>
<clipPath id="clip0_1310_14867">
<rect width="500" height="467" fill="white"/>
</clipPath>
</defs>
</svg>
