<svg width="300" height="300" viewBox="0 0 300 300" fill="none" xmlns="http://www.w3.org/2000/svg">
<path d="M112.776 146.172L188.396 80C188.396 80 197.441 82.6493 184.067 108.117C170.706 133.585 162.671 144.279 162.671 144.279H194.292C194.292 144.279 198.31 143.791 189.743 160.993C181.177 178.196 156.8 218.778 156.8 218.778C156.8 218.778 121.808 220.756 111.583 217.667C111.583 217.667 108.434 214.578 115.912 207.79C123.39 201.002 177.509 153.473 177.509 153.473H128.236C128.236 153.473 103.262 151.881 112.776 146.184V146.172Z" fill="#FF5E32"/>
<path d="M260.471 80C260.526 80.0163 269.476 82.7272 256.142 108.117C242.781 133.585 234.745 144.279 234.745 144.279H266.368C266.391 144.277 270.36 143.842 261.819 160.993C253.269 178.163 228.967 218.624 228.875 218.777C228.875 218.777 193.884 220.756 183.659 217.667C183.659 217.667 180.509 214.578 187.987 207.79C195.458 201.008 249.49 153.555 249.584 153.473H201.717C202.681 150.644 203.163 148.355 203.226 146.447C203.294 144.361 202.907 141.068 200.199 138.58C198.879 137.368 197.408 136.748 196.148 136.475C196.089 136.462 196.029 136.452 195.971 136.44L260.471 80ZM195.196 152.229C195.19 152.229 195.184 152.229 195.178 152.229L195.227 152.225C195.222 152.225 195.206 152.227 195.196 152.229ZM194.787 144.472C194.846 144.527 194.904 144.598 194.959 144.688C194.904 144.598 194.846 144.527 194.787 144.472Z" fill="#1A0088"/>
<path d="M71.9697 80C93.4829 80 110.926 96.4335 110.939 116.7C110.939 131.18 102.049 143.681 89.1289 149.663L102.821 146.669C102.498 148.174 102.541 149.782 103.035 151.362C103.643 153.304 104.764 154.671 105.677 155.535C107.368 157.137 109.403 158.01 110.698 158.492C112.176 159.042 113.76 159.457 115.223 159.778C115.513 159.842 115.807 159.902 116.101 159.961L85.6553 214.993C85.6417 215.031 84.0685 219.436 79.7588 219.437H37.1602C37.1336 219.411 34.0245 216.452 37.1602 212.148C40.089 208.132 71.5803 159.981 76 153.229C74.6653 153.363 73.3304 153.424 71.9697 153.424C50.4437 153.424 33 136.991 33 116.712C33 96.4331 50.4567 80.0001 71.9697 80ZM119.258 152.413C119.569 152.467 119.881 152.518 120.191 152.567H120.19C119.88 152.518 119.569 152.467 119.258 152.413ZM117.883 152.16C117.837 152.151 117.792 152.141 117.746 152.132C117.792 152.141 117.837 152.151 117.883 152.16ZM116.002 151.746C115.915 151.725 115.829 151.701 115.743 151.679C115.829 151.701 115.915 151.725 116.002 151.746ZM114.267 151.262C114.234 151.251 114.201 151.24 114.169 151.229C114.201 151.24 114.234 151.251 114.267 151.262ZM113.487 150.993C113.386 150.955 113.287 150.917 113.189 150.878C113.287 150.917 113.386 150.955 113.487 150.993ZM110.615 148.667C110.618 148.728 110.627 148.787 110.639 148.847C110.633 148.82 110.628 148.794 110.624 148.767L110.615 148.667ZM110.615 148.563V148.56C110.616 148.548 110.617 148.536 110.618 148.524C110.617 148.537 110.616 148.55 110.615 148.563ZM110.91 147.752C110.82 147.886 110.752 148.017 110.704 148.146C110.752 148.017 110.82 147.886 110.91 147.752ZM112.354 146.448C111.812 146.806 111.409 147.148 111.127 147.473C111.409 147.148 111.812 146.805 112.355 146.447L112.354 146.448ZM114.679 151.389C114.557 151.353 114.438 151.316 114.32 151.278C114.438 151.316 114.557 151.353 114.679 151.389Z" fill="#D5CCC0"/>
</svg>
