<svg width="146" height="146" viewBox="0 0 146 146" fill="none" xmlns="http://www.w3.org/2000/svg">
<path d="M136.251 38.7253C136.655 38.7158 137.045 38.803 137.413 38.9577L138.178 39.2797C138.76 39.5251 139.117 40.0035 139.274 40.5584L139.53 41.4676C139.708 42.0998 139.571 42.74 139.096 43.2315L138.469 43.8799C138.303 44.0521 138.17 44.2211 138.067 44.3844L137.849 44.7256L137.632 45.068C137.462 45.3369 137.271 45.5944 137.062 45.84L136.525 46.4703C136.439 46.5714 136.38 46.6802 136.345 46.8024L136.117 47.5903C136.043 47.8452 135.973 48.1021 135.905 48.36L135.694 49.157C135.581 49.5863 135.368 49.9695 135.068 50.2951L134.501 50.9107C134.49 50.9228 134.488 50.9291 134.487 50.9322C134.485 50.9364 134.479 50.9555 134.478 50.998L134.457 51.8913C134.442 52.527 134.139 53.0631 133.625 53.416L132.869 53.9352C132.727 54.0324 132.65 54.1259 132.604 54.2073L132.206 54.909C132.111 55.0761 132.035 55.2541 131.978 55.4441L131.742 56.2286C131.695 56.3862 131.668 56.5684 131.667 56.7806L131.665 57.6842C131.663 58.3579 131.328 58.9099 130.775 59.2497L130.373 59.498L129.97 59.7451C129.945 59.7605 129.931 59.7724 129.924 59.7791L129.729 60.5726C129.628 60.9832 129.444 61.3588 129.18 61.6893L128.667 62.332C128.565 62.4595 128.488 62.5959 128.435 62.7435L128.299 63.1256L128.162 63.5087C128.061 63.7904 127.949 64.0667 127.825 64.3374L127.491 65.072C127.44 65.1843 127.404 65.3222 127.397 65.4983L127.362 66.3859C127.336 67.0263 127.018 67.5533 126.5 67.8948L125.726 68.4049C125.623 68.4726 125.602 68.5208 125.594 68.5421L125.314 69.3039C125.188 69.6464 125.005 69.9583 124.776 70.2414L125.083 70.2437L125.491 70.2459C125.808 70.248 126.127 70.2717 126.447 70.3151L126.864 70.3718L127.273 70.4273C127.279 70.4239 127.291 70.4168 127.305 70.4058L128.033 69.8491C128.421 69.5525 128.877 69.3646 129.385 69.3458L129.79 69.3311L130.196 69.3163C130.537 69.3037 130.881 69.3267 131.224 69.3832L132.061 69.5204C132.259 69.553 132.446 69.5603 132.624 69.5442L133.026 69.5079L133.429 69.4705C133.639 69.4515 133.846 69.4152 134.051 69.3606L134.444 69.2563L134.835 69.152C135.128 69.0737 135.426 69.0101 135.726 68.9615L136.524 68.8323C136.803 68.7871 137.076 68.8011 137.334 68.8708L137.881 68.8051L137.993 68.7949C138.261 68.7795 138.556 68.824 138.836 68.9797C139.116 69.1347 139.308 69.3597 139.437 69.5907L139.489 69.6904L139.836 70.4137C140.019 70.7949 140.113 71.2059 140.095 71.6346L140.062 72.3851C140.04 72.9045 139.811 73.3417 139.451 73.6661C139.515 73.8189 139.558 74.0143 139.519 74.242C139.458 74.5992 139.236 74.8065 139.127 74.8915C139.011 74.9811 138.901 75.0291 138.843 75.0514C138.646 75.1275 138.42 75.15 138.298 75.1613L138.089 75.1806C138.059 75.2409 138.033 75.3221 138.027 75.4402L138.009 75.8461L137.988 76.253C137.961 76.8232 137.703 77.321 137.246 77.6678L136.699 78.0816L136.709 78.4035L136.722 78.8275C136.742 79.4791 136.436 80.0375 135.882 80.3749L135.154 80.8182C135.056 80.8781 135.034 80.9212 135.028 80.9338L134.718 81.6004C134.658 81.7289 134.613 81.8741 134.587 82.0402L134.472 82.8111C134.422 83.1411 134.338 83.4603 134.216 83.7656L133.941 84.4526C133.837 84.7145 133.719 84.9704 133.588 85.2189L133.245 85.8685C133.126 86.0937 133.003 86.3167 132.878 86.5385L132.516 87.179C132.401 87.3838 132.287 87.5901 132.177 87.7979L131.834 88.4475C131.629 88.835 131.328 89.1415 130.972 89.3759L130.275 89.8362C130.237 89.8611 130.221 89.8792 130.215 89.8861C130.211 89.8914 130.209 89.895 130.207 89.8997L129.963 90.6025C129.915 90.7422 129.882 90.9024 129.87 91.0866L129.846 91.489L129.821 91.8926C129.783 92.4999 129.472 92.9985 128.977 93.3176L128.292 93.7586L128.236 94.0805L128.169 94.4614C128.091 94.9014 127.899 95.2998 127.596 95.6325L127.086 96.1925C127.083 96.1955 127.082 96.197 127.082 96.197L127.081 96.2061C127.079 96.2127 127.077 96.2242 127.076 96.2412L127.038 97.0529C127.014 97.5429 126.838 98.0039 126.495 98.3792L126.239 98.6581L125.983 98.9381C125.913 99.0144 125.868 99.0944 125.839 99.1864L125.729 99.5435L125.62 99.9017C125.469 100.394 125.151 100.775 124.744 101.042L124.395 101.271L124.058 101.492L123.994 101.824L123.922 102.203C123.866 102.498 123.791 102.786 123.698 103.066L123.461 103.773C123.307 104.232 123.015 104.599 122.637 104.87L122.303 105.11L122.038 105.299L122.001 106.026C121.977 106.484 121.831 106.915 121.563 107.292L121.105 107.938C120.808 108.356 120.388 108.636 119.888 108.752L119.118 108.93C118.609 109.048 118.108 108.97 117.658 108.732L117.291 108.538L116.933 108.347L116.606 108.452L116.239 108.567C115.738 108.725 115.23 108.679 114.767 108.464L114.101 108.155L113.431 108.472C113.104 108.627 112.763 108.736 112.411 108.789L111.678 108.9C111.196 108.974 110.733 108.877 110.32 108.662L109.707 108.344L109.084 108.693C108.585 108.972 108.013 109.028 107.461 108.798L106.751 108.504L106.042 108.801C105.589 108.99 105.103 109.025 104.623 108.883L103.889 108.666C103.821 108.646 103.766 108.645 103.703 108.661L102.969 108.855C102.453 108.991 101.946 108.91 101.498 108.673L100.888 108.35L100.271 108.696C99.7222 109.005 99.0954 109.016 98.5358 108.69L97.8284 108.277C97.5664 108.124 97.3238 107.967 97.1028 107.804L96.5417 107.392C96.3508 107.251 95.9205 106.859 96.0089 106.221C96.0845 105.676 96.4978 105.388 96.6585 105.286L97.3364 104.857C97.3761 104.832 97.3999 104.807 97.4214 104.753L97.5699 104.373L97.7195 103.993C97.8806 103.584 98.137 103.223 98.4995 102.95L98.7942 102.729L99.089 102.507C99.205 102.419 99.3079 102.316 99.3973 102.194L99.8394 101.591C100.041 101.316 100.276 101.073 100.543 100.863L100.834 100.636L101.124 100.408C101.28 100.286 101.427 100.153 101.565 100.011L102.076 99.4811C102.436 99.1086 102.894 98.9189 103.364 98.852L103.806 98.7896L104.095 98.7477L104.318 98.1604C104.436 97.8505 104.579 97.5575 104.747 97.283L105.145 96.6312L105.204 96.5416C105.506 96.1045 105.95 95.8508 106.438 95.7537L106.861 95.6699L107.111 95.62L107.181 95.391L107.307 94.9851C107.443 94.5443 107.691 94.1438 108.079 93.847L108.665 93.3981C108.81 93.2866 108.945 93.1634 109.067 93.0274L109.313 92.753L109.56 92.4798C109.727 92.2954 109.894 92.1108 110.061 91.9277L110.559 91.3836C110.909 91.0009 111.363 90.7985 111.834 90.7227L112.27 90.6535L112.471 90.6207L112.623 89.9949C112.733 89.5447 112.954 89.1192 113.331 88.7944L113.61 88.5541L113.889 88.3149C114.195 88.0512 114.549 87.8672 114.933 87.7526L115.717 87.5191C115.792 87.4966 115.808 87.4737 115.815 87.4646L116.266 86.8706C116.435 86.6479 116.614 86.4345 116.802 86.2301L117.3 85.6871C117.5 85.469 117.717 85.2666 117.947 85.0806L118.519 84.6181C118.663 84.502 118.797 84.3744 118.918 84.2338L119.16 83.9549L119.401 83.6749C119.552 83.5007 119.701 83.3222 119.845 83.1398L120.305 82.5572C120.533 82.2679 120.807 82.0247 121.121 81.8316L121.758 81.4394C121.857 81.3786 121.938 81.3042 122.006 81.2104L122.226 80.9066L122.446 80.6039C122.794 80.1256 123.301 79.8964 123.818 79.833L124.268 79.7775L124.402 79.7605L124.498 79.1359C124.589 78.5503 124.919 77.9937 125.567 77.7358L126.3 77.4456C126.349 77.4261 126.363 77.4083 126.378 77.3844L126.58 77.0613L126.781 76.7394L126.843 76.6464C127.039 76.3691 127.293 76.1705 127.576 76.041C127.399 75.9851 127.225 75.9407 127.053 75.9141L126.65 75.8517L126.247 75.7894C126.097 75.766 125.947 75.7696 125.794 75.7996L125.39 75.8778L124.988 75.9572C124.766 76.0006 124.542 76.0612 124.316 76.1385L123.51 76.4129C122.903 76.6199 122.31 76.499 121.817 76.1782L121.011 75.6545C120.877 75.5672 120.8 75.559 120.767 75.5592H120.679L120.321 75.8177C119.891 76.1271 119.384 76.2616 118.852 76.1918L118.046 76.0864C118.024 76.0835 118.002 76.0822 117.98 76.0807C117.946 76.0924 117.912 76.1039 117.878 76.1159L117.474 76.2576L117.072 76.4004C116.493 76.6047 115.913 76.5194 115.412 76.2281L115.075 76.032L114.472 75.7089C114.441 75.6922 114.41 75.6784 114.381 75.6647C114.344 75.6561 114.312 75.6518 114.284 75.6511L113.882 75.6397L113.478 75.6284C113.437 75.6274 113.36 75.6355 113.231 75.7134L112.425 76.2031C111.982 76.4719 111.469 76.6053 110.923 76.5149L110.519 76.448L110.117 76.3811C109.905 76.3459 109.693 76.3289 109.483 76.3301L109.081 76.3324L108.677 76.3347C108.392 76.3362 108.107 76.3301 107.821 76.3176L107.015 76.2836C106.607 76.2657 106.216 76.1574 105.849 75.9821C105.371 76.1199 104.889 76.0641 104.45 75.8778L104.273 75.803L104.177 75.837C104.036 75.8869 103.774 75.9747 103.497 75.9628C103.369 75.9573 103.073 75.9225 102.808 75.6919L102.222 75.8222C101.582 75.9642 100.978 75.7674 100.535 75.303L99.9245 74.6614C99.531 74.2483 99.331 73.7216 99.3656 73.1435L99.3905 72.7127L99.4166 72.2808C99.4416 71.8634 99.5445 71.4624 99.7238 71.0848L100.092 70.3071C100.327 69.8133 100.72 69.4484 101.227 69.2483L102.031 68.932C102.161 68.8806 102.251 68.8152 102.318 68.7405L102.857 68.1374C103.111 67.8535 103.408 67.6155 103.739 67.4254L104.456 67.0139C104.62 66.9199 104.764 66.8104 104.89 66.6852L105.462 66.1172C105.586 65.9944 105.698 65.8509 105.796 65.6819L106.218 64.9507C106.478 64.5025 106.865 64.1768 107.342 63.9894L108.073 63.7015L108.187 63.2786L108.313 62.8195L108.346 62.7084C108.433 62.4487 108.577 62.196 108.797 61.984C109.05 61.7409 109.353 61.599 109.659 61.5317L110.539 61.339L110.696 61.0057L110.882 60.6135C111.071 60.2146 111.343 59.869 111.698 59.6L112.343 59.1114C112.435 59.0422 112.515 58.9511 112.584 58.8235L112.986 58.0719C113.251 57.5773 113.677 57.2374 114.199 57.0697L115.045 56.7977C115.082 56.7857 115.095 56.7753 115.097 56.7738C115.099 56.7726 115.1 56.7712 115.102 56.7693C115.103 56.7672 115.108 56.763 115.113 56.7546L115.539 56.0279C115.786 55.6069 116.141 55.2836 116.582 55.0768L116.964 54.8977L117.347 54.7174C117.367 54.708 117.376 54.7016 117.379 54.6982C117.383 54.6944 117.395 54.6809 117.41 54.6472L117.767 53.8445C117.942 53.4512 118.192 53.1035 118.522 52.822L119.135 52.2983C119.357 52.1088 119.586 51.9266 119.821 51.7519L120.472 51.2678C120.637 51.1446 120.789 51.0075 120.928 50.8563L121.477 50.2623C121.677 50.0447 121.886 49.8351 122.102 49.6342L122.692 49.0856C123.05 48.7528 123.486 48.5568 123.948 48.4655L124.876 48.283C124.93 48.2722 124.953 48.2593 124.957 48.2569L125.44 47.5948C125.564 47.4257 125.676 47.2379 125.777 47.0303L126.156 46.2515C126.326 45.9009 126.543 45.5825 126.812 45.306L127.375 44.7279C127.571 44.5267 127.77 44.329 127.973 44.135L128.554 43.5772C128.812 43.3299 129.101 43.1184 129.415 42.9424L129.776 42.7395L130.138 42.5377C130.364 42.4114 130.584 42.2794 130.8 42.1432L131.493 41.7056C131.626 41.6214 131.74 41.5195 131.836 41.3973L132.342 40.7568C132.55 40.4927 132.782 40.2508 133.036 40.0324L133.647 39.5064C133.843 39.3373 134.102 39.1274 134.362 39.0167L134.507 38.9554L134.651 38.8942L134.762 38.8511C135.027 38.7637 135.317 38.7473 135.531 38.7423L136.251 38.7253Z" fill="#1F2792"/>
<path d="M25.1674 37.0164C25.6759 36.9506 26.1526 37.0867 26.5606 37.3474L26.9381 37.59L27.3167 37.8304C27.4174 37.8947 27.4611 37.8931 27.4664 37.8927L27.845 37.8712L28.2225 37.8508C28.4446 37.8386 28.6762 37.816 28.9163 37.7828L29.3165 37.7272L29.7155 37.6728C30.1518 37.6124 30.5866 37.662 30.9988 37.8292L31.7175 38.1206C32.069 38.2633 32.3885 38.4644 32.6731 38.7169L32.9758 38.9844L33.2173 39.1998L34.1197 39.0524L34.233 39.0377C34.5005 39.0093 34.7934 39.0323 35.0821 39.1533C35.4177 39.294 35.6667 39.5323 35.8382 39.8018L36.303 40.5341C36.3078 40.5416 36.3126 40.5464 36.3155 40.55L37.1192 40.7427C37.5764 40.8516 37.9837 41.0818 38.305 41.4376L38.831 42.0203C39.0826 42.2991 39.2834 42.6143 39.4341 42.9601L39.7606 43.7083C39.8403 43.891 39.9297 44.0449 40.027 44.1742L40.4759 44.7705C40.4957 44.7967 40.5493 44.8531 40.6936 44.9133L41.1096 45.0879L41.5257 45.2613C42.0553 45.4823 42.4599 45.9027 42.5992 46.4925L42.623 46.6126L42.7613 47.4266C42.7927 47.612 42.8429 47.7697 42.9076 47.905L43.2352 48.5897C43.3655 48.8619 43.4763 49.1429 43.5662 49.4308L43.7918 50.1541C43.8882 50.4629 43.9525 50.7793 43.9834 51.1018L44.0559 51.8591C44.0718 52.0247 44.1078 52.1845 44.1648 52.3397L44.4278 53.0539C44.5212 53.3081 44.608 53.5672 44.6896 53.8304L44.9198 54.5718C45.0133 54.8737 45.0791 55.1853 45.0875 55.4901L45.1034 56.0365C45.106 56.1313 45.1065 56.2222 45.1045 56.2961C45.1038 56.3233 45.1018 56.3732 45.0955 56.4299C45.1008 56.4558 45.1059 56.4848 45.1125 56.516L45.278 57.2982C45.3511 57.6429 45.3799 57.9917 45.363 58.3423L45.3256 59.129C45.3063 59.5269 45.2087 59.9094 45.0388 60.2695L44.8687 60.6322L44.6976 60.9939C44.6203 61.1576 44.5666 61.3229 44.5355 61.4904L44.3938 62.2579C44.3088 62.7148 44.096 63.1173 43.7839 63.4516L43.2238 64.0524C43.1315 64.1513 43.0782 64.2448 43.0481 64.3369L42.8101 65.0681C42.7263 65.3252 42.6366 65.583 42.5403 65.8413L42.4031 66.2097L42.2648 66.5781C42.1072 67.0004 41.8451 67.3583 41.4928 67.6369L40.8682 68.1301C40.6923 68.2691 40.532 68.4135 40.3864 68.562L39.8547 69.105C39.8347 69.1254 39.8144 69.1482 39.7946 69.1741C40.0842 69.1471 40.3765 69.1621 40.6664 69.2161L41.6832 69.4054C41.8606 69.4384 41.9975 69.4286 42.1106 69.3975L43.0232 69.1458C43.2857 69.0734 43.5451 68.9862 43.802 68.8851L44.6908 68.5348C44.8387 68.4765 44.9496 68.4334 45.0229 68.4044C45.0551 68.3917 45.0796 68.3817 45.0966 68.3749C45.0953 68.3755 45.0935 68.3766 45.0921 68.3772C45.0881 68.3789 45.0717 68.3865 45.0513 68.3965C45.0446 68.3997 45.011 68.4161 44.9708 68.4395C44.9567 68.4478 44.8983 68.4818 44.8313 68.5348C44.8224 68.5421 44.8112 68.5537 44.7973 68.5665C45.016 68.4192 45.3791 68.2913 45.5183 68.2763C45.727 68.2667 45.8898 68.3182 45.8981 68.3205C45.9766 68.3427 46.0364 68.3686 46.0432 68.3715C46.0746 68.3849 46.0992 68.3973 46.1044 68.3999C46.119 68.4071 46.1313 68.4132 46.1339 68.4146C46.1411 68.4184 46.1472 68.4222 46.1498 68.4237C46.1558 68.427 46.1634 68.4308 46.169 68.4339C46.181 68.4405 46.1983 68.4496 46.2189 68.4611C46.261 68.4846 46.3235 68.5204 46.406 68.5665L46.6531 68.7048L46.8809 68.8318C46.8888 68.8345 46.9052 68.84 46.9308 68.8465C46.9946 68.8626 47.0936 68.8817 47.2346 68.8975L48.3071 69.0166L48.4488 69.037C48.564 69.0578 48.6867 69.0907 48.8104 69.139C48.9256 69.1218 49.0455 69.1065 49.1697 69.0914L49.9542 68.995L50.0664 68.9848C50.3341 68.9694 50.6292 69.0139 50.9099 69.1696C51.1892 69.3246 51.3816 69.5497 51.5107 69.7806L51.5628 69.8804L51.9097 70.6036C52.0928 70.9849 52.1852 71.3959 52.1671 71.8246L52.1353 72.575C52.1107 73.152 51.8333 73.6298 51.4019 73.9615L50.7591 74.4546C50.6444 74.5428 50.5741 74.629 50.529 74.7097L50.1707 75.3513C50.1362 75.4131 50.1066 75.4998 50.1005 75.6302L50.0823 76.036L50.0619 76.443C50.0349 77.0132 49.7763 77.5109 49.3194 77.8578L48.773 78.2715L48.782 78.5935L48.7945 79.0175C48.8144 79.669 48.509 80.2274 47.9556 80.5649L47.2278 81.0081C47.1294 81.0681 47.1079 81.1111 47.102 81.1237L46.7914 81.7903C46.7315 81.9188 46.6861 82.0641 46.661 82.2302L46.5454 83.001C46.4956 83.3313 46.4112 83.6512 46.2892 83.9567L46.0148 84.6425C45.9102 84.9045 45.7923 85.1603 45.6612 85.4089L45.3188 86.0584C45.2 86.2836 45.0769 86.5067 44.9515 86.7284L44.5899 87.3689C44.4741 87.5737 44.361 87.78 44.2509 87.9879L43.9074 88.6374C43.7022 89.0249 43.4015 89.3315 43.0459 89.5659L42.3487 90.0261C42.3099 90.0517 42.2928 90.0695 42.2875 90.076C42.2831 90.0814 42.2823 90.0849 42.2807 90.0896L42.0369 90.7925C41.9885 90.9322 41.9555 91.0923 41.944 91.2765L41.919 91.6801L41.8941 92.0826C41.8562 92.69 41.5448 93.1885 41.0495 93.5075L40.366 93.9485L40.3093 94.2705L40.2424 94.6514C40.165 95.0913 39.9728 95.4898 39.6699 95.8224L39.1598 96.3824C39.1573 96.3852 39.1555 96.3867 39.1552 96.387L39.1541 96.396C39.1527 96.4026 39.1504 96.4141 39.1496 96.4312L39.111 97.2428C39.0875 97.7329 38.9117 98.1939 38.568 98.5692L38.313 98.8492L38.0568 99.1281C37.9869 99.2043 37.9411 99.2844 37.9128 99.3763L37.8028 99.7334L37.694 100.092C37.5426 100.584 37.2246 100.965 36.8177 101.232L36.4685 101.461L36.1307 101.683L36.0672 102.014L35.9947 102.393C35.9384 102.688 35.8648 102.976 35.7714 103.256L35.5344 103.963C35.3809 104.422 35.0885 104.789 34.7103 105.06L34.377 105.3L34.1117 105.489L34.0743 106.216C34.0508 106.674 33.9051 107.106 33.6367 107.483L33.1776 108.128C32.8803 108.546 32.4611 108.826 31.9612 108.942L31.1915 109.12C30.6825 109.238 30.181 109.161 29.7314 108.923L29.3641 108.728L29.007 108.537L28.6794 108.642L28.3121 108.757C27.811 108.915 27.3033 108.869 26.8406 108.654L26.1729 108.344L25.5041 108.662C25.1777 108.817 24.837 108.926 24.4849 108.979L23.7503 109.09C23.2683 109.163 22.8067 109.067 22.3934 108.852L21.7801 108.534L21.1577 108.883C20.6588 109.162 20.0869 109.217 19.5344 108.988L18.8247 108.694L18.1151 108.991C17.6628 109.18 17.1763 109.215 16.6969 109.073L15.9623 108.856C15.8948 108.836 15.8392 108.836 15.7764 108.852L15.0429 109.045C14.5263 109.181 14.0183 109.1 13.5703 108.863L12.9616 108.539L12.3449 108.886C11.7958 109.195 11.1689 109.206 10.6093 108.88L9.9019 108.467C9.63989 108.314 9.39728 108.157 9.17637 107.994L8.61409 107.582C8.423 107.441 7.99405 107.048 8.08242 106.411C8.1581 105.866 8.57144 105.578 8.73199 105.476L9.4099 105.048C9.44962 105.023 9.47345 104.997 9.49492 104.942L9.64343 104.563L9.79307 104.184C9.95411 103.775 10.2104 103.413 10.573 103.14L10.8677 102.919L11.1625 102.697C11.2786 102.609 11.3814 102.506 11.4708 102.384L11.913 101.782C12.1146 101.507 12.3496 101.263 12.6169 101.053L12.9072 100.826L13.1974 100.598C13.3537 100.476 13.5008 100.343 13.6383 100.2L14.1496 99.6711C14.5092 99.2986 14.9675 99.1088 15.4374 99.0419L15.8795 98.9796L16.1686 98.9376L16.3919 98.3515C16.5098 98.0414 16.6524 97.7477 16.8204 97.473L17.2184 96.8223L17.2762 96.7316C17.5782 96.2942 18.0232 96.0408 18.5118 95.9437L18.9347 95.8598L19.1841 95.8099L19.2544 95.5809L19.3802 95.1762C19.5164 94.7351 19.7645 94.3338 20.1522 94.0369L20.7383 93.5891C20.8839 93.4776 21.018 93.3535 21.1407 93.2173L21.3867 92.943L21.6338 92.6698C21.8 92.4854 21.9675 92.3008 22.1349 92.1177L22.6314 91.5736C22.9815 91.1907 23.4357 90.9885 23.9068 90.9126L24.3432 90.8435L24.545 90.8106L24.6969 90.1849C24.8062 89.7347 25.0274 89.3091 25.4043 88.9843L25.6832 88.744L25.962 88.5048C26.2681 88.2412 26.623 88.0571 27.0061 87.9425L27.7895 87.709C27.8649 87.6865 27.8812 87.6636 27.8881 87.6546L28.3393 87.0606C28.5086 86.8378 28.6877 86.6245 28.8755 86.4201L29.3731 85.8771C29.5735 85.6589 29.79 85.4565 30.0204 85.2706L30.5929 84.808C30.7367 84.692 30.8701 84.5643 30.992 84.4237L31.4749 83.866C31.6259 83.6918 31.7743 83.5132 31.9181 83.3309L32.3784 82.7471C32.6067 82.4578 32.8807 82.2146 33.1946 82.0216L33.8317 81.6293C33.9306 81.5686 34.0119 81.4942 34.08 81.4003L34.2999 81.0977L34.5198 80.7939C34.8671 80.3156 35.3745 80.0864 35.8915 80.023L36.3404 79.9674L36.4753 79.9504L36.5717 79.3258C36.6629 78.7403 36.9932 78.1848 37.6407 77.9269L38.373 77.6356C38.4222 77.616 38.4363 77.5983 38.4513 77.5743L38.653 77.2524L38.8548 76.9293L38.916 76.8364C39.2324 76.3897 39.6981 76.1491 40.1948 76.0689L40.8115 75.9691L40.8523 75.7741L40.9464 75.3343C40.9598 75.2712 40.9753 75.2083 40.9929 75.1461L40.2809 75.1744C40.1333 75.1805 39.9684 75.2176 39.7799 75.3025L38.8344 75.7288C38.165 76.0305 37.4574 75.9884 36.8279 75.6483L36.3552 75.3921L35.9403 75.1676L35.0685 75.5769C34.4223 75.8796 33.7266 75.8704 33.0892 75.5587L32.1437 75.0951C31.9643 75.0073 31.8148 74.9754 31.688 74.9715L31.2153 74.9568L30.7426 74.9432C30.4052 74.933 30.0674 74.9132 29.7302 74.8842L28.7848 74.8026C28.772 74.8015 28.7591 74.8013 28.7462 74.8003C28.5537 74.8498 28.3587 74.9058 28.1613 74.9681L27.4165 75.2028C27.0442 75.3204 26.6597 75.3642 26.2704 75.332L25.5041 75.2697C25.1898 75.2437 24.8795 75.19 24.5745 75.1098L23.8308 74.9148C23.7706 74.8991 23.6904 74.8935 23.5712 74.925L23.1631 75.0327L22.7539 75.1416C22.3018 75.2614 21.8338 75.2573 21.3799 75.0996L20.6408 74.8423C20.4448 74.7742 20.2418 74.7209 20.032 74.6825L19.6409 74.611L19.251 74.5396C18.8211 74.4609 18.4294 74.2803 18.0901 74.0068L17.4632 73.5012C17.1914 73.2821 16.9483 73.0319 16.7332 72.7541L16.2298 72.1046C16.1454 71.9956 16.0618 71.9306 15.9816 71.8892L15.646 71.7169L15.3105 71.5434C15.116 71.4432 14.9082 71.349 14.6881 71.26L13.9467 70.9596C13.4209 70.7471 13.0482 70.3441 12.855 69.8294L12.5603 69.0449C12.5584 69.0401 12.557 69.0363 12.5557 69.0336C12.5548 69.0331 12.5535 69.0319 12.5523 69.0313L11.8109 68.6708C11.4209 68.4811 11.086 68.2078 10.8315 67.8489L10.3848 67.2198C10.2466 67.0249 10.1024 66.832 9.95178 66.6416L9.70918 66.3355L9.46772 66.0283C9.23218 65.7304 9.05281 65.3993 8.93378 65.0387L8.68891 64.2961C8.59184 64.0019 8.51655 63.7017 8.46332 63.3972L8.32955 62.6308C8.2997 62.4601 8.24987 62.2985 8.17991 62.1456L7.85909 61.4462C7.76641 61.2436 7.65958 61.0359 7.53828 60.8249L7.13017 60.1153C6.89961 59.7142 6.78727 59.2694 6.81162 58.8025L6.83316 58.4069L6.85356 58.0101C6.86513 57.7887 6.86287 57.5703 6.84676 57.3549L6.81729 56.9661L6.78781 56.5761C6.76601 56.2846 6.75913 55.9923 6.76514 55.6998L6.78101 54.9187C6.79136 54.4206 6.96734 53.9715 7.25373 53.589L7.73099 52.9519L7.49973 52.1821C7.36043 51.7168 7.35342 51.2245 7.53034 50.747L7.66638 50.3808L7.80128 50.0135C7.90851 49.724 8.03645 49.4435 8.18331 49.1724L8.55514 48.4854C8.71417 48.1918 8.90351 47.9171 9.12196 47.6635L9.63549 47.0672C9.70091 46.9912 9.74809 46.9039 9.7772 46.7906L9.97898 46.0061C10.0757 45.6294 10.2355 45.2783 10.4596 44.9609L10.9108 44.3227C11.1359 44.0041 11.4151 43.7362 11.7406 43.5212L12.4072 43.0802C12.5804 42.9658 12.7358 42.8419 12.8743 42.7095L13.4275 42.1801C13.7254 41.8953 14.0761 41.6892 14.4648 41.5589L14.8445 41.4319L15.2243 41.3038C15.2942 41.2804 15.34 41.2482 15.3819 41.1961L15.8784 40.5772C16.2087 40.1664 16.6592 39.9142 17.1775 39.8414L17.5743 39.7859L17.9303 39.736C17.931 39.735 17.9329 39.7337 17.9337 39.7326L18.4461 39.0037C18.7556 38.5641 19.2071 38.2433 19.7838 38.1614L20.5626 38.0514C20.6944 38.0327 20.8222 37.9893 20.9503 37.9177L21.6554 37.5232C22.0451 37.305 22.4729 37.195 22.9216 37.2035L23.7141 37.2182C23.9114 37.222 24.1047 37.2062 24.2945 37.1717L24.6799 37.1026L25.0653 37.0323L25.1674 37.0164ZM44.6352 68.7309C44.5471 68.861 44.4133 69.283 44.4062 69.6287C44.4202 69.3323 44.5658 68.8547 44.7588 68.6028C44.7171 68.6433 44.6685 68.6919 44.6352 68.7309Z" fill="#D4CBBF"/>
<path d="M92.2932 39.0417C92.6974 39.0322 93.0876 39.1204 93.4551 39.2752L94.2203 39.5972C94.8026 39.8427 95.1602 40.3211 95.3165 40.8759L95.5716 41.784C95.7497 42.4162 95.6133 43.0564 95.1386 43.5479L94.5105 44.1975C94.3443 44.3695 94.2116 44.5376 94.1081 44.7008L93.8916 45.042L93.6751 45.3844C93.5043 45.6535 93.3131 45.9118 93.1037 46.1575L92.5664 46.7878C92.4803 46.8888 92.4226 46.9967 92.3872 47.1188L92.1594 47.9078C92.0857 48.1627 92.0154 48.4197 91.9474 48.6776L91.7365 49.4745C91.6233 49.9037 91.411 50.2872 91.1108 50.6127L90.544 51.2282C90.5334 51.2397 90.5305 51.2454 90.5292 51.2486C90.5276 51.2528 90.5211 51.2719 90.5202 51.3144L90.5088 51.761L90.4998 52.2088C90.485 52.8445 90.1818 53.3807 89.6677 53.7336L88.9115 54.2516C88.7699 54.3489 88.6912 54.4423 88.6451 54.5237L88.2484 55.2266C88.154 55.3934 88.0776 55.5708 88.0205 55.7605L87.7847 56.545C87.7373 56.7025 87.7093 56.8848 87.7088 57.0971L87.7076 58.0017C87.7059 58.6753 87.3704 59.2275 86.8177 59.5672L86.0128 60.0615C85.9881 60.0767 85.9738 60.0887 85.9664 60.0955L85.7714 60.889C85.6706 61.2996 85.4866 61.6752 85.2227 62.0057L84.7092 62.6496C84.6074 62.777 84.5307 62.9124 84.4779 63.06L84.3419 63.4431L84.2047 63.8252C84.1039 64.1068 83.9915 64.3831 83.868 64.6538L83.5325 65.3884C83.4812 65.5008 83.4464 65.6395 83.4395 65.8158L83.4044 66.7023C83.379 67.3431 83.0595 67.8708 82.5417 68.2123L81.7674 68.7224C81.6648 68.7902 81.6448 68.8385 81.637 68.8596L81.357 69.6214C81.2311 69.9634 81.0486 70.2751 80.8197 70.5578L81.1269 70.5601L81.5339 70.5635C81.8509 70.5655 82.1699 70.5881 82.4895 70.6315L82.9067 70.6882L83.3159 70.7437C83.3221 70.7403 83.3332 70.7344 83.3477 70.7233L84.0755 70.1656C84.4633 69.8689 84.9197 69.6822 85.4279 69.6634L85.8337 69.6486L86.2396 69.6327C86.5808 69.6202 86.9236 69.6432 87.2666 69.6996L88.1044 69.8379C88.3023 69.8705 88.4891 69.8767 88.6667 69.8606L89.4715 69.7881C89.6818 69.769 89.8897 69.7317 90.095 69.677L90.4861 69.5727L90.8784 69.4684C91.152 69.3955 91.4284 69.3364 91.7071 69.2893C91.7244 69.2858 91.7418 69.2824 91.7592 69.2791L92.3702 69.16C92.6022 69.115 92.859 69.0762 93.1377 69.0421L93.9222 68.9458L94.0355 68.9356C94.3031 68.9202 94.5972 68.9658 94.8778 69.1215C95.1572 69.2765 95.3507 69.5004 95.4798 69.7314L95.5319 69.8311L95.8788 70.5544C96.0619 70.9355 96.1543 71.3467 96.1362 71.7753L96.1044 72.5258C96.0811 73.0738 95.8271 73.53 95.4322 73.8589C95.528 74.0228 95.6117 74.2636 95.5614 74.5584C95.5004 74.9157 95.2801 75.124 95.1703 75.2091C95.0545 75.2988 94.9433 75.3455 94.8858 75.3678C94.6886 75.444 94.4623 75.4664 94.3405 75.4777L94.0764 75.5016C94.073 75.526 94.0709 75.5525 94.0696 75.5809L94.0503 75.9867L94.031 76.3937C94.004 76.9641 93.7445 77.4627 93.2873 77.8096L92.7409 78.2234L92.7511 78.5453L92.7636 78.9682C92.7835 79.6199 92.4772 80.1781 91.9236 80.5156L91.1958 80.96C91.0977 81.0199 91.0759 81.0619 91.07 81.0745L90.7594 81.7411C90.6995 81.8695 90.6552 82.015 90.6301 82.1809L90.5723 82.5663L90.5134 82.9518C90.4636 83.282 90.3791 83.602 90.2572 83.9074L89.9828 84.5933C89.8782 84.8552 89.7602 85.1111 89.6291 85.3596L89.2868 86.0092C89.1679 86.2345 89.046 86.4585 88.9206 86.6803L88.559 87.3197C88.443 87.5247 88.3291 87.7317 88.2189 87.9398L87.8754 88.5882C87.6702 88.9757 87.3706 89.2834 87.015 89.5178L86.3178 89.9769C86.2789 90.0025 86.2618 90.0214 86.2566 90.0279C86.2524 90.0331 86.2502 90.0357 86.2486 90.0404L86.006 90.7432C85.9576 90.883 85.9246 91.043 85.9131 91.2273L85.8881 91.6309L85.8621 92.0333C85.8242 92.6407 85.5138 93.1392 85.0186 93.4583L84.3351 93.8992L84.2773 94.2212L84.2104 94.6021C84.133 95.0421 83.9408 95.4404 83.6379 95.7731L83.1277 96.3343C83.1253 96.337 83.1244 96.3388 83.1243 96.3388L83.1221 96.3468C83.1207 96.3533 83.1195 96.3648 83.1187 96.3819L83.079 97.1936C83.0554 97.6836 82.8807 98.1446 82.5371 98.5199L82.2809 98.7999L82.0247 99.0788C81.955 99.155 81.9102 99.2352 81.8819 99.3271L81.7719 99.6853L81.662 100.042C81.5106 100.535 81.1937 100.916 80.7868 101.183L80.4376 101.413L80.0998 101.634L80.0363 101.965L79.9638 102.344C79.9074 102.639 79.8329 102.927 79.7393 103.207L79.5035 103.914C79.35 104.373 79.0568 104.741 78.6782 105.012L78.3461 105.25L78.0797 105.441L78.0434 106.166C78.02 106.625 77.8742 107.056 77.6058 107.434L77.1467 108.079C76.8494 108.497 76.4303 108.777 75.9303 108.893L75.1595 109.072C74.6504 109.189 74.149 109.112 73.6993 108.873L73.332 108.678L72.9761 108.488L72.6473 108.592L72.28 108.708C71.779 108.866 71.2712 108.82 70.8086 108.605L70.142 108.295L69.472 108.613C69.1458 108.767 68.8059 108.877 68.454 108.93L67.7194 109.041C67.2371 109.114 66.7749 109.018 66.3613 108.803L65.7492 108.485L65.1268 108.834C64.6277 109.113 64.0551 109.168 63.5023 108.939L62.7927 108.644L62.083 108.941C61.6308 109.131 61.1443 109.166 60.6648 109.024L59.9314 108.806C59.8638 108.786 59.8083 108.787 59.7455 108.803L59.0109 108.996C58.4943 109.132 57.9874 109.05 57.5394 108.813L56.9295 108.49L56.314 108.838C55.7649 109.147 55.1379 109.156 54.5784 108.83L53.871 108.418C53.609 108.265 53.3653 108.107 53.1443 107.945L52.5832 107.532C52.3922 107.392 51.9631 106.999 52.0515 106.361C52.1273 105.816 52.5407 105.529 52.7011 105.427L53.379 104.999C53.4187 104.974 53.4414 104.948 53.4629 104.893L53.6125 104.515L53.761 104.135C53.922 103.726 54.1787 103.365 54.541 103.092L54.8369 102.87L55.1316 102.647C55.2476 102.56 55.3494 102.456 55.4388 102.335L55.8821 101.733C56.0837 101.458 56.3186 101.213 56.586 101.004L56.8763 100.777L57.1653 100.549C57.3217 100.427 57.4688 100.294 57.6063 100.151L58.1176 99.6218C58.4772 99.2492 58.9365 99.0595 59.4065 98.9927L59.8486 98.9303L60.1377 98.8884L60.3599 98.3023C60.4778 97.9921 60.6204 97.6984 60.7884 97.4237L61.1863 96.773L61.2453 96.6834C61.5472 96.2461 61.9913 95.9916 62.4798 95.8944L62.9026 95.8106L63.152 95.7618L63.2235 95.5317L63.3482 95.127C63.4844 94.6859 63.7326 94.2846 64.1202 93.9877L64.7062 93.5399C64.8519 93.4283 64.986 93.3042 65.1087 93.1681L65.3558 92.8949L65.6029 92.6205C65.7691 92.4362 65.9355 92.2515 66.1029 92.0684L66.6005 91.5254C66.9507 91.1424 67.4046 90.9392 67.8759 90.8634L68.3112 90.7942L68.5141 90.7614L68.6649 90.1356C68.7742 89.6854 68.9965 89.2598 69.3734 88.9351L69.6523 88.6959L69.93 88.4556C70.236 88.192 70.5911 88.009 70.9741 87.8944L71.7586 87.6597C71.8341 87.6371 71.8503 87.6143 71.8572 87.6053L72.3084 87.0113C72.4776 86.7888 72.6558 86.5751 72.8434 86.3708L73.3422 85.8278C73.5426 85.6097 73.7581 85.4072 73.9884 85.2213L74.562 84.7599C74.7058 84.6439 74.838 84.5151 74.9599 84.3745L75.2014 84.0956L75.444 83.8167C75.595 83.6426 75.7423 83.4639 75.8861 83.2817L76.3475 82.6978C76.5757 82.4088 76.8488 82.1653 77.1626 81.9723L77.4823 81.7773L77.8008 81.5812C77.8997 81.5204 77.981 81.4449 78.0491 81.3511L78.4889 80.7457C78.8362 80.2675 79.3425 80.0371 79.8595 79.9737L80.3095 79.9193L80.4433 79.9023L80.5408 79.2765C80.632 78.691 80.9619 78.1354 81.6098 77.8776L82.341 77.5863C82.3902 77.5667 82.4054 77.549 82.4204 77.5251L82.6222 77.2031L82.8228 76.88L82.884 76.7882C83.031 76.5806 83.2116 76.4184 83.4112 76.2951C83.3052 76.2684 83.2 76.2477 83.096 76.2316L82.6936 76.1693L82.29 76.1058C82.1393 76.0824 81.9897 76.086 81.8365 76.116L81.4341 76.1953L81.0305 76.2747C80.8089 76.3182 80.5848 76.3776 80.3583 76.4549L79.5523 76.7304C78.946 76.9375 78.3526 76.8165 77.8598 76.4957L77.0538 75.9709C76.9203 75.884 76.8444 75.8755 76.8112 75.8757H76.7216L76.3634 76.1341C75.9333 76.4436 75.4271 76.5779 74.8942 76.5082L74.0882 76.4028C74.0668 76.4 74.045 76.3986 74.0236 76.3971C73.9893 76.4089 73.9547 76.4201 73.9204 76.4323L73.518 76.5751L73.1144 76.7168C72.5358 76.9211 71.9566 76.8357 71.4559 76.5445L71.1226 76.3506L70.515 76.0253C70.4854 76.0095 70.4559 75.9965 70.4277 75.9833C70.3893 75.974 70.3565 75.9683 70.3279 75.9675L69.9243 75.9561L69.5219 75.9459C69.4808 75.9448 69.4031 75.9524 69.2736 76.031L68.4676 76.5196C68.0245 76.7883 67.5113 76.9218 66.9656 76.8313L66.562 76.7644L66.1596 76.6975C65.9472 76.6623 65.7358 76.6453 65.5259 76.6465L65.1234 76.6488L64.7198 76.6511C64.4346 76.6526 64.1492 76.6477 63.864 76.6352L63.0579 76.6C62.6494 76.5821 62.2589 76.4749 61.8914 76.2996C61.4136 76.4375 60.9313 76.3805 60.4925 76.1942L60.3168 76.1194L60.2205 76.1534C60.08 76.2032 59.8167 76.2911 59.5392 76.2792C59.411 76.2737 59.1154 76.239 58.851 76.0083L58.265 76.1387C57.6241 76.2808 57.0207 76.084 56.5781 75.6194L55.9671 74.9778C55.5736 74.5648 55.3726 74.0391 55.4071 73.461L55.4331 73.0291L55.4592 72.5983C55.4842 72.1807 55.587 71.779 55.7664 71.4012L56.1349 70.6247C56.3694 70.1309 56.7614 69.766 57.2685 69.5659L58.0722 69.2484C58.2028 69.1969 58.2931 69.1317 58.3602 69.0569L58.8998 68.4538C59.1541 68.1699 59.4491 67.9319 59.7806 67.7418L60.4982 67.3303C60.6621 67.2364 60.8062 67.1267 60.9324 67.0016L61.5049 66.4336C61.6286 66.3109 61.7405 66.1671 61.8382 65.9983L62.2599 65.2683C62.5193 64.8197 62.9071 64.4933 63.3844 64.3058L64.1156 64.019L64.2301 63.5962L64.3548 63.137L64.3888 63.0248C64.4757 62.7651 64.6198 62.5124 64.84 62.3004C65.0926 62.0574 65.3955 61.9165 65.7016 61.8492L66.5813 61.6554L66.7388 61.3232L66.9248 60.931C67.1139 60.5322 67.3844 60.1865 67.7398 59.9175L68.386 59.4289C68.4776 59.3597 68.5579 59.2677 68.6263 59.1399L69.0288 58.3883C69.2936 57.8938 69.7184 57.5538 70.2406 57.3861L71.0875 57.1152C71.1237 57.1035 71.1373 57.0932 71.1396 57.0914C71.1411 57.0902 71.1425 57.0887 71.1441 57.0868C71.1459 57.0848 71.1504 57.0797 71.1555 57.071L71.5806 56.3443C71.8274 55.9233 72.1832 55.6011 72.6247 55.3943L73.0067 55.2141L73.3899 55.035C73.4102 55.0254 73.4183 55.018 73.4216 55.0146C73.4256 55.0104 73.4374 54.9968 73.4522 54.9636L73.8093 54.1621C73.9847 53.7685 74.2344 53.42 74.5643 53.1384L75.1776 52.6147C75.3995 52.4252 75.6284 52.243 75.8634 52.0683L76.5141 51.5853C76.6798 51.4622 76.8318 51.3249 76.971 51.1738L77.5197 50.5787C77.72 50.3612 77.9283 50.1514 78.1443 49.9506L78.7349 49.402C79.0931 49.0693 79.5286 48.8743 79.991 48.783L80.9183 48.5994C80.9715 48.5888 80.994 48.576 80.9988 48.5733L81.4829 47.9124C81.6064 47.7433 81.7189 47.5553 81.8195 47.3478L82.197 46.5679C82.367 46.2173 82.5856 45.9 82.8545 45.6236L83.4168 45.0454C83.6127 44.8441 83.8128 44.6455 84.0154 44.4514L84.5969 43.8936C84.855 43.6463 85.1431 43.4348 85.4574 43.2588L85.819 43.0559L86.1806 42.8541C86.4061 42.7278 86.627 42.5957 86.8427 42.4596L87.5353 42.0232C87.6688 41.9389 87.7824 41.837 87.8788 41.7148L88.3844 41.0732C88.5926 40.8094 88.8236 40.5681 89.077 40.3499L89.6892 39.8228C89.8857 39.6537 90.1447 39.4437 90.4045 39.3331L90.5496 39.2718L90.6936 39.2106L90.8047 39.1687C91.0695 39.0812 91.3592 39.0637 91.5733 39.0587L92.2932 39.0417Z" fill="#FF5E32"/>
</svg>
