<svg width="115" height="63" viewBox="0 0 115 63" fill="none" xmlns="http://www.w3.org/2000/svg">
<path d="M111.547 1.48693C111.895 1.47877 112.231 1.55387 112.548 1.68713L113.207 1.96447C113.709 2.17591 114.016 2.58799 114.151 3.06603L114.372 3.84924C114.525 4.39387 114.407 4.9454 113.998 5.36877L113.458 5.92736C113.314 6.07564 113.2 6.22128 113.111 6.36193L112.924 6.65588L112.737 6.9508C112.59 7.18249 112.426 7.40428 112.246 7.61584L111.783 8.15881C111.709 8.24589 111.658 8.33961 111.628 8.44494L111.431 9.12365C111.368 9.34324 111.307 9.56454 111.249 9.78673L111.067 10.4733C110.97 10.8431 110.787 11.1732 110.528 11.4537L110.04 11.984C110.03 11.9944 110.028 11.9999 110.027 12.0026C110.026 12.0061 110.02 12.0226 110.019 12.0592L110.002 12.8287C109.989 13.3764 109.728 13.8382 109.285 14.1422L108.633 14.5895C108.512 14.6732 108.445 14.7538 108.405 14.8238L108.062 15.4283C107.981 15.5723 107.915 15.7256 107.866 15.8893L107.663 16.5651C107.622 16.7008 107.599 16.8578 107.598 17.0406L107.596 17.819C107.595 18.3993 107.306 18.8748 106.83 19.1676L106.483 19.3815L106.136 19.5944C106.115 19.6076 106.103 19.6179 106.096 19.6236L105.928 20.3072C105.842 20.6609 105.683 20.9845 105.456 21.2692L105.013 21.8229C104.926 21.9327 104.86 22.0502 104.814 22.1774L104.697 22.5065L104.579 22.8365C104.492 23.0792 104.395 23.3171 104.289 23.5504L104.001 24.1832C103.957 24.28 103.926 24.3987 103.92 24.5504L103.889 25.3151C103.867 25.8667 103.593 26.3207 103.147 26.6149L102.48 27.0543C102.392 27.1126 102.374 27.1542 102.367 27.1725L102.126 27.8287C102.017 28.1238 101.859 28.3925 101.662 28.6363L101.926 28.6383L102.278 28.6403C102.551 28.642 102.826 28.6625 103.101 28.6998L103.461 28.7486L103.813 28.7965C103.818 28.7936 103.828 28.7875 103.841 28.7779L104.467 28.2985C104.802 28.0429 105.195 27.8811 105.632 27.8649L105.981 27.8522L106.331 27.8395C106.625 27.8286 106.921 27.8484 107.216 27.8971L107.937 28.0153C108.108 28.0434 108.269 28.0496 108.423 28.0358L108.769 28.0045L109.116 27.9723C109.297 27.9559 109.475 27.9246 109.652 27.8776L109.99 27.7877L110.327 27.6979C110.58 27.6304 110.836 27.5756 111.094 27.5338L111.782 27.4225C112.023 27.3836 112.258 27.3956 112.48 27.4557L112.951 27.399L113.048 27.3903C113.278 27.377 113.532 27.4153 113.774 27.5494C114.015 27.683 114.18 27.8769 114.292 28.0758L114.337 28.1617L114.635 28.7848C114.793 29.1132 114.874 29.4672 114.858 29.8365L114.83 30.483C114.811 30.9305 114.614 31.3071 114.303 31.5865C114.359 31.7182 114.395 31.8865 114.362 32.0826C114.309 32.3904 114.119 32.5689 114.024 32.6422C113.924 32.7194 113.83 32.7607 113.78 32.7799C113.61 32.8455 113.415 32.8648 113.31 32.8746L113.131 32.8912C113.104 32.9431 113.082 33.0131 113.077 33.1149L113.061 33.4645L113.044 33.8151C113.02 34.3062 112.798 34.735 112.404 35.0338L111.933 35.3903L111.941 35.6676L111.953 36.0328C111.97 36.5941 111.706 37.0751 111.229 37.3658L110.602 37.7477C110.517 37.7993 110.499 37.8364 110.494 37.8473L110.226 38.4215C110.175 38.5322 110.136 38.6573 110.114 38.8004L110.014 39.4645C109.971 39.7488 109.899 40.0237 109.794 40.2867L109.557 40.8785C109.467 41.1042 109.366 41.3246 109.253 41.5387L108.958 42.0983C108.855 42.2923 108.749 42.4844 108.641 42.6754L108.33 43.2272C108.23 43.4036 108.133 43.5813 108.038 43.7604L107.742 44.3199C107.565 44.6537 107.306 44.9178 107 45.1197L106.399 45.5162C106.367 45.5377 106.352 45.5533 106.347 45.5592C106.344 45.5638 106.342 45.5669 106.341 45.5709L106.131 46.1764C106.089 46.2967 106.06 46.4347 106.05 46.5934L106.029 46.9401L106.007 47.2877C105.975 47.8109 105.707 48.2404 105.281 48.5153L104.691 48.8951L104.642 49.1725L104.585 49.5006C104.518 49.8796 104.352 50.2228 104.091 50.5094L103.652 50.9918C103.65 50.9944 103.648 50.9957 103.648 50.9957L103.647 51.0035C103.646 51.0092 103.644 51.0192 103.643 51.0338L103.61 51.733C103.59 52.1552 103.438 52.5523 103.142 52.8756L102.923 53.1158L102.702 53.357C102.642 53.4228 102.602 53.4917 102.578 53.5709L102.483 53.8785L102.389 54.1871C102.259 54.6113 101.985 54.9395 101.634 55.1695L101.334 55.3668L101.044 55.5572L100.988 55.8434L100.926 56.1695C100.878 56.4237 100.814 56.6716 100.733 56.9127L100.529 57.5221C100.397 57.9178 100.145 58.234 99.819 58.4674L99.5319 58.6735L99.3034 58.8365L99.2712 59.4625C99.2509 59.8576 99.1253 60.2283 98.8942 60.5533L98.4997 61.11C98.2436 61.4701 97.8816 61.7115 97.4509 61.8111L96.7878 61.9645C96.3491 62.0659 95.9174 61.9989 95.53 61.7936L95.2136 61.6266L94.9059 61.4625L94.6237 61.5524L94.3073 61.652C93.8757 61.788 93.4383 61.7482 93.0397 61.5631L92.4655 61.2965L91.8884 61.5699C91.6072 61.7033 91.3137 61.7973 91.0104 61.8434L90.3786 61.9391C89.9632 62.0021 89.5648 61.9188 89.2087 61.734L88.6804 61.4596L88.1442 61.7604C87.7145 62.0011 87.2218 62.0485 86.7458 61.8512L86.1345 61.5973L85.5231 61.8531C85.1336 62.0161 84.7145 62.0466 84.3014 61.9244L83.6686 61.7369C83.6105 61.7198 83.5626 61.7188 83.5085 61.733L82.8766 61.9C82.4317 62.0171 81.9949 61.9469 81.6091 61.7428L81.0837 61.4645L80.5524 61.7633C80.0794 62.0295 79.5394 62.0384 79.0573 61.7574L78.4479 61.402C78.2222 61.2704 78.0132 61.1348 77.8229 60.9947L77.3395 60.6393C77.1751 60.5183 76.8044 60.1801 76.8805 59.6305C76.9457 59.1611 77.3017 58.9133 77.4401 58.8258L78.0241 58.4557C78.0583 58.4341 78.0789 58.4128 78.0973 58.3658L78.2253 58.0387L78.3542 57.7115C78.4929 57.359 78.7138 57.0482 79.0261 56.8131L79.28 56.6227L79.5339 56.4313C79.6339 56.356 79.7224 56.2667 79.7995 56.1617L80.1804 55.6422C80.354 55.4058 80.5566 55.1958 80.7868 55.0153L81.0368 54.8199L81.2868 54.6236C81.4215 54.518 81.5482 54.4037 81.6667 54.2809L82.1071 53.8248C82.4169 53.5039 82.8117 53.3405 83.2165 53.2828L83.5973 53.2291L83.8464 53.193L84.0387 52.6871C84.1403 52.4201 84.2632 52.1678 84.4079 51.9313L84.7507 51.3697L84.8014 51.2926C85.0616 50.916 85.4441 50.6975 85.8649 50.6139L86.2292 50.5416L86.444 50.4986L86.5046 50.3014L86.613 49.9518C86.7304 49.572 86.9442 49.227 87.278 48.9713L87.7829 48.5846C87.9082 48.4886 88.0239 48.3824 88.1296 48.2653L88.3415 48.0289L88.5544 47.7936C88.6975 47.6347 88.8418 47.4757 88.986 47.318L89.4147 46.8492C89.7164 46.5195 90.1076 46.3452 90.5134 46.2799L90.8884 46.2203L91.0622 46.192L91.193 45.6529C91.2872 45.2651 91.4778 44.8986 91.8024 44.6188L92.0427 44.4117L92.2829 44.2057C92.5466 43.9786 92.8523 43.82 93.1823 43.7213L93.8581 43.5201C93.9225 43.5008 93.9361 43.4811 93.9421 43.4733L94.3307 42.9615C94.4766 42.7697 94.6309 42.5859 94.7927 42.4098L95.2214 41.942C95.394 41.7541 95.5805 41.5797 95.779 41.4195L96.2721 41.0211C96.396 40.9211 96.5109 40.8112 96.6159 40.6901L96.8239 40.4498L97.0319 40.2086C97.162 40.0585 97.2898 39.9047 97.4137 39.7477L97.8102 39.2457C98.0069 38.9965 98.2429 38.787 98.5134 38.6207L99.0622 38.2828C99.1473 38.2305 99.2174 38.1664 99.2761 38.0856L99.4655 37.8238L99.655 37.5631C99.9541 37.1511 100.391 36.9536 100.837 36.899L101.224 36.8512L101.34 36.8365L101.423 36.2985C101.501 35.794 101.785 35.3145 102.343 35.0924L102.974 34.8424C103.017 34.8256 103.029 34.8103 103.042 34.7897L103.216 34.5113L103.389 34.234L103.442 34.1539C103.611 33.915 103.83 33.744 104.074 33.6324C103.921 33.5843 103.772 33.546 103.624 33.5231L103.276 33.4694L102.929 33.4156C102.8 33.3955 102.671 33.3986 102.539 33.4244L102.191 33.4918L101.844 33.5602C101.653 33.5976 101.46 33.6498 101.265 33.7164L100.571 33.9528C100.049 34.1311 99.5376 34.0269 99.113 33.7506L98.4186 33.2994C98.3031 33.2243 98.2372 33.2172 98.2087 33.2174H98.1325L97.8239 33.4401C97.4534 33.7066 97.0173 33.8224 96.5583 33.7623L95.8639 33.6715C95.8452 33.669 95.8262 33.6679 95.8073 33.6666C95.7781 33.6767 95.7487 33.6866 95.7194 33.6969L95.3718 33.819L95.0251 33.942C94.5266 34.118 94.0268 34.0445 93.5954 33.7936L93.3054 33.6246L92.7858 33.3463C92.759 33.332 92.7323 33.32 92.7067 33.3082C92.6751 33.3008 92.6474 33.2972 92.6237 33.2965L92.277 33.2867L91.9294 33.277C91.8939 33.2761 91.8273 33.2831 91.7165 33.3502L91.0221 33.7721C90.6405 34.0036 90.1982 34.1185 89.7282 34.0406L89.3805 33.983L89.0339 33.9254C88.851 33.8951 88.6689 33.8805 88.488 33.8815L88.1413 33.8834L87.7936 33.8854C87.5479 33.8867 87.3021 33.8815 87.0563 33.8707L86.362 33.8414C86.0101 33.826 85.6736 33.7327 85.3571 33.5817C84.9455 33.7004 84.53 33.6523 84.152 33.4918L83.9997 33.4274L83.9167 33.4567C83.7956 33.4996 83.5696 33.5753 83.3307 33.5651C83.2206 33.5603 82.9658 33.5303 82.738 33.3317L82.2331 33.444C81.6812 33.5663 81.1611 33.3967 80.78 32.9967L80.2536 32.444C79.9146 32.0881 79.7424 31.6344 79.7721 31.1363L79.7936 30.7653L79.8161 30.3932C79.8376 30.0336 79.9263 29.6882 80.0807 29.3629L80.3981 28.693C80.6002 28.2676 80.9387 27.9533 81.3757 27.7809L82.068 27.5084C82.1804 27.4641 82.2574 27.4078 82.3151 27.3434L82.78 26.8238C82.999 26.5793 83.2541 26.3743 83.5397 26.2106L84.1569 25.8561C84.2981 25.7751 84.4222 25.6807 84.5309 25.5729L85.0241 25.0836C85.1308 24.9778 85.227 24.8542 85.3112 24.7086L85.6755 24.0787C85.8989 23.6926 86.2323 23.412 86.6432 23.2506L87.2731 23.0026L87.3718 22.6383L87.4802 22.2428L87.5085 22.1471C87.5833 21.9233 87.7075 21.7057 87.8971 21.5231C88.1148 21.3137 88.3756 21.1914 88.6393 21.1334L89.3971 20.9674L89.5329 20.6803L89.693 20.3424C89.856 19.9988 90.0898 19.7011 90.3962 19.4694L90.9518 19.0485C91.0306 18.9889 91.0999 18.9104 91.1589 18.8004L91.5055 18.1529C91.7337 17.7269 92.1005 17.4341 92.5505 17.2897L93.279 17.0553C93.3109 17.045 93.3223 17.036 93.3239 17.0348C93.3252 17.0337 93.3264 17.0325 93.3278 17.0309C93.3294 17.0291 93.3333 17.0254 93.3376 17.0182L93.7048 16.3922C93.9174 16.0295 94.2229 15.751 94.6032 15.5729L94.9323 15.4186L95.2624 15.2633C95.2798 15.2551 95.2868 15.2497 95.2897 15.2467C95.2929 15.2434 95.3031 15.2318 95.3161 15.2028L95.6237 14.5113C95.7748 14.1725 95.99 13.873 96.2741 13.6305L96.8024 13.1793C96.9936 13.0161 97.1907 12.8591 97.3932 12.7086L97.9538 12.2916C98.0965 12.1855 98.2274 12.0673 98.3473 11.9371L98.82 11.4254C98.9926 11.238 99.1719 11.0574 99.3581 10.8844L99.8669 10.4117C100.175 10.1251 100.551 9.95623 100.949 9.87755L101.748 9.72033C101.795 9.71107 101.814 9.69995 101.818 9.69787L102.234 9.12756C102.341 8.98185 102.437 8.82008 102.524 8.64123L102.85 7.97033C102.997 7.66831 103.184 7.39402 103.416 7.15588L103.901 6.65783C104.07 6.48454 104.241 6.31422 104.416 6.14709L104.917 5.66662C105.139 5.45358 105.387 5.27134 105.658 5.11974L105.969 4.94494L106.281 4.77111C106.475 4.66226 106.665 4.54857 106.851 4.43127L107.448 4.05431C107.563 3.98173 107.661 3.89397 107.744 3.78869L108.179 3.23693C108.359 3.00942 108.558 2.80105 108.777 2.61291L109.303 2.15978C109.473 2.01416 109.696 1.83335 109.92 1.73791L110.045 1.68517L110.169 1.63244L110.264 1.59533C110.492 1.52 110.742 1.50591 110.926 1.50158L111.547 1.48693Z" fill="#1F2792"/>
<path d="M15.8543 0.0141528C16.2924 -0.0425145 16.7031 0.0746989 17.0545 0.299309L17.3797 0.508293L17.7059 0.715325C17.7926 0.77073 17.8303 0.769393 17.8348 0.769036L18.161 0.750481L18.4862 0.732903C18.6775 0.722406 18.877 0.702913 19.0838 0.674309L19.4285 0.626457L19.7723 0.579582C20.1482 0.527592 20.5227 0.570247 20.8778 0.714348L21.4969 0.965325C21.7997 1.08824 22.0749 1.26152 22.3201 1.479L22.5809 1.70947L22.7889 1.89501L23.5662 1.76806L23.6639 1.75536C23.8943 1.73087 24.1466 1.75073 24.3953 1.85497C24.6845 1.97619 24.8989 2.18142 25.0467 2.41357L25.4471 3.04443C25.4512 3.05092 25.4554 3.05502 25.4578 3.0581L26.1502 3.22411C26.544 3.31795 26.8949 3.51625 27.1717 3.82275L27.6248 4.3247C27.8415 4.56487 28.0145 4.83641 28.1444 5.13427L28.4256 5.7788C28.4942 5.93623 28.5713 6.0688 28.6551 6.18017L29.0418 6.69384C29.0589 6.71645 29.105 6.76505 29.2293 6.81689L29.5877 6.96728L29.9461 7.11669C30.4023 7.30702 30.7509 7.66918 30.8709 8.17724L30.8914 8.28075L31.0106 8.98193C31.0376 9.14165 31.0808 9.27755 31.1366 9.39404L31.4188 9.98388C31.531 10.2184 31.6265 10.4605 31.7039 10.7085L31.8983 11.3315C31.9814 11.5975 32.0367 11.8701 32.0633 12.1479L32.1258 12.8003C32.1395 12.9429 32.1705 13.0807 32.2196 13.2143L32.4461 13.8296C32.5266 14.0486 32.6014 14.2718 32.6717 14.4985L32.87 15.1372C32.9506 15.3973 33.0072 15.6656 33.0145 15.9282L33.0282 16.3989C33.0304 16.4806 33.0308 16.5589 33.0291 16.6226C33.0285 16.646 33.0268 16.689 33.0213 16.7378C33.0259 16.7601 33.0303 16.7851 33.036 16.812L33.1785 17.4858C33.2415 17.7827 33.2663 18.0832 33.2518 18.3852L33.2196 19.063C33.203 19.4057 33.1189 19.7352 32.9725 20.0454L32.826 20.3579L32.6785 20.6694C32.612 20.8105 32.5657 20.9529 32.5389 21.0972L32.4168 21.7583C32.3436 22.1519 32.1603 22.4986 31.8914 22.7866L31.409 23.3042C31.3295 23.3894 31.2835 23.4699 31.2576 23.5493L31.0526 24.1792C30.9804 24.4006 30.9031 24.6227 30.8201 24.8452L30.702 25.1626L30.5828 25.48C30.4471 25.8437 30.2213 26.1521 29.9178 26.3921L29.3797 26.8169C29.2282 26.9367 29.0902 27.061 28.9647 27.189L28.5067 27.6567C28.4894 27.6743 28.472 27.6939 28.4549 27.7163C28.7044 27.693 28.9562 27.7059 29.2059 27.7524L30.0819 27.9155C30.2347 27.944 30.3526 27.9355 30.45 27.9087L31.2362 27.6919C31.4623 27.6295 31.6858 27.5544 31.9071 27.4673L32.6727 27.1655C32.8001 27.1153 32.8957 27.0782 32.9588 27.0532C32.9865 27.0423 33.0076 27.0336 33.0223 27.0278C33.0212 27.0283 33.0196 27.0292 33.0184 27.0298C33.015 27.0313 33.0009 27.0378 32.9832 27.0464C32.9775 27.0491 32.9485 27.0633 32.9139 27.0835C32.9017 27.0906 32.8515 27.1199 32.7938 27.1655C32.7861 27.1719 32.7765 27.1818 32.7645 27.1929C32.9528 27.066 33.2657 26.9558 33.3856 26.9429C33.5653 26.9346 33.7056 26.9789 33.7127 26.9809C33.7804 27 33.8319 27.0224 33.8377 27.0249C33.8648 27.0364 33.886 27.0471 33.8905 27.0493C33.903 27.0555 33.9136 27.0608 33.9159 27.062C33.922 27.0653 33.9273 27.0686 33.9295 27.0698C33.9347 27.0726 33.9413 27.0759 33.9461 27.0786C33.9564 27.0843 33.9713 27.0921 33.9891 27.102C34.0254 27.1223 34.0792 27.1531 34.1502 27.1929L34.3631 27.312L34.5594 27.4214C34.5662 27.4237 34.5803 27.4285 34.6024 27.4341C34.6573 27.448 34.7426 27.4644 34.8641 27.478L35.7879 27.5806L35.91 27.5981C36.0093 27.6161 36.1149 27.6444 36.2215 27.686C36.3207 27.6712 36.4241 27.6581 36.5311 27.645L37.2069 27.562L37.3035 27.5532C37.5341 27.5399 37.7883 27.5783 38.0301 27.7124C38.2708 27.8459 38.4365 28.0398 38.5477 28.2388L38.5926 28.3247L38.8914 28.9477C39.0492 29.2761 39.1287 29.6302 39.1131 29.9995L39.0858 30.646C39.0645 31.143 38.8256 31.5546 38.4539 31.8403L37.9002 32.2651C37.8014 32.3411 37.7409 32.4154 37.702 32.4849L37.3934 33.0376C37.3637 33.0908 37.3382 33.1655 37.3328 33.2778L37.3172 33.6274L37.2996 33.978C37.2764 34.4692 37.0536 34.898 36.66 35.1968L36.1893 35.5532L36.1971 35.8306L36.2078 36.1958C36.225 36.7571 35.9619 37.2381 35.4852 37.5288L34.8582 37.9106C34.7735 37.9623 34.7549 37.9994 34.7498 38.0102L34.4823 38.5845C34.4306 38.6952 34.3915 38.8203 34.37 38.9634L34.2703 39.6274C34.2275 39.9119 34.1547 40.1875 34.0496 40.4507L33.8133 41.0415C33.7232 41.2672 33.6216 41.4876 33.5086 41.7017L33.2137 42.2612C33.1113 42.4552 33.0053 42.6474 32.8973 42.8384L32.5858 43.3901C32.486 43.5666 32.3886 43.7443 32.2938 43.9233L31.9979 44.4829C31.8211 44.8167 31.5621 45.0808 31.2557 45.2827L30.6551 45.6792C30.6217 45.7012 30.607 45.7165 30.6024 45.7222C30.5986 45.7268 30.5979 45.7298 30.5965 45.7339L30.3866 46.3393C30.3449 46.4597 30.3164 46.5976 30.3065 46.7563L30.285 47.104L30.2635 47.4507C30.2309 47.974 29.9626 48.4034 29.536 48.6782L28.9471 49.0581L28.8983 49.3354L28.8407 49.6636C28.774 50.0426 28.6084 50.3858 28.3475 50.6724L27.908 51.1548C27.9059 51.1571 27.9043 51.1584 27.9041 51.1587L27.9032 51.1665C27.902 51.1722 27.9 51.182 27.8993 51.1968L27.866 51.896C27.8457 52.3181 27.6943 52.7152 27.3983 53.0386L27.1785 53.2798L26.9578 53.52C26.8977 53.5857 26.8582 53.6547 26.8338 53.7339L26.7391 54.0415L26.6453 54.3501C26.5149 54.7743 26.241 55.1025 25.8905 55.3325L25.5897 55.5298L25.2987 55.7212L25.244 56.0063L25.1815 56.3325C25.133 56.5866 25.0696 56.8346 24.9891 57.0757L24.785 57.6851C24.6527 58.0808 24.4009 58.3969 24.075 58.6304L23.7879 58.8364L23.5594 58.9995L23.5272 59.6255C23.507 60.0207 23.3814 60.3922 23.1502 60.7173L22.7547 61.2729C22.4986 61.6329 22.1375 61.8745 21.7069 61.9741L21.0438 62.1274C20.6053 62.2288 20.1733 62.1627 19.786 61.9575L19.4696 61.7895L19.1619 61.6255L18.8797 61.7153L18.5633 61.8149C18.1317 61.9509 17.6943 61.9111 17.2957 61.7261L16.7205 61.4595L16.1444 61.7329C15.8632 61.8663 15.5697 61.9603 15.2664 62.0063L14.6336 62.102C14.2184 62.165 13.8207 62.0817 13.4647 61.897L12.9364 61.6226L12.4002 61.9233C11.9705 62.1641 11.4778 62.2115 11.0018 62.0142L10.3905 61.7602L9.77913 62.0161C9.38958 62.179 8.97046 62.2096 8.55745 62.0874L7.92464 61.8999C7.86646 61.8827 7.81861 61.8827 7.76448 61.897L7.13265 62.063C6.68761 62.1801 6.24997 62.11 5.86409 61.9058L5.33968 61.6274L4.80843 61.9263C4.3354 62.1924 3.79537 62.2013 3.31331 61.9204L2.70394 61.5649C2.47824 61.4334 2.26924 61.2977 2.07894 61.1577L1.59456 60.8022C1.42995 60.681 1.06043 60.3427 1.13656 59.7934C1.20175 59.324 1.55782 59.0763 1.69613 58.9888L2.28011 58.6196C2.31433 58.598 2.33485 58.5758 2.35335 58.5288L2.48128 58.2017L2.61019 57.8755C2.74892 57.5227 2.96969 57.2112 3.28206 56.9761L3.53597 56.7856L3.78988 56.5942C3.88987 56.5189 3.97846 56.4296 4.0555 56.3247L4.43636 55.8061C4.61005 55.5696 4.81246 55.3588 5.04281 55.1782L5.29281 54.9829L5.54281 54.7866C5.67751 54.681 5.80421 54.5666 5.92269 54.4438L6.36312 53.9878C6.6729 53.6669 7.06767 53.5034 7.47249 53.4458L7.85335 53.3921L8.10238 53.3559L8.29476 52.8511C8.39633 52.5839 8.51914 52.3309 8.6639 52.0942L9.00667 51.5337L9.05648 51.4556C9.31667 51.0788 9.7 50.8605 10.1209 50.7768L10.4852 50.7046L10.7 50.6616L10.7606 50.4643L10.869 50.1157C10.9863 49.7357 11.2001 49.39 11.534 49.1343L12.0389 48.7485C12.1644 48.6524 12.2799 48.5455 12.3856 48.4282L12.5975 48.1919L12.8104 47.9565C12.9536 47.7977 13.0978 47.6387 13.242 47.4809L13.6698 47.0122C13.9713 46.6824 14.3626 46.5082 14.7684 46.4429L15.1444 46.3833L15.3182 46.355L15.4491 45.8159C15.5432 45.4281 15.7338 45.0615 16.0584 44.7817L16.2987 44.5747L16.5389 44.3686C16.8026 44.1416 17.1083 43.983 17.4383 43.8843L18.1131 43.6831C18.1781 43.6637 18.1922 43.644 18.1981 43.6362L18.5868 43.1245C18.7326 42.9326 18.8869 42.7489 19.0487 42.5727L19.4774 42.105C19.65 41.9171 19.8365 41.7427 20.035 41.5825L20.5282 41.1841C20.652 41.0841 20.7669 40.9741 20.8719 40.853L21.2879 40.3726C21.418 40.2225 21.5458 40.0686 21.6698 39.9116L22.0662 39.4087C22.2629 39.1595 22.4989 38.95 22.7694 38.7837L23.3182 38.4458C23.4034 38.3934 23.4734 38.3294 23.5321 38.2485L23.7215 37.9878L23.911 37.7261C24.2101 37.3141 24.6472 37.1166 25.0926 37.062L25.4793 37.0142L25.5955 36.9995L25.6785 36.4614C25.7571 35.9571 26.0416 35.4785 26.5994 35.2563L27.2303 35.0054C27.2727 34.9885 27.2848 34.9733 27.2977 34.9526L27.4715 34.6753L27.6453 34.397L27.6981 34.3169C27.9706 33.9321 28.3718 33.7249 28.7996 33.6558L29.3309 33.5698L29.366 33.4018L29.4471 33.0229C29.4586 32.9686 29.472 32.9144 29.4871 32.8608L28.8739 32.8852C28.7466 32.8904 28.6046 32.9224 28.4422 32.9956L27.6278 33.3628C27.0511 33.6227 26.4415 33.5864 25.8993 33.2934L25.492 33.0727L25.1346 32.8794L24.3836 33.2319C23.8269 33.4927 23.2277 33.4848 22.6785 33.2163L21.8641 32.8169C21.7095 32.7412 21.5807 32.7138 21.4715 32.7104L21.0643 32.6977L20.6571 32.686C20.3664 32.6772 20.0754 32.6602 19.785 32.6352L18.9705 32.5649C18.9595 32.564 18.9484 32.5638 18.9373 32.563C18.7715 32.6055 18.6035 32.6538 18.4334 32.7075L17.7918 32.9097C17.4711 33.0109 17.1399 33.0487 16.8045 33.021L16.1444 32.9673C15.8736 32.9449 15.6064 32.8986 15.3436 32.8296L14.703 32.6616C14.6511 32.6481 14.582 32.6432 14.4793 32.6704L14.1278 32.7632L13.7752 32.8569C13.3858 32.9601 12.9826 32.9566 12.5916 32.8208L11.9549 32.5991C11.7861 32.5405 11.6112 32.4945 11.4305 32.4614L11.0936 32.3999L10.7576 32.3384C10.3874 32.2706 10.05 32.115 9.75765 31.8794L9.21761 31.4438C8.98348 31.2551 8.77406 31.0396 8.5887 30.8003L8.15511 30.2407C8.08234 30.1468 8.01039 30.0908 7.94124 30.0552L7.65218 29.9067L7.36312 29.7573C7.19558 29.671 7.01662 29.5898 6.82698 29.5132L6.18831 29.2544C5.73537 29.0713 5.41432 28.7241 5.24788 28.2808L4.99398 27.605C4.99241 27.6009 4.99119 27.5975 4.99007 27.5952C4.98926 27.5948 4.98813 27.5938 4.98714 27.5933L4.34847 27.2827C4.0125 27.1192 3.724 26.8838 3.50472 26.5747L3.11995 26.0327C3.0009 25.8648 2.87663 25.6987 2.74691 25.5347L2.53792 25.271L2.32991 25.0063C2.12701 24.7497 1.9725 24.4645 1.86995 24.1538L1.65902 23.5142C1.57539 23.2607 1.51054 23.002 1.46468 22.7397L1.34945 22.0796C1.32374 21.9326 1.28081 21.7933 1.22054 21.6616L0.944172 21.0591C0.864328 20.8846 0.772303 20.7057 0.667805 20.5239L0.316243 19.9126C0.117627 19.5671 0.0208562 19.1839 0.0418286 18.7817L0.0603833 18.4409L0.0779614 18.0991C0.0879257 17.9084 0.0859777 17.7202 0.072102 17.5347L0.0467114 17.1997L0.0213208 16.8638C0.00253948 16.6127 -0.00338955 16.3608 0.00178951 16.1089L0.0154614 15.436C0.0243787 15.0069 0.175975 14.62 0.422688 14.2905L0.833821 13.7417L0.634602 13.0786C0.514598 12.6778 0.50856 12.2537 0.660969 11.8423L0.778157 11.5268L0.894368 11.2104C0.986746 10.9611 1.09696 10.7194 1.22347 10.4858L1.54378 9.89404C1.68078 9.64114 1.84388 9.40446 2.03206 9.18603L2.47445 8.67236C2.5308 8.60689 2.57144 8.53167 2.59652 8.43407L2.77034 7.75829C2.85368 7.43378 2.9913 7.13131 3.18441 6.8579L3.57308 6.3081C3.767 6.03368 4.0075 5.8029 4.28792 5.61767L4.86214 5.23779C5.01136 5.13921 5.14519 5.03252 5.26448 4.91845L5.74105 4.4624C5.99766 4.21704 6.29982 4.0395 6.6346 3.92724L6.96175 3.81786L7.2889 3.70751C7.34911 3.68732 7.38855 3.65964 7.42464 3.61474L7.85238 3.08154C8.13694 2.72765 8.52499 2.51045 8.97152 2.44775L9.31331 2.39989L9.61995 2.35693C9.6206 2.35603 9.62219 2.35497 9.62288 2.354L10.0643 1.72607C10.3309 1.34736 10.7199 1.07104 11.2166 1.00048L11.8875 0.905754C12.0011 0.889629 12.1112 0.852264 12.2215 0.79052L12.8289 0.450676C13.1647 0.262751 13.5332 0.167962 13.9198 0.175286L14.6024 0.187981C14.7724 0.191199 14.9389 0.177639 15.1024 0.147942L15.4344 0.0883715L15.7664 0.0278247L15.8543 0.0141528ZM32.6248 27.3345C32.5489 27.4466 32.4336 27.81 32.4276 28.1079C32.4396 27.8526 32.565 27.4411 32.7313 27.2241C32.6954 27.259 32.6535 27.3009 32.6248 27.3345Z" fill="#D4CBBF"/>
<path d="M73.6796 1.75841C74.0279 1.75025 74.364 1.82622 74.6806 1.95958L75.3398 2.23692C75.8414 2.44843 76.1494 2.86053 76.2841 3.33849L76.5039 4.12071C76.6573 4.66536 76.5398 5.21682 76.1308 5.64024L75.5898 6.19982C75.4466 6.34799 75.3323 6.49286 75.2431 6.63341L75.0566 6.92735L74.8701 7.22228C74.723 7.45414 74.5583 7.67659 74.3779 7.88829L73.915 8.43126C73.8409 8.51827 73.7911 8.61119 73.7607 8.71642L73.5644 9.3961C73.5009 9.61567 73.4404 9.83703 73.3818 10.0592L73.2001 10.7457C73.1026 11.1154 72.9197 11.4458 72.6611 11.7262L72.1728 12.2565C72.1637 12.2663 72.1612 12.2712 72.1601 12.274C72.1587 12.2776 72.1531 12.2941 72.1523 12.3307L72.1425 12.7154L72.1347 13.1012C72.122 13.6488 71.8608 14.1107 71.4179 14.4147L70.7666 14.8609C70.6445 14.9447 70.5768 15.0252 70.5371 15.0953L70.1953 15.7008C70.114 15.8445 70.0482 15.9974 69.999 16.1608L69.7959 16.8365C69.755 16.9723 69.7309 17.1293 69.7304 17.3121L69.7294 18.0914C69.728 18.6717 69.4389 19.1474 68.9628 19.4401L68.2695 19.8658C68.2482 19.8789 68.2358 19.8893 68.2294 19.8951L68.0615 20.5787C67.9747 20.9324 67.8161 21.256 67.5888 21.5406L67.1464 22.0953C67.0588 22.2051 66.9927 22.3217 66.9472 22.4488L66.83 22.7789L66.7119 23.108C66.625 23.3506 66.5282 23.5887 66.4218 23.8219L66.1328 24.4547C66.0886 24.5515 66.0587 24.671 66.0527 24.8229L66.0224 25.5865C66.0006 26.1386 65.7254 26.5931 65.2792 26.8873L64.6123 27.3268C64.5239 27.3851 64.5066 27.4268 64.5 27.4449L64.2587 28.1012C64.1503 28.3958 63.993 28.6643 63.7959 28.9078L64.0605 28.9098L64.4111 28.9127C64.6842 28.9145 64.959 28.934 65.2343 28.9713L65.5937 29.0201L65.9462 29.068C65.9515 29.0651 65.9611 29.0599 65.9736 29.0504L66.6005 28.5699C66.9346 28.3144 67.3278 28.1536 67.7656 28.1373L68.1152 28.1246L68.4648 28.1109C68.7587 28.1001 69.0541 28.1199 69.3496 28.1686L70.0712 28.2877C70.2417 28.3158 70.4026 28.3211 70.5556 28.3072L71.249 28.2447C71.4301 28.2283 71.6092 28.1962 71.7861 28.149L72.123 28.0592L72.4609 27.9693C72.6966 27.9066 72.9347 27.8556 73.1748 27.8151C73.1897 27.8121 73.2047 27.8092 73.2197 27.8063L73.746 27.7037C73.9459 27.665 74.1671 27.6315 74.4072 27.6022L75.083 27.5192L75.1806 27.5104C75.4111 27.4971 75.6644 27.5364 75.9062 27.6705C76.1469 27.8041 76.3136 27.997 76.4248 28.1959L76.4697 28.2818L76.7685 28.9049C76.9262 29.2332 77.0058 29.5874 76.9902 29.9567L76.9628 30.6031C76.9427 31.0753 76.7239 31.4683 76.3837 31.7516C76.4663 31.8928 76.5384 32.1001 76.4951 32.3541C76.4425 32.662 76.2527 32.8414 76.1582 32.9147C76.0584 32.992 75.9626 33.0322 75.913 33.0514C75.7432 33.117 75.5482 33.1363 75.4433 33.1461L75.2158 33.1666C75.2129 33.1877 75.2111 33.2105 75.2099 33.235L75.1933 33.5846L75.1767 33.9352C75.1535 34.4265 74.9299 34.8561 74.5361 35.1549L74.0654 35.5113L74.0742 35.7887L74.0849 36.1529C74.1021 36.7144 73.8382 37.1952 73.3613 37.4859L72.7343 37.8688C72.6498 37.9203 72.631 37.9565 72.6259 37.9674L72.3583 38.5416C72.3068 38.6523 72.2686 38.7776 72.247 38.9205L72.1972 39.2525L72.1464 39.5846C72.1036 39.8691 72.0308 40.1447 71.9257 40.4078L71.6894 40.9986C71.5993 41.2243 71.4977 41.4447 71.3847 41.6588L71.0898 42.2184C70.9874 42.4125 70.8824 42.6054 70.7744 42.7965L70.4628 43.3473C70.363 43.5239 70.2648 43.7022 70.1699 43.8815L69.874 44.44C69.6972 44.7738 69.4391 45.0389 69.1328 45.2408L68.5322 45.6363C68.4987 45.6584 68.484 45.6747 68.4794 45.6803C68.4758 45.6848 68.474 45.687 68.4726 45.691L68.2636 46.2965C68.2219 46.4169 68.1935 46.5547 68.1835 46.7135L68.1621 47.0611L68.1396 47.4078C68.107 47.9311 67.8396 48.3605 67.413 48.6354L66.8242 49.0152L66.7744 49.2926L66.7167 49.6207C66.6501 49.9998 66.4845 50.3429 66.2236 50.6295L65.7841 51.1129C65.782 51.1153 65.7812 51.1168 65.7812 51.1168L65.7792 51.1236C65.7781 51.1293 65.777 51.1392 65.7763 51.1539L65.7421 51.8531C65.7218 52.2753 65.5713 52.6724 65.2753 52.9957L65.0546 53.2369L64.8339 53.4772C64.7738 53.5428 64.7352 53.6119 64.7109 53.691L64.6162 53.9996L64.5214 54.3072C64.391 54.7314 64.118 55.0596 63.7675 55.2897L63.4667 55.4879L63.1757 55.6783L63.121 55.9635L63.0585 56.2897C63.01 56.5439 62.9458 56.7925 62.8652 57.0338L62.6621 57.6422C62.5298 58.0382 62.2772 58.355 61.9511 58.5885L61.665 58.7936L61.4355 58.9576L61.4042 59.5826C61.3841 59.9779 61.2585 60.3492 61.0273 60.6744L60.6318 61.2301C60.3757 61.5901 60.0146 61.8316 59.5839 61.9313L58.9199 62.0856C58.4814 62.1868 58.0494 62.12 57.6621 61.9147L57.3457 61.7467L57.039 61.5826L56.7558 61.6725L56.4394 61.7721C56.0078 61.9081 55.5704 61.8683 55.1718 61.6832L54.5976 61.4166L54.0205 61.69C53.7394 61.8234 53.4466 61.9174 53.1435 61.9635L52.5107 62.0592C52.0952 62.1223 51.697 62.039 51.3408 61.8541L50.8134 61.5797L50.2773 61.8805C49.8474 62.1214 49.3541 62.1688 48.8779 61.9713L48.2666 61.7174L47.6552 61.9733C47.2656 62.1362 46.8466 62.1667 46.4335 62.0445L45.8017 61.857C45.7434 61.8398 45.6957 61.8399 45.6416 61.8541L45.0087 62.0201C44.5637 62.1372 44.127 62.0671 43.7412 61.8629L43.2158 61.5846L42.6855 61.8844C42.2125 62.1505 41.6724 62.1584 41.1904 61.8775L40.581 61.5221C40.3553 61.3905 40.1453 61.2549 39.955 61.1149L39.4716 60.7594C39.3071 60.6383 38.9375 60.3001 39.0136 59.7506C39.0789 59.2811 39.435 59.0333 39.5732 58.9459L40.1572 58.5768C40.1914 58.5551 40.211 58.533 40.2294 58.4859L40.3584 58.1598L40.4863 57.8326C40.6249 57.4801 40.846 57.1693 41.1582 56.9342L41.413 56.7428L41.6669 56.5514C41.7669 56.4761 41.8546 56.3867 41.9316 56.2818L42.3134 55.7633C42.4872 55.5267 42.6895 55.316 42.9199 55.1354L43.1699 54.94L43.4189 54.7438C43.5536 54.6381 43.6803 54.5238 43.7988 54.401L44.2392 53.9449C44.549 53.6239 44.9447 53.4606 45.3496 53.4029L45.7304 53.3492L45.9794 53.3131L46.1709 52.8082C46.2724 52.541 46.3952 52.288 46.54 52.0514L46.8828 51.4908L46.9335 51.4137C47.1937 51.037 47.5762 50.8177 47.997 50.734L48.3613 50.6617L48.5761 50.6197L48.6376 50.4215L48.7451 50.0729C48.8624 49.6929 49.0763 49.3472 49.4101 49.0914L49.915 48.7057C50.0404 48.6096 50.1559 48.5026 50.2617 48.3854L50.4746 48.15L50.6875 47.9137C50.8306 47.7549 50.9739 47.5958 51.1181 47.4381L51.5468 46.9703C51.8485 46.6404 52.2395 46.4653 52.6455 46.4L53.0205 46.3404L53.1953 46.3121L53.3251 45.7731C53.4193 45.3852 53.6108 45.0186 53.9355 44.7389L54.1757 44.5328L54.415 44.3258C54.6786 44.0987 54.9845 43.9411 55.3144 43.8424L55.9902 43.6402C56.0553 43.6208 56.0693 43.6011 56.0751 43.5934L56.4638 43.0816C56.6096 42.8899 56.7631 42.7059 56.9248 42.5299L57.3544 42.0621C57.527 41.8743 57.7127 41.6998 57.9111 41.5397L58.4052 41.1422C58.5291 41.0422 58.643 40.9313 58.748 40.8102L58.956 40.5699L59.165 40.3297C59.295 40.1797 59.4219 40.0257 59.5459 39.8688L59.9433 39.3658C60.1399 39.1168 60.3752 38.907 60.6455 38.7408L60.9209 38.5729L61.1953 38.4039C61.2804 38.3516 61.3504 38.2865 61.4091 38.2057L61.788 37.6842C62.0872 37.2722 62.5233 37.0738 62.9687 37.0191L63.3564 36.9723L63.4716 36.9576L63.5556 36.4186C63.6342 35.9141 63.9184 35.4355 64.4765 35.2135L65.1064 34.9625C65.1488 34.9456 65.1619 34.9304 65.1748 34.9098L65.3486 34.6324L65.5214 34.3541L65.5742 34.275C65.7008 34.0961 65.8563 33.9564 66.0283 33.8502C65.937 33.8272 65.8464 33.8094 65.7568 33.7955L65.4101 33.7418L65.0625 33.6871C64.9326 33.667 64.8038 33.67 64.6718 33.6959L64.3251 33.7643L63.9775 33.8326C63.7866 33.8701 63.5935 33.9213 63.3984 33.9879L62.7041 34.2252C62.1818 34.4036 61.6706 34.2993 61.246 34.0231L60.5517 33.5709C60.4367 33.4961 60.3714 33.4888 60.3427 33.4889H60.2656L59.957 33.7115C59.5865 33.9782 59.1504 34.0938 58.6914 34.0338L57.997 33.943C57.9786 33.9406 57.9598 33.9393 57.9414 33.9381C57.9118 33.9483 57.882 33.9579 57.8525 33.9684L57.5058 34.0914L57.1582 34.2135C56.6597 34.3895 56.1608 34.3159 55.7294 34.065L55.4423 33.8981L54.9189 33.6178C54.8935 33.6042 54.868 33.593 54.8437 33.5817C54.8106 33.5736 54.7823 33.5687 54.7578 33.568L54.4101 33.5582L54.0634 33.5494C54.028 33.5485 53.9611 33.555 53.8496 33.6227L53.1552 34.0436C52.7735 34.2751 52.3314 34.3901 51.8613 34.3121L51.5136 34.2545L51.1669 34.1969C50.984 34.1666 50.8019 34.1519 50.621 34.1529L50.2744 34.1549L49.9267 34.1568C49.681 34.1582 49.4351 34.1539 49.1894 34.1432L48.4951 34.1129C48.1432 34.0975 47.8067 34.0051 47.4902 33.8541C47.0786 33.9729 46.6631 33.9238 46.2851 33.7633L46.1337 33.6988L46.0507 33.7281C45.9297 33.7711 45.7029 33.8468 45.4638 33.8365C45.3535 33.8318 45.0988 33.8019 44.871 33.6031L44.3662 33.7154C43.8141 33.8379 43.2943 33.6683 42.913 33.2682L42.3867 32.7154C42.0477 32.3597 41.8745 31.9068 41.9042 31.4088L41.9267 31.0367L41.9492 30.6656C41.9707 30.3059 42.0593 29.9598 42.2138 29.6344L42.5312 28.9654C42.7332 28.5401 43.0709 28.2258 43.5078 28.0533L44.2001 27.7799C44.3126 27.7355 44.3904 27.6793 44.4482 27.6149L44.913 27.0953C45.1321 26.8508 45.3862 26.6458 45.6718 26.482L46.29 26.1276C46.4312 26.0466 46.5553 25.9522 46.664 25.8443L47.1572 25.3551C47.2637 25.2493 47.3602 25.1255 47.4443 24.9801L47.8076 24.3512C48.0311 23.9648 48.3651 23.6836 48.7763 23.5221L49.4062 23.275L49.5048 22.9108L49.6123 22.5152L49.6416 22.4186C49.7164 22.1948 49.8405 21.9772 50.0302 21.7945C50.2478 21.5852 50.5087 21.4639 50.7724 21.4059L51.5302 21.2389L51.666 20.9527L51.8261 20.6149C51.989 20.2713 52.222 19.9735 52.5283 19.7418L53.0849 19.3209C53.1638 19.2613 53.233 19.182 53.2919 19.0719L53.6386 18.4244C53.8667 17.9985 54.2327 17.7056 54.6826 17.5611L55.4121 17.3277C55.4433 17.3177 55.455 17.3088 55.457 17.3072C55.4583 17.3062 55.4595 17.3049 55.4609 17.3033C55.4624 17.3016 55.4663 17.2972 55.4707 17.2897L55.8369 16.6637C56.0495 16.301 56.356 16.0235 56.7363 15.8453L57.0654 15.69L57.3955 15.5358C57.413 15.5275 57.4199 15.5211 57.4228 15.5182C57.4262 15.5146 57.4364 15.5028 57.4492 15.4742L57.7568 14.7838C57.9079 14.4448 58.123 14.1446 58.4072 13.902L58.9355 13.4508C59.1267 13.2876 59.3238 13.1306 59.5263 12.9801L60.0869 12.5641C60.2296 12.458 60.3605 12.3398 60.4804 12.2096L60.9531 11.6969C61.1256 11.5095 61.305 11.3288 61.4912 11.1559L62 10.6832C62.3085 10.3967 62.6837 10.2287 63.082 10.15L63.8808 9.99181C63.9267 9.98273 63.9461 9.97172 63.9501 9.96935L64.3671 9.40001C64.4736 9.25438 64.5705 9.09243 64.6572 8.91368L64.9824 8.24181C65.1288 7.93981 65.3171 7.66646 65.5488 7.42833L66.0332 6.93028C66.2019 6.75688 66.3743 6.5858 66.5488 6.41857L67.0498 5.9381C67.2721 5.725 67.5202 5.54284 67.791 5.39122L68.1025 5.21642L68.414 5.04259C68.6083 4.93379 68.7985 4.81999 68.9843 4.70274L69.581 4.32677C69.696 4.25421 69.7938 4.16638 69.8769 4.06114L70.3125 3.50841C70.4918 3.2812 70.6908 3.0733 70.9091 2.88536L71.4365 2.43126C71.6057 2.28561 71.8288 2.10472 72.0527 2.00939L72.1777 1.95665L72.3017 1.90392L72.3974 1.86778C72.6256 1.79242 72.8751 1.77738 73.0595 1.77306L73.6796 1.75841Z" fill="#FF5E32"/>
</svg>
