<svg width="146" height="146" viewBox="0 0 146 146" fill="none" xmlns="http://www.w3.org/2000/svg">
<path d="M127.547 43.4869C127.895 43.4788 128.231 43.5539 128.548 43.6871L129.207 43.9645C129.709 44.1759 130.016 44.588 130.151 45.066L130.372 45.8492C130.525 46.3939 130.407 46.9454 129.998 47.3688L129.458 47.9274C129.314 48.0756 129.2 48.2213 129.111 48.3619L128.924 48.6559L128.737 48.9508C128.59 49.1825 128.426 49.4043 128.246 49.6158L127.783 50.1588C127.709 50.2459 127.658 50.3396 127.628 50.4449L127.431 51.1236C127.368 51.3432 127.307 51.5645 127.249 51.7867L127.067 52.4733C126.97 52.8431 126.787 53.1732 126.528 53.4537L126.04 53.984C126.03 53.9944 126.028 53.9999 126.027 54.0026C126.026 54.0061 126.02 54.0226 126.019 54.0592L126.002 54.8287C125.989 55.3764 125.728 55.8382 125.285 56.1422L124.633 56.5895C124.512 56.6732 124.445 56.7538 124.405 56.8238L124.062 57.4283C123.981 57.5723 123.915 57.7256 123.866 57.8893L123.663 58.5651C123.622 58.7008 123.599 58.8578 123.598 59.0406L123.596 59.819C123.595 60.3993 123.306 60.8748 122.83 61.1676L122.483 61.3815L122.136 61.5944C122.115 61.6076 122.103 61.6179 122.096 61.6236L121.928 62.3072C121.842 62.6609 121.683 62.9845 121.456 63.2692L121.013 63.8229C120.926 63.9327 120.86 64.0502 120.814 64.1774L120.697 64.5065L120.579 64.8365C120.492 65.0792 120.395 65.3171 120.289 65.5504L120.001 66.1832C119.957 66.28 119.926 66.3987 119.92 66.5504L119.889 67.3151C119.867 67.8667 119.593 68.3207 119.147 68.6149L118.48 69.0543C118.392 69.1126 118.374 69.1542 118.367 69.1725L118.126 69.8287C118.017 70.1238 117.859 70.3925 117.662 70.6363L117.926 70.6383L118.278 70.6403C118.551 70.642 118.826 70.6625 119.101 70.6998L119.461 70.7486L119.813 70.7965C119.818 70.7936 119.828 70.7875 119.841 70.7779L120.467 70.2985C120.802 70.0429 121.195 69.8811 121.632 69.8649L121.981 69.8522L122.331 69.8395C122.625 69.8286 122.921 69.8484 123.216 69.8971L123.937 70.0153C124.108 70.0434 124.269 70.0496 124.423 70.0358L124.769 70.0045L125.116 69.9723C125.297 69.9559 125.475 69.9246 125.652 69.8776L125.99 69.7877L126.327 69.6979C126.58 69.6304 126.836 69.5756 127.094 69.5338L127.782 69.4225C128.023 69.3836 128.258 69.3956 128.48 69.4557L128.951 69.399L129.048 69.3903C129.278 69.377 129.532 69.4153 129.774 69.5494C130.015 69.683 130.18 69.8769 130.292 70.0758L130.337 70.1617L130.635 70.7848C130.793 71.1132 130.874 71.4672 130.858 71.8365L130.83 72.483C130.811 72.9305 130.614 73.3071 130.303 73.5865C130.359 73.7182 130.395 73.8865 130.362 74.0826C130.309 74.3904 130.119 74.5689 130.024 74.6422C129.924 74.7194 129.83 74.7607 129.78 74.7799C129.61 74.8455 129.415 74.8648 129.31 74.8746L129.131 74.8912C129.104 74.9431 129.082 75.0131 129.077 75.1149L129.061 75.4645L129.044 75.8151C129.02 76.3062 128.798 76.735 128.404 77.0338L127.933 77.3903L127.941 77.6676L127.953 78.0328C127.97 78.5941 127.706 79.0751 127.229 79.3658L126.602 79.7477C126.517 79.7993 126.499 79.8364 126.494 79.8473L126.226 80.4215C126.175 80.5322 126.136 80.6573 126.114 80.8004L126.014 81.4645C125.971 81.7488 125.899 82.0237 125.794 82.2867L125.557 82.8785C125.467 83.1042 125.366 83.3246 125.253 83.5387L124.958 84.0983C124.855 84.2923 124.749 84.4844 124.641 84.6754L124.33 85.2272C124.23 85.4036 124.133 85.5813 124.038 85.7604L123.742 86.3199C123.565 86.6537 123.306 86.9178 123 87.1197L122.399 87.5162C122.367 87.5377 122.352 87.5533 122.347 87.5592C122.344 87.5638 122.342 87.5669 122.341 87.5709L122.131 88.1764C122.089 88.2967 122.06 88.4347 122.05 88.5934L122.029 88.9401L122.007 89.2877C121.975 89.8109 121.707 90.2404 121.281 90.5153L120.691 90.8951L120.642 91.1725L120.585 91.5006C120.518 91.8796 120.352 92.2228 120.091 92.5094L119.652 92.9918C119.65 92.9944 119.648 92.9957 119.648 92.9957L119.647 93.0035C119.646 93.0092 119.644 93.0192 119.643 93.0338L119.61 93.733C119.59 94.1552 119.438 94.5523 119.142 94.8756L118.923 95.1158L118.702 95.357C118.642 95.4228 118.602 95.4917 118.578 95.5709L118.483 95.8785L118.389 96.1871C118.259 96.6113 117.985 96.9395 117.634 97.1695L117.334 97.3668L117.044 97.5572L116.988 97.8434L116.926 98.1695C116.878 98.4237 116.814 98.6716 116.733 98.9127L116.529 99.5221C116.397 99.9178 116.145 100.234 115.819 100.467L115.532 100.673L115.303 100.837L115.271 101.463C115.251 101.858 115.125 102.228 114.894 102.553L114.5 103.11C114.244 103.47 113.882 103.712 113.451 103.811L112.788 103.964C112.349 104.066 111.917 103.999 111.53 103.794L111.214 103.627L110.906 103.463L110.624 103.552L110.307 103.652C109.876 103.788 109.438 103.748 109.04 103.563L108.466 103.297L107.888 103.57C107.607 103.703 107.314 103.797 107.01 103.843L106.379 103.939C105.963 104.002 105.565 103.919 105.209 103.734L104.68 103.46L104.144 103.76C103.714 104.001 103.222 104.049 102.746 103.851L102.134 103.597L101.523 103.853C101.134 104.016 100.714 104.047 100.301 103.924L99.6686 103.737C99.6105 103.72 99.5626 103.719 99.5085 103.733L98.8766 103.9C98.4317 104.017 97.9949 103.947 97.6091 103.743L97.0837 103.464L96.5524 103.763C96.0794 104.029 95.5394 104.038 95.0573 103.757L94.4479 103.402C94.2222 103.27 94.0132 103.135 93.8229 102.995L93.3395 102.639C93.1751 102.518 92.8044 102.18 92.8805 101.63C92.9457 101.161 93.3017 100.913 93.4401 100.826L94.0241 100.456C94.0583 100.434 94.0789 100.413 94.0973 100.366L94.2253 100.039L94.3542 99.7115C94.4929 99.359 94.7138 99.0482 95.0261 98.8131L95.28 98.6227L95.5339 98.4313C95.6339 98.356 95.7224 98.2667 95.7995 98.1617L96.1804 97.6422C96.354 97.4058 96.5566 97.1958 96.7868 97.0153L97.0368 96.8199L97.2868 96.6236C97.4215 96.518 97.5482 96.4037 97.6667 96.2809L98.1071 95.8248C98.4169 95.5039 98.8117 95.3405 99.2165 95.2828L99.5973 95.2291L99.8464 95.193L100.039 94.6871C100.14 94.4201 100.263 94.1678 100.408 93.9313L100.751 93.3697L100.801 93.2926C101.062 92.916 101.444 92.6975 101.865 92.6139L102.229 92.5416L102.444 92.4986L102.505 92.3014L102.613 91.9518C102.73 91.572 102.944 91.227 103.278 90.9713L103.783 90.5846C103.908 90.4886 104.024 90.3824 104.13 90.2653L104.341 90.0289L104.554 89.7936C104.698 89.6347 104.842 89.4757 104.986 89.318L105.415 88.8492C105.716 88.5195 106.108 88.3452 106.513 88.2799L106.888 88.2203L107.062 88.192L107.193 87.6529C107.287 87.2651 107.478 86.8986 107.802 86.6188L108.043 86.4117L108.283 86.2057C108.547 85.9786 108.852 85.82 109.182 85.7213L109.858 85.5201C109.922 85.5008 109.936 85.4811 109.942 85.4733L110.331 84.9615C110.477 84.7697 110.631 84.5859 110.793 84.4098L111.221 83.942C111.394 83.7541 111.581 83.5797 111.779 83.4195L112.272 83.0211C112.396 82.9211 112.511 82.8112 112.616 82.6901L112.824 82.4498L113.032 82.2086C113.162 82.0585 113.29 81.9047 113.414 81.7477L113.81 81.2457C114.007 80.9965 114.243 80.787 114.513 80.6207L115.062 80.2828C115.147 80.2305 115.217 80.1664 115.276 80.0856L115.466 79.8238L115.655 79.5631C115.954 79.1511 116.391 78.9536 116.837 78.899L117.224 78.8512L117.34 78.8365L117.423 78.2985C117.501 77.794 117.785 77.3145 118.343 77.0924L118.974 76.8424C119.017 76.8256 119.029 76.8103 119.042 76.7897L119.216 76.5113L119.389 76.234L119.442 76.1539C119.611 75.915 119.83 75.744 120.074 75.6324C119.921 75.5843 119.772 75.546 119.624 75.5231L119.276 75.4694L118.929 75.4156C118.8 75.3955 118.671 75.3986 118.539 75.4244L118.191 75.4918L117.844 75.5602C117.653 75.5976 117.46 75.6498 117.265 75.7164L116.571 75.9528C116.049 76.1311 115.538 76.0269 115.113 75.7506L114.419 75.2994C114.303 75.2243 114.237 75.2172 114.209 75.2174H114.132L113.824 75.4401C113.453 75.7066 113.017 75.8224 112.558 75.7623L111.864 75.6715C111.845 75.669 111.826 75.6679 111.807 75.6666C111.778 75.6767 111.749 75.6866 111.719 75.6969L111.372 75.819L111.025 75.942C110.527 76.118 110.027 76.0445 109.595 75.7936L109.305 75.6246L108.786 75.3463C108.759 75.332 108.732 75.32 108.707 75.3082C108.675 75.3008 108.647 75.2972 108.624 75.2965L108.277 75.2867L107.929 75.277C107.894 75.2761 107.827 75.2831 107.716 75.3502L107.022 75.7721C106.64 76.0036 106.198 76.1185 105.728 76.0406L105.381 75.983L105.034 75.9254C104.851 75.8951 104.669 75.8805 104.488 75.8815L104.141 75.8834L103.794 75.8854C103.548 75.8867 103.302 75.8815 103.056 75.8707L102.362 75.8414C102.01 75.826 101.674 75.7327 101.357 75.5817C100.946 75.7004 100.53 75.6523 100.152 75.4918L99.9997 75.4274L99.9167 75.4567C99.7956 75.4996 99.5696 75.5753 99.3307 75.5651C99.2206 75.5603 98.9658 75.5303 98.738 75.3317L98.2331 75.444C97.6812 75.5663 97.1611 75.3967 96.78 74.9967L96.2536 74.444C95.9146 74.0881 95.7424 73.6344 95.7721 73.1363L95.7936 72.7653L95.8161 72.3932C95.8376 72.0336 95.9263 71.6882 96.0807 71.3629L96.3981 70.693C96.6002 70.2676 96.9387 69.9533 97.3757 69.7809L98.068 69.5084C98.1804 69.4641 98.2574 69.4078 98.3151 69.3434L98.78 68.8238C98.999 68.5793 99.2541 68.3743 99.5397 68.2106L100.157 67.8561C100.298 67.7751 100.422 67.6807 100.531 67.5729L101.024 67.0836C101.131 66.9778 101.227 66.8542 101.311 66.7086L101.675 66.0787C101.899 65.6926 102.232 65.412 102.643 65.2506L103.273 65.0026L103.372 64.6383L103.48 64.2428L103.508 64.1471C103.583 63.9233 103.707 63.7057 103.897 63.5231C104.115 63.3137 104.376 63.1914 104.639 63.1334L105.397 62.9674L105.533 62.6803L105.693 62.3424C105.856 61.9988 106.09 61.7011 106.396 61.4694L106.952 61.0485C107.031 60.9889 107.1 60.9104 107.159 60.8004L107.506 60.1529C107.734 59.7269 108.101 59.4341 108.55 59.2897L109.279 59.0553C109.311 59.045 109.322 59.036 109.324 59.0348C109.325 59.0337 109.326 59.0325 109.328 59.0309C109.329 59.0291 109.333 59.0254 109.338 59.0182L109.705 58.3922C109.917 58.0295 110.223 57.751 110.603 57.5729L110.932 57.4186L111.262 57.2633C111.28 57.2551 111.287 57.2497 111.29 57.2467C111.293 57.2434 111.303 57.2318 111.316 57.2028L111.624 56.5113C111.775 56.1725 111.99 55.873 112.274 55.6305L112.802 55.1793C112.994 55.0161 113.191 54.8591 113.393 54.7086L113.954 54.2916C114.097 54.1855 114.227 54.0673 114.347 53.9371L114.82 53.4254C114.993 53.238 115.172 53.0574 115.358 52.8844L115.867 52.4117C116.175 52.1251 116.551 51.9562 116.949 51.8776L117.748 51.7203C117.795 51.7111 117.814 51.7 117.818 51.6979L118.234 51.1276C118.341 50.9819 118.437 50.8201 118.524 50.6412L118.85 49.9703C118.997 49.6683 119.184 49.394 119.416 49.1559L119.901 48.6578C120.07 48.4845 120.241 48.3142 120.416 48.1471L120.917 47.6666C121.139 47.4536 121.387 47.2713 121.658 47.1197L121.969 46.9449L122.281 46.7711C122.475 46.6623 122.665 46.5486 122.851 46.4313L123.448 46.0543C123.563 45.9817 123.661 45.894 123.744 45.7887L124.179 45.2369C124.359 45.0094 124.558 44.8011 124.777 44.6129L125.303 44.1598C125.473 44.0142 125.696 43.8333 125.92 43.7379L126.045 43.6852L126.169 43.6324L126.264 43.5953C126.492 43.52 126.742 43.5059 126.926 43.5016L127.547 43.4869Z" fill="#1F2792"/>
<path d="M31.8543 42.0142C32.2924 41.9575 32.7031 42.0747 33.0545 42.2993L33.3797 42.5083L33.7059 42.7153C33.7926 42.7707 33.8303 42.7694 33.8348 42.769L34.161 42.7505L34.4862 42.7329C34.6775 42.7224 34.877 42.7029 35.0838 42.6743L35.4285 42.6265L35.7723 42.5796C36.1482 42.5276 36.5227 42.5702 36.8778 42.7143L37.4969 42.9653C37.7997 43.0882 38.0749 43.2615 38.3201 43.479L38.5809 43.7095L38.7889 43.895L39.5662 43.7681L39.6639 43.7554C39.8943 43.7309 40.1466 43.7507 40.3953 43.855C40.6845 43.9762 40.8989 44.1814 41.0467 44.4136L41.4471 45.0444C41.4512 45.0509 41.4554 45.055 41.4578 45.0581L42.1502 45.2241C42.544 45.318 42.8949 45.5162 43.1717 45.8227L43.6248 46.3247C43.8415 46.5649 44.0145 46.8364 44.1444 47.1343L44.4256 47.7788C44.4942 47.9362 44.5713 48.0688 44.6551 48.1802L45.0418 48.6938C45.0589 48.7164 45.105 48.765 45.2293 48.8169L45.5877 48.9673L45.9461 49.1167C46.4023 49.307 46.7509 49.6692 46.8709 50.1772L46.8914 50.2808L47.0106 50.9819C47.0376 51.1416 47.0808 51.2776 47.1366 51.394L47.4188 51.9839C47.531 52.2184 47.6265 52.4605 47.7039 52.7085L47.8983 53.3315C47.9814 53.5975 48.0367 53.8701 48.0633 54.1479L48.1258 54.8003C48.1395 54.9429 48.1705 55.0807 48.2196 55.2143L48.4461 55.8296C48.5266 56.0486 48.6014 56.2718 48.6717 56.4985L48.87 57.1372C48.9506 57.3973 49.0072 57.6656 49.0145 57.9282L49.0282 58.3989C49.0304 58.4806 49.0308 58.5589 49.0291 58.6226C49.0285 58.646 49.0268 58.689 49.0213 58.7378C49.0259 58.7601 49.0303 58.7851 49.036 58.812L49.1785 59.4858C49.2415 59.7827 49.2663 60.0832 49.2518 60.3852L49.2196 61.063C49.203 61.4057 49.1189 61.7352 48.9725 62.0454L48.826 62.3579L48.6785 62.6694C48.612 62.8105 48.5657 62.9529 48.5389 63.0972L48.4168 63.7583C48.3436 64.1519 48.1603 64.4986 47.8914 64.7866L47.409 65.3042C47.3295 65.3894 47.2835 65.4699 47.2576 65.5493L47.0526 66.1792C46.9804 66.4006 46.9031 66.6227 46.8201 66.8452L46.702 67.1626L46.5828 67.48C46.4471 67.8437 46.2213 68.1521 45.9178 68.3921L45.3797 68.8169C45.2282 68.9367 45.0902 69.061 44.9647 69.189L44.5067 69.6567C44.4894 69.6743 44.472 69.6939 44.4549 69.7163C44.7044 69.693 44.9562 69.7059 45.2059 69.7524L46.0819 69.9155C46.2347 69.944 46.3526 69.9355 46.45 69.9087L47.2362 69.6919C47.4623 69.6295 47.6858 69.5544 47.9071 69.4673L48.6727 69.1655C48.8001 69.1153 48.8957 69.0782 48.9588 69.0532C48.9865 69.0423 49.0076 69.0336 49.0223 69.0278C49.0212 69.0283 49.0196 69.0292 49.0184 69.0298C49.015 69.0313 49.0009 69.0378 48.9832 69.0464C48.9775 69.0491 48.9485 69.0633 48.9139 69.0835C48.9017 69.0906 48.8515 69.1199 48.7938 69.1655C48.7861 69.1719 48.7765 69.1818 48.7645 69.1929C48.9528 69.066 49.2657 68.9558 49.3856 68.9429C49.5653 68.9346 49.7056 68.9789 49.7127 68.9809C49.7804 69 49.8319 69.0224 49.8377 69.0249C49.8648 69.0364 49.886 69.0471 49.8905 69.0493C49.903 69.0555 49.9136 69.0608 49.9159 69.062C49.922 69.0653 49.9273 69.0686 49.9295 69.0698C49.9347 69.0726 49.9413 69.0759 49.9461 69.0786C49.9564 69.0843 49.9713 69.0921 49.9891 69.102C50.0254 69.1223 50.0792 69.1531 50.1502 69.1929L50.3631 69.312L50.5594 69.4214C50.5662 69.4237 50.5803 69.4285 50.6024 69.4341C50.6573 69.448 50.7426 69.4644 50.8641 69.478L51.7879 69.5806L51.91 69.5981C52.0093 69.6161 52.1149 69.6444 52.2215 69.686C52.3207 69.6712 52.4241 69.6581 52.5311 69.645L53.2069 69.562L53.3035 69.5532C53.5341 69.5399 53.7883 69.5783 54.0301 69.7124C54.2708 69.8459 54.4365 70.0398 54.5477 70.2388L54.5926 70.3247L54.8914 70.9477C55.0492 71.2761 55.1287 71.6302 55.1131 71.9995L55.0858 72.646C55.0645 73.143 54.8256 73.5546 54.4539 73.8403L53.9002 74.2651C53.8014 74.3411 53.7409 74.4154 53.702 74.4849L53.3934 75.0376C53.3637 75.0908 53.3382 75.1655 53.3328 75.2778L53.3172 75.6274L53.2996 75.978C53.2764 76.4692 53.0536 76.898 52.66 77.1968L52.1893 77.5532L52.1971 77.8306L52.2078 78.1958C52.225 78.7571 51.9619 79.2381 51.4852 79.5288L50.8582 79.9106C50.7735 79.9623 50.7549 79.9994 50.7498 80.0102L50.4823 80.5845C50.4306 80.6952 50.3915 80.8203 50.37 80.9634L50.2703 81.6274C50.2275 81.9119 50.1547 82.1875 50.0496 82.4507L49.8133 83.0415C49.7232 83.2672 49.6216 83.4876 49.5086 83.7017L49.2137 84.2612C49.1113 84.4552 49.0053 84.6474 48.8973 84.8384L48.5858 85.3901C48.486 85.5666 48.3886 85.7443 48.2938 85.9233L47.9979 86.4829C47.8211 86.8167 47.5621 87.0808 47.2557 87.2827L46.6551 87.6792C46.6217 87.7012 46.607 87.7165 46.6024 87.7222C46.5986 87.7268 46.5979 87.7298 46.5965 87.7339L46.3866 88.3393C46.3449 88.4597 46.3164 88.5976 46.3065 88.7563L46.285 89.104L46.2635 89.4507C46.2309 89.974 45.9626 90.4034 45.536 90.6782L44.9471 91.0581L44.8983 91.3354L44.8407 91.6636C44.774 92.0426 44.6084 92.3858 44.3475 92.6724L43.908 93.1548C43.9059 93.1571 43.9043 93.1584 43.9041 93.1587L43.9032 93.1665C43.902 93.1722 43.9 93.182 43.8993 93.1968L43.866 93.896C43.8457 94.3181 43.6943 94.7152 43.3983 95.0386L43.1785 95.2798L42.9578 95.52C42.8977 95.5857 42.8582 95.6547 42.8338 95.7339L42.7391 96.0415L42.6453 96.3501C42.5149 96.7743 42.241 97.1025 41.8905 97.3325L41.5897 97.5298L41.2987 97.7212L41.244 98.0063L41.1815 98.3325C41.133 98.5866 41.0696 98.8346 40.9891 99.0757L40.785 99.6851C40.6527 100.081 40.4009 100.397 40.075 100.63L39.7879 100.836L39.5594 101L39.5272 101.625C39.507 102.021 39.3814 102.392 39.1502 102.717L38.7547 103.273C38.4986 103.633 38.1375 103.875 37.7069 103.974L37.0438 104.127C36.6053 104.229 36.1733 104.163 35.786 103.958L35.4696 103.79L35.1619 103.625L34.8797 103.715L34.5633 103.815C34.1317 103.951 33.6943 103.911 33.2957 103.726L32.7205 103.459L32.1444 103.733C31.8632 103.866 31.5697 103.96 31.2664 104.006L30.6336 104.102C30.2184 104.165 29.8207 104.082 29.4647 103.897L28.9364 103.623L28.4002 103.923C27.9705 104.164 27.4778 104.211 27.0018 104.014L26.3905 103.76L25.7791 104.016C25.3896 104.179 24.9705 104.21 24.5575 104.087L23.9246 103.9C23.8665 103.883 23.8186 103.883 23.7645 103.897L23.1326 104.063C22.6876 104.18 22.25 104.11 21.8641 103.906L21.3397 103.627L20.8084 103.926C20.3354 104.192 19.7954 104.201 19.3133 103.92L18.7039 103.565C18.4782 103.433 18.2692 103.298 18.0789 103.158L17.5946 102.802C17.4299 102.681 17.0604 102.343 17.1366 101.793C17.2017 101.324 17.5578 101.076 17.6961 100.989L18.2801 100.62C18.3143 100.598 18.3349 100.576 18.3534 100.529L18.4813 100.202L18.6102 99.8755C18.7489 99.5227 18.9697 99.2112 19.2821 98.9761L19.536 98.7856L19.7899 98.5942C19.8899 98.5189 19.9785 98.4296 20.0555 98.3247L20.4364 97.8061C20.61 97.5696 20.8125 97.3588 21.0428 97.1782L21.2928 96.9829L21.5428 96.7866C21.6775 96.681 21.8042 96.5666 21.9227 96.4438L22.3631 95.9878C22.6729 95.6669 23.0677 95.5034 23.4725 95.4458L23.8534 95.3921L24.1024 95.3559L24.2948 94.8511C24.3963 94.5839 24.5191 94.3309 24.6639 94.0942L25.0067 93.5337L25.0565 93.4556C25.3167 93.0788 25.7 92.8605 26.1209 92.7768L26.4852 92.7046L26.7 92.6616L26.7606 92.4643L26.869 92.1157C26.9863 91.7357 27.2001 91.39 27.534 91.1343L28.0389 90.7485C28.1644 90.6524 28.2799 90.5455 28.3856 90.4282L28.5975 90.1919L28.8104 89.9565C28.9536 89.7977 29.0978 89.6387 29.242 89.4809L29.6698 89.0122C29.9713 88.6824 30.3626 88.5082 30.7684 88.4429L31.1444 88.3833L31.3182 88.355L31.4491 87.8159C31.5432 87.4281 31.7338 87.0615 32.0584 86.7817L32.2987 86.5747L32.5389 86.3686C32.8026 86.1416 33.1083 85.983 33.4383 85.8843L34.1131 85.6831C34.1781 85.6637 34.1922 85.644 34.1981 85.6362L34.5868 85.1245C34.7326 84.9326 34.8869 84.7489 35.0487 84.5727L35.4774 84.105C35.65 83.9171 35.8365 83.7427 36.035 83.5825L36.5282 83.1841C36.652 83.0841 36.7669 82.9741 36.8719 82.853L37.2879 82.3726C37.418 82.2225 37.5458 82.0686 37.6698 81.9116L38.0662 81.4087C38.2629 81.1595 38.4989 80.95 38.7694 80.7837L39.3182 80.4458C39.4034 80.3934 39.4734 80.3294 39.5321 80.2485L39.7215 79.9878L39.911 79.7261C40.2101 79.3141 40.6472 79.1166 41.0926 79.062L41.4793 79.0142L41.5955 78.9995L41.6785 78.4614C41.7571 77.9571 42.0416 77.4785 42.5994 77.2563L43.2303 77.0054C43.2727 76.9885 43.2848 76.9733 43.2977 76.9526L43.4715 76.6753L43.6453 76.397L43.6981 76.3169C43.9706 75.9321 44.3718 75.7249 44.7996 75.6558L45.3309 75.5698L45.366 75.4018L45.4471 75.0229C45.4586 74.9686 45.472 74.9144 45.4871 74.8608L44.8739 74.8852C44.7466 74.8904 44.6046 74.9224 44.4422 74.9956L43.6278 75.3628C43.0511 75.6227 42.4415 75.5864 41.8993 75.2934L41.492 75.0727L41.1346 74.8794L40.3836 75.2319C39.8269 75.4927 39.2277 75.4848 38.6785 75.2163L37.8641 74.8169C37.7095 74.7412 37.5807 74.7138 37.4715 74.7104L37.0643 74.6977L36.6571 74.686C36.3664 74.6772 36.0754 74.6602 35.785 74.6352L34.9705 74.5649C34.9595 74.564 34.9484 74.5638 34.9373 74.563C34.7715 74.6055 34.6035 74.6538 34.4334 74.7075L33.7918 74.9097C33.4711 75.0109 33.1399 75.0487 32.8045 75.021L32.1444 74.9673C31.8736 74.9449 31.6064 74.8986 31.3436 74.8296L30.703 74.6616C30.6511 74.6481 30.582 74.6432 30.4793 74.6704L30.1278 74.7632L29.7752 74.8569C29.3858 74.9601 28.9826 74.9566 28.5916 74.8208L27.9549 74.5991C27.7861 74.5405 27.6112 74.4945 27.4305 74.4614L27.0936 74.3999L26.7576 74.3384C26.3874 74.2706 26.05 74.115 25.7576 73.8794L25.2176 73.4438C24.9835 73.2551 24.7741 73.0396 24.5887 72.8003L24.1551 72.2407C24.0823 72.1468 24.0104 72.0908 23.9412 72.0552L23.6522 71.9067L23.3631 71.7573C23.1956 71.671 23.0166 71.5898 22.827 71.5132L22.1883 71.2544C21.7354 71.0713 21.4143 70.7241 21.2479 70.2808L20.994 69.605C20.9924 69.6009 20.9912 69.5975 20.9901 69.5952C20.9893 69.5948 20.9881 69.5938 20.9871 69.5933L20.3485 69.2827C20.0125 69.1192 19.724 68.8838 19.5047 68.5747L19.12 68.0327C19.0009 67.8648 18.8766 67.6987 18.7469 67.5347L18.5379 67.271L18.3299 67.0063C18.127 66.7497 17.9725 66.4645 17.87 66.1538L17.659 65.5142C17.5754 65.2607 17.5105 65.002 17.4647 64.7397L17.3494 64.0796C17.3237 63.9326 17.2808 63.7933 17.2205 63.6616L16.9442 63.0591C16.8643 62.8846 16.7723 62.7057 16.6678 62.5239L16.3162 61.9126C16.1176 61.5671 16.0209 61.1839 16.0418 60.7817L16.0604 60.4409L16.078 60.0991C16.0879 59.9084 16.086 59.7202 16.0721 59.5347L16.0467 59.1997L16.0213 58.8638C16.0025 58.6127 15.9966 58.3608 16.0018 58.1089L16.0155 57.436C16.0244 57.0069 16.176 56.62 16.4227 56.2905L16.8338 55.7417L16.6346 55.0786C16.5146 54.6778 16.5086 54.2537 16.661 53.8423L16.7782 53.5268L16.8944 53.2104C16.9867 52.9611 17.097 52.7194 17.2235 52.4858L17.5438 51.894C17.6808 51.6411 17.8439 51.4045 18.0321 51.186L18.4744 50.6724C18.5308 50.6069 18.5714 50.5317 18.5965 50.4341L18.7703 49.7583C18.8537 49.4338 18.9913 49.1313 19.1844 48.8579L19.5731 48.3081C19.767 48.0337 20.0075 47.8029 20.2879 47.6177L20.8621 47.2378C21.0114 47.1392 21.1452 47.0325 21.2645 46.9184L21.741 46.4624C21.9977 46.217 22.2998 46.0395 22.6346 45.9272L22.9618 45.8179L23.2889 45.7075C23.3491 45.6873 23.3885 45.6596 23.4246 45.6147L23.8524 45.0815C24.1369 44.7277 24.525 44.5105 24.9715 44.4477L25.3133 44.3999L25.62 44.3569C25.6206 44.356 25.6222 44.355 25.6229 44.354L26.0643 43.7261C26.3309 43.3474 26.7199 43.071 27.2166 43.0005L27.8875 42.9058C28.0011 42.8896 28.1112 42.8523 28.2215 42.7905L28.8289 42.4507C29.1647 42.2628 29.5332 42.168 29.9198 42.1753L30.6024 42.188C30.7724 42.1912 30.9389 42.1776 31.1024 42.1479L31.4344 42.0884L31.7664 42.0278L31.8543 42.0142ZM48.6248 69.3345C48.5489 69.4466 48.4336 69.81 48.4276 70.1079C48.4396 69.8526 48.565 69.4411 48.7313 69.2241C48.6954 69.259 48.6535 69.3009 48.6248 69.3345Z" fill="#D4CBBF"/>
<path d="M89.6796 43.7584C90.0279 43.7503 90.364 43.8262 90.6806 43.9596L91.3398 44.2369C91.8414 44.4484 92.1494 44.8605 92.2841 45.3385L92.5039 46.1207C92.6573 46.6654 92.5398 47.2168 92.1308 47.6402L91.5898 48.1998C91.4466 48.348 91.3323 48.4929 91.2431 48.6334L91.0566 48.9274L90.8701 49.2223C90.723 49.4541 90.5583 49.6766 90.3779 49.8883L89.915 50.4313C89.8409 50.5183 89.7911 50.6112 89.7607 50.7164L89.5644 51.3961C89.5009 51.6157 89.4404 51.837 89.3818 52.0592L89.2001 52.7457C89.1026 53.1154 88.9197 53.4458 88.6611 53.7262L88.1728 54.2565C88.1637 54.2663 88.1612 54.2712 88.1601 54.274C88.1587 54.2776 88.1531 54.2941 88.1523 54.3307L88.1425 54.7154L88.1347 55.1012C88.122 55.6488 87.8608 56.1107 87.4179 56.4147L86.7666 56.8609C86.6445 56.9447 86.5768 57.0252 86.5371 57.0953L86.1953 57.7008C86.114 57.8445 86.0482 57.9974 85.999 58.1608L85.7959 58.8365C85.755 58.9723 85.7309 59.1293 85.7304 59.3121L85.7294 60.0914C85.728 60.6717 85.4389 61.1474 84.9628 61.4401L84.2695 61.8658C84.2482 61.8789 84.2358 61.8893 84.2294 61.8951L84.0615 62.5787C83.9747 62.9324 83.8161 63.256 83.5888 63.5406L83.1464 64.0953C83.0588 64.2051 82.9927 64.3217 82.9472 64.4488L82.83 64.7789L82.7119 65.108C82.625 65.3506 82.5282 65.5887 82.4218 65.8219L82.1328 66.4547C82.0886 66.5515 82.0587 66.671 82.0527 66.8229L82.0224 67.5865C82.0006 68.1386 81.7254 68.5931 81.2792 68.8873L80.6123 69.3268C80.5239 69.3851 80.5066 69.4268 80.5 69.4449L80.2587 70.1012C80.1503 70.3958 79.993 70.6643 79.7959 70.9078L80.0605 70.9098L80.4111 70.9127C80.6842 70.9145 80.959 70.934 81.2343 70.9713L81.5937 71.0201L81.9462 71.068C81.9515 71.0651 81.9611 71.0599 81.9736 71.0504L82.6005 70.5699C82.9346 70.3144 83.3278 70.1536 83.7656 70.1373L84.1152 70.1246L84.4648 70.1109C84.7587 70.1001 85.0541 70.1199 85.3496 70.1686L86.0712 70.2877C86.2417 70.3158 86.4026 70.3211 86.5556 70.3072L87.249 70.2447C87.4301 70.2283 87.6092 70.1962 87.7861 70.149L88.123 70.0592L88.4609 69.9693C88.6966 69.9066 88.9347 69.8556 89.1748 69.8151C89.1897 69.8121 89.2047 69.8092 89.2197 69.8063L89.746 69.7037C89.9459 69.665 90.1671 69.6315 90.4072 69.6022L91.083 69.5192L91.1806 69.5104C91.4111 69.4971 91.6644 69.5364 91.9062 69.6705C92.1469 69.8041 92.3136 69.997 92.4248 70.1959L92.4697 70.2818L92.7685 70.9049C92.9262 71.2332 93.0058 71.5874 92.9902 71.9567L92.9628 72.6031C92.9427 73.0753 92.7239 73.4683 92.3837 73.7516C92.4663 73.8928 92.5384 74.1001 92.4951 74.3541C92.4425 74.662 92.2527 74.8414 92.1582 74.9147C92.0584 74.992 91.9626 75.0322 91.913 75.0514C91.7432 75.117 91.5482 75.1363 91.4433 75.1461L91.2158 75.1666C91.2129 75.1877 91.2111 75.2105 91.2099 75.235L91.1933 75.5846L91.1767 75.9352C91.1535 76.4265 90.9299 76.8561 90.5361 77.1549L90.0654 77.5113L90.0742 77.7887L90.0849 78.1529C90.1021 78.7144 89.8382 79.1952 89.3613 79.4859L88.7343 79.8688C88.6498 79.9203 88.631 79.9565 88.6259 79.9674L88.3583 80.5416C88.3068 80.6523 88.2686 80.7776 88.247 80.9205L88.1972 81.2525L88.1464 81.5846C88.1036 81.8691 88.0308 82.1447 87.9257 82.4078L87.6894 82.9986C87.5993 83.2243 87.4977 83.4447 87.3847 83.6588L87.0898 84.2184C86.9874 84.4125 86.8824 84.6054 86.7744 84.7965L86.4628 85.3473C86.363 85.5239 86.2648 85.7022 86.1699 85.8815L85.874 86.44C85.6972 86.7738 85.4391 87.0389 85.1328 87.2408L84.5322 87.6363C84.4987 87.6584 84.484 87.6747 84.4794 87.6803C84.4758 87.6848 84.474 87.687 84.4726 87.691L84.2636 88.2965C84.2219 88.4169 84.1935 88.5547 84.1835 88.7135L84.1621 89.0611L84.1396 89.4078C84.107 89.9311 83.8396 90.3605 83.413 90.6354L82.8242 91.0152L82.7744 91.2926L82.7167 91.6207C82.6501 91.9998 82.4845 92.3429 82.2236 92.6295L81.7841 93.1129C81.782 93.1153 81.7812 93.1168 81.7812 93.1168L81.7792 93.1236C81.7781 93.1293 81.777 93.1392 81.7763 93.1539L81.7421 93.8531C81.7218 94.2753 81.5713 94.6724 81.2753 94.9957L81.0546 95.2369L80.8339 95.4772C80.7738 95.5428 80.7352 95.6119 80.7109 95.691L80.6162 95.9996L80.5214 96.3072C80.391 96.7314 80.118 97.0596 79.7675 97.2897L79.4667 97.4879L79.1757 97.6783L79.121 97.9635L79.0585 98.2897C79.01 98.5439 78.9458 98.7925 78.8652 99.0338L78.6621 99.6422C78.5298 100.038 78.2772 100.355 77.9511 100.588L77.665 100.794L77.4355 100.958L77.4042 101.583C77.3841 101.978 77.2585 102.349 77.0273 102.674L76.6318 103.23C76.3757 103.59 76.0146 103.832 75.5839 103.931L74.9199 104.086C74.4814 104.187 74.0494 104.12 73.6621 103.915L73.3457 103.747L73.039 103.583L72.7558 103.672L72.4394 103.772C72.0078 103.908 71.5704 103.868 71.1718 103.683L70.5976 103.417L70.0205 103.69C69.7394 103.823 69.4466 103.917 69.1435 103.963L68.5107 104.059C68.0952 104.122 67.697 104.039 67.3408 103.854L66.8134 103.58L66.2773 103.88C65.8474 104.121 65.3541 104.169 64.8779 103.971L64.2666 103.717L63.6552 103.973C63.2656 104.136 62.8466 104.167 62.4335 104.045L61.8017 103.857C61.7434 103.84 61.6957 103.84 61.6416 103.854L61.0087 104.02C60.5637 104.137 60.127 104.067 59.7412 103.863L59.2158 103.585L58.6855 103.884C58.2125 104.151 57.6724 104.158 57.1904 103.878L56.581 103.522C56.3553 103.391 56.1453 103.255 55.955 103.115L55.4716 102.759C55.3071 102.638 54.9375 102.3 55.0136 101.751C55.0789 101.281 55.435 101.033 55.5732 100.946L56.1572 100.577C56.1914 100.555 56.211 100.533 56.2294 100.486L56.3584 100.16L56.4863 99.8326C56.6249 99.4801 56.846 99.1693 57.1582 98.9342L57.413 98.7428L57.6669 98.5514C57.7669 98.4761 57.8546 98.3867 57.9316 98.2818L58.3134 97.7633C58.4872 97.5267 58.6895 97.316 58.9199 97.1354L59.1699 96.94L59.4189 96.7438C59.5536 96.6381 59.6803 96.5238 59.7988 96.401L60.2392 95.9449C60.549 95.6239 60.9447 95.4606 61.3496 95.4029L61.7304 95.3492L61.9794 95.3131L62.1709 94.8082C62.2724 94.541 62.3952 94.288 62.54 94.0514L62.8828 93.4908L62.9335 93.4137C63.1937 93.037 63.5762 92.8177 63.997 92.734L64.3613 92.6617L64.5761 92.6197L64.6376 92.4215L64.7451 92.0729C64.8624 91.6929 65.0763 91.3472 65.4101 91.0914L65.915 90.7057C66.0404 90.6096 66.1559 90.5026 66.2617 90.3854L66.4746 90.15L66.6875 89.9137C66.8306 89.7549 66.9739 89.5958 67.1181 89.4381L67.5468 88.9703C67.8485 88.6404 68.2395 88.4653 68.6455 88.4L69.0205 88.3404L69.1953 88.3121L69.3251 87.7731C69.4193 87.3852 69.6108 87.0186 69.9355 86.7389L70.1757 86.5328L70.415 86.3258C70.6786 86.0987 70.9845 85.9411 71.3144 85.8424L71.9902 85.6402C72.0553 85.6208 72.0693 85.6011 72.0751 85.5934L72.4638 85.0816C72.6096 84.8899 72.7631 84.7059 72.9248 84.5299L73.3544 84.0621C73.527 83.8743 73.7127 83.6998 73.9111 83.5397L74.4052 83.1422C74.5291 83.0422 74.643 82.9313 74.748 82.8102L74.956 82.5699L75.165 82.3297C75.295 82.1797 75.4219 82.0257 75.5459 81.8688L75.9433 81.3658C76.1399 81.1168 76.3752 80.907 76.6455 80.7408L76.9209 80.5729L77.1953 80.4039C77.2804 80.3516 77.3504 80.2865 77.4091 80.2057L77.788 79.6842C78.0872 79.2722 78.5233 79.0738 78.9687 79.0191L79.3564 78.9723L79.4716 78.9576L79.5556 78.4186C79.6342 77.9141 79.9184 77.4355 80.4765 77.2135L81.1064 76.9625C81.1488 76.9456 81.1619 76.9304 81.1748 76.9098L81.3486 76.6324L81.5214 76.3541L81.5742 76.275C81.7008 76.0961 81.8563 75.9564 82.0283 75.8502C81.937 75.8272 81.8464 75.8094 81.7568 75.7955L81.4101 75.7418L81.0625 75.6871C80.9326 75.667 80.8038 75.67 80.6718 75.6959L80.3251 75.7643L79.9775 75.8326C79.7866 75.8701 79.5935 75.9213 79.3984 75.9879L78.7041 76.2252C78.1818 76.4036 77.6706 76.2993 77.246 76.0231L76.5517 75.5709C76.4367 75.4961 76.3714 75.4888 76.3427 75.4889H76.2656L75.957 75.7115C75.5865 75.9782 75.1504 76.0938 74.6914 76.0338L73.997 75.943C73.9786 75.9406 73.9598 75.9393 73.9414 75.9381C73.9118 75.9483 73.882 75.9579 73.8525 75.9684L73.5058 76.0914L73.1582 76.2135C72.6597 76.3895 72.1608 76.3159 71.7294 76.065L71.4423 75.8981L70.9189 75.6178C70.8935 75.6042 70.868 75.593 70.8437 75.5817C70.8106 75.5736 70.7823 75.5687 70.7578 75.568L70.4101 75.5582L70.0634 75.5494C70.028 75.5485 69.9611 75.555 69.8496 75.6227L69.1552 76.0436C68.7735 76.2751 68.3314 76.3901 67.8613 76.3121L67.5136 76.2545L67.1669 76.1969C66.984 76.1666 66.8019 76.1519 66.621 76.1529L66.2744 76.1549L65.9267 76.1568C65.681 76.1582 65.4351 76.1539 65.1894 76.1432L64.4951 76.1129C64.1432 76.0975 63.8067 76.0051 63.4902 75.8541C63.0786 75.9729 62.6631 75.9238 62.2851 75.7633L62.1337 75.6988L62.0507 75.7281C61.9297 75.7711 61.7029 75.8468 61.4638 75.8365C61.3535 75.8318 61.0988 75.8019 60.871 75.6031L60.3662 75.7154C59.8141 75.8379 59.2943 75.6683 58.913 75.2682L58.3867 74.7154C58.0477 74.3597 57.8745 73.9068 57.9042 73.4088L57.9267 73.0367L57.9492 72.6656C57.9707 72.3059 58.0593 71.9598 58.2138 71.6344L58.5312 70.9654C58.7332 70.5401 59.0709 70.2258 59.5078 70.0533L60.2001 69.7799C60.3126 69.7355 60.3904 69.6793 60.4482 69.6149L60.913 69.0953C61.1321 68.8508 61.3862 68.6458 61.6718 68.482L62.29 68.1276C62.4312 68.0466 62.5553 67.9522 62.664 67.8443L63.1572 67.3551C63.2637 67.2493 63.3602 67.1255 63.4443 66.9801L63.8076 66.3512C64.0311 65.9648 64.3651 65.6836 64.7763 65.5221L65.4062 65.275L65.5048 64.9108L65.6123 64.5152L65.6416 64.4186C65.7164 64.1948 65.8405 63.9772 66.0302 63.7945C66.2478 63.5852 66.5087 63.4639 66.7724 63.4059L67.5302 63.2389L67.666 62.9527L67.8261 62.6149C67.989 62.2713 68.222 61.9735 68.5283 61.7418L69.0849 61.3209C69.1638 61.2613 69.233 61.182 69.2919 61.0719L69.6386 60.4244C69.8667 59.9985 70.2327 59.7056 70.6826 59.5611L71.4121 59.3277C71.4433 59.3177 71.455 59.3088 71.457 59.3072C71.4583 59.3062 71.4595 59.3049 71.4609 59.3033C71.4624 59.3016 71.4663 59.2972 71.4707 59.2897L71.8369 58.6637C72.0495 58.301 72.356 58.0235 72.7363 57.8453L73.0654 57.69L73.3955 57.5358C73.413 57.5275 73.4199 57.5211 73.4228 57.5182C73.4262 57.5146 73.4364 57.5028 73.4492 57.4742L73.7568 56.7838C73.9079 56.4448 74.123 56.1446 74.4072 55.902L74.9355 55.4508C75.1267 55.2876 75.3238 55.1306 75.5263 54.9801L76.0869 54.5641C76.2296 54.458 76.3605 54.3398 76.4804 54.2096L76.9531 53.6969C77.1256 53.5095 77.305 53.3288 77.4912 53.1559L78 52.6832C78.3085 52.3967 78.6837 52.2287 79.082 52.15L79.8808 51.9918C79.9267 51.9827 79.9461 51.9717 79.9501 51.9693L80.3671 51.4C80.4736 51.2544 80.5705 51.0924 80.6572 50.9137L80.9824 50.2418C81.1288 49.9398 81.3171 49.6665 81.5488 49.4283L82.0332 48.9303C82.2019 48.7569 82.3743 48.5858 82.5488 48.4186L83.0498 47.9381C83.2721 47.725 83.5202 47.5428 83.791 47.3912L84.1025 47.2164L84.414 47.0426C84.6083 46.9338 84.7985 46.82 84.9843 46.7027L85.581 46.3268C85.696 46.2542 85.7938 46.1664 85.8769 46.0611L86.3125 45.5084C86.4918 45.2812 86.6908 45.0733 86.9091 44.8854L87.4365 44.4313C87.6057 44.2856 87.8288 44.1047 88.0527 44.0094L88.1777 43.9567L88.3017 43.9039L88.3974 43.8678C88.6256 43.7924 88.8751 43.7774 89.0595 43.7731L89.6796 43.7584Z" fill="#FF5E32"/>
</svg>
