<svg width="220" height="220" viewBox="0 0 220 220" fill="none" xmlns="http://www.w3.org/2000/svg">
<path d="M192.786 138.79H176.806L178.826 131.251H190.452L190.68 130.401H179.054L179.953 127.045H195.702L193.676 134.606H182.026L181.805 135.434H193.686L192.786 138.79ZM176.073 139.796H192.748L191.849 143.152H175.174L176.073 139.796Z" fill="black"/>
<path d="M174.795 138.79H158.815L160.835 131.251H172.461L172.689 130.401H161.063L161.962 127.045H177.711L175.685 134.606H164.035L163.813 135.434H175.695L174.795 138.79ZM158.082 139.796H174.757L173.858 143.152H157.183L158.082 139.796Z" fill="black"/>
<path d="M153.251 135.411H145.932C144.604 135.411 143.633 135.031 143.019 134.271C142.408 133.495 142.273 132.473 142.612 131.206C142.952 129.938 143.633 128.924 144.655 128.163C145.681 127.388 146.858 127 148.186 127H155.505C156.832 127 157.802 127.388 158.412 128.163C159.027 128.924 159.164 129.938 158.824 131.206C158.485 132.473 157.802 133.495 156.776 134.271C155.754 135.031 154.579 135.411 153.251 135.411ZM147.648 132.033H153.345C153.608 132.033 153.844 131.959 154.054 131.81C154.267 131.646 154.408 131.437 154.476 131.183C154.54 130.945 154.507 130.751 154.377 130.602C154.251 130.438 154.057 130.356 153.795 130.356H148.097C147.835 130.356 147.597 130.438 147.383 130.602C147.173 130.751 147.036 130.945 146.972 131.183C146.905 131.437 146.933 131.646 147.059 131.81C147.189 131.959 147.385 132.033 147.648 132.033ZM157.479 137.089L156.574 140.467H150.414L149.515 143.823H145.161L146.06 140.467H139.899L140.804 137.089H157.479Z" fill="black"/>
<path d="M135.547 82.8815C135.895 82.8733 136.231 82.9484 136.548 83.0817L137.207 83.359C137.709 83.5704 138.017 83.9825 138.151 84.4606L138.372 85.2438C138.525 85.7884 138.407 86.3399 137.998 86.7633L137.458 87.3219C137.315 87.4702 137.201 87.6158 137.111 87.7565L136.924 88.0504L136.737 88.3453C136.59 88.577 136.426 88.7988 136.246 89.0104L135.783 89.5533C135.709 89.6404 135.658 89.7341 135.628 89.8395L135.432 90.5182C135.368 90.7378 135.308 90.9591 135.249 91.1813L135.067 91.8678C134.97 92.2376 134.787 92.5678 134.528 92.8483L134.04 93.3785C134.03 93.389 134.028 93.3944 134.027 93.3971C134.026 93.4007 134.02 93.4171 134.02 93.4537L134.002 94.2233C133.989 94.7709 133.728 95.2327 133.285 95.5367L132.634 95.984C132.512 96.0677 132.445 96.1483 132.405 96.2184L132.063 96.8229C131.981 96.9668 131.915 97.1202 131.866 97.2838L131.663 97.9596C131.622 98.0953 131.599 98.2523 131.599 98.4352L131.597 99.2135C131.595 99.7939 131.306 100.269 130.83 100.562L130.483 100.776L130.137 100.989C130.115 101.002 130.103 101.012 130.097 101.018L129.929 101.702C129.842 102.055 129.683 102.379 129.456 102.664L129.014 103.217C128.926 103.327 128.86 103.445 128.815 103.572L128.697 103.901L128.579 104.231C128.492 104.474 128.396 104.712 128.289 104.945L128.001 105.578C127.957 105.675 127.926 105.793 127.92 105.945L127.89 106.71C127.868 107.261 127.593 107.715 127.148 108.009L126.481 108.449C126.392 108.507 126.374 108.549 126.367 108.567L126.126 109.223C126.017 109.518 125.86 109.787 125.662 110.031L125.927 110.033L126.278 110.035C126.552 110.037 126.826 110.057 127.102 110.094L127.461 110.143L127.814 110.191C127.819 110.188 127.828 110.182 127.841 110.172L128.468 109.693C128.802 109.437 129.195 109.276 129.633 109.259L129.981 109.247L130.331 109.234C130.625 109.223 130.921 109.243 131.217 109.292L131.938 109.41C132.108 109.438 132.27 109.444 132.423 109.43L132.77 109.399L133.116 109.367C133.297 109.35 133.476 109.319 133.652 109.272L133.99 109.182L134.327 109.092C134.58 109.025 134.837 108.97 135.095 108.928L135.782 108.817C136.023 108.778 136.258 108.79 136.481 108.85L136.951 108.794L137.048 108.785C137.278 108.772 137.533 108.81 137.774 108.944C138.015 109.077 138.181 109.271 138.292 109.47L138.337 109.556L138.636 110.179C138.794 110.508 138.874 110.862 138.858 111.231L138.83 111.878C138.811 112.325 138.614 112.702 138.304 112.981C138.36 113.113 138.396 113.281 138.362 113.477C138.31 113.785 138.119 113.963 138.024 114.037C137.925 114.114 137.83 114.155 137.78 114.174C137.611 114.24 137.416 114.259 137.311 114.269L137.131 114.286C137.105 114.338 137.082 114.408 137.077 114.509L137.062 114.859L137.044 115.21C137.021 115.701 136.798 116.13 136.404 116.428L135.934 116.785L135.941 117.062L135.953 117.427C135.97 117.989 135.706 118.47 135.23 118.76L134.603 119.142C134.518 119.194 134.499 119.231 134.494 119.242L134.227 119.816C134.175 119.927 134.136 120.052 134.114 120.195L134.015 120.859C133.972 121.143 133.899 121.418 133.794 121.681L133.558 122.273C133.468 122.499 133.366 122.719 133.253 122.933L132.958 123.493C132.856 123.687 132.75 123.879 132.642 124.07L132.33 124.622C132.23 124.798 132.133 124.976 132.038 125.155L131.742 125.714C131.565 126.048 131.306 126.312 131 126.514L130.399 126.911C130.367 126.932 130.353 126.948 130.348 126.954C130.344 126.958 130.342 126.961 130.341 126.965L130.131 127.571C130.089 127.691 130.061 127.829 130.051 127.988L130.029 128.335L130.008 128.682C129.975 129.205 129.708 129.635 129.281 129.91L128.691 130.29L128.643 130.567L128.585 130.895C128.518 131.274 128.353 131.617 128.092 131.904L127.652 132.386C127.65 132.389 127.649 132.39 127.648 132.39L127.648 132.398C127.646 132.404 127.644 132.414 127.644 132.428L127.61 133.128C127.59 133.55 127.439 133.947 127.143 134.27L126.923 134.51L126.702 134.752C126.642 134.817 126.603 134.886 126.578 134.965L126.483 135.273L126.39 135.582C126.259 136.006 125.985 136.334 125.635 136.564L125.334 136.761L125.044 136.952L124.988 137.238L124.927 137.564C124.878 137.818 124.814 138.066 124.733 138.307L124.529 138.917C124.397 139.312 124.145 139.628 123.819 139.862L123.532 140.068L123.304 140.231L123.272 140.857C123.251 141.252 123.126 141.623 122.895 141.948L122.5 142.505C122.244 142.865 121.882 143.106 121.451 143.206L120.788 143.359C120.349 143.46 119.918 143.393 119.53 143.188L119.214 143.021L118.906 142.857L118.624 142.947L118.308 143.047C117.876 143.183 117.439 143.143 117.04 142.958L116.466 142.691L115.889 142.964C115.608 143.098 115.314 143.192 115.011 143.238L114.379 143.334C113.964 143.397 113.565 143.313 113.209 143.129L112.681 142.854L112.145 143.155C111.715 143.396 111.222 143.443 110.746 143.246L110.135 142.992L109.523 143.248C109.134 143.411 108.715 143.441 108.302 143.319L107.669 143.131C107.611 143.114 107.563 143.113 107.509 143.128L106.877 143.295C106.432 143.412 105.995 143.341 105.609 143.137L105.084 142.859L104.553 143.158C104.08 143.424 103.54 143.433 103.058 143.152L102.448 142.797C102.223 142.665 102.014 142.529 101.823 142.389L101.34 142.034C101.175 141.913 100.805 141.575 100.881 141.025C100.946 140.556 101.302 140.308 101.44 140.22L102.024 139.85C102.059 139.829 102.079 139.807 102.098 139.76L102.226 139.433L102.355 139.106C102.493 138.754 102.714 138.443 103.026 138.208L103.28 138.017L103.534 137.826C103.634 137.751 103.723 137.661 103.8 137.556L104.181 137.037C104.354 136.8 104.557 136.59 104.787 136.41L105.037 136.214L105.287 136.018C105.422 135.913 105.549 135.798 105.667 135.675L106.107 135.219C106.417 134.898 106.812 134.735 107.217 134.677L107.598 134.624L107.847 134.588L108.039 134.082C108.141 133.815 108.264 133.562 108.408 133.326L108.751 132.764L108.802 132.687C109.062 132.311 109.444 132.092 109.865 132.008L110.23 131.936L110.444 131.893L110.505 131.696L110.613 131.346C110.731 130.967 110.945 130.621 111.278 130.366L111.783 129.979C111.909 129.883 112.024 129.777 112.13 129.66L112.342 129.423L112.555 129.188C112.698 129.029 112.842 128.87 112.986 128.713L113.415 128.244C113.717 127.914 114.108 127.74 114.514 127.674L114.889 127.615L115.063 127.587L115.193 127.047C115.288 126.66 115.478 126.293 115.803 126.013L116.043 125.806L116.283 125.6C116.547 125.373 116.853 125.215 117.183 125.116L117.858 124.915C117.923 124.895 117.936 124.876 117.942 124.868L118.331 124.356C118.477 124.164 118.631 123.98 118.793 123.804L119.222 123.337C119.394 123.149 119.581 122.974 119.779 122.814L120.273 122.416C120.396 122.316 120.511 122.206 120.616 122.085L120.824 121.844L121.032 121.603C121.162 121.453 121.29 121.299 121.414 121.142L121.811 120.64C122.007 120.391 122.243 120.182 122.514 120.015L123.063 119.677C123.148 119.625 123.218 119.561 123.276 119.48L123.466 119.218L123.655 118.958C123.954 118.546 124.392 118.348 124.837 118.294L125.225 118.246L125.34 118.231L125.423 117.693C125.501 117.189 125.786 116.709 126.344 116.487L126.975 116.237C127.017 116.22 127.029 116.205 127.042 116.184L127.216 115.906L127.39 115.629L127.442 115.548C127.612 115.31 127.83 115.139 128.074 115.027C127.921 114.979 127.772 114.941 127.624 114.918L127.276 114.864L126.93 114.81C126.8 114.79 126.671 114.793 126.539 114.819L126.191 114.886L125.845 114.955C125.654 114.992 125.461 115.044 125.266 115.111L124.571 115.347C124.049 115.526 123.538 115.421 123.113 115.145L122.419 114.694C122.304 114.619 122.238 114.612 122.209 114.612H122.133L121.824 114.835C121.454 115.101 121.018 115.217 120.559 115.157L119.864 115.066C119.846 115.064 119.827 115.062 119.808 115.061C119.778 115.071 119.749 115.081 119.72 115.091L119.372 115.213L119.025 115.337C118.527 115.513 118.027 115.439 117.596 115.188L117.306 115.019L116.786 114.741C116.759 114.726 116.733 114.715 116.707 114.703C116.675 114.695 116.648 114.692 116.624 114.691L116.277 114.681L115.93 114.672C115.894 114.671 115.828 114.678 115.717 114.745L115.023 115.167C114.641 115.398 114.199 115.513 113.729 115.435L113.381 115.378L113.034 115.32C112.851 115.29 112.669 115.275 112.488 115.276L112.142 115.278L111.794 115.28C111.548 115.281 111.302 115.276 111.057 115.265L110.362 115.236C110.01 115.221 109.674 115.127 109.357 114.976C108.946 115.095 108.53 115.047 108.152 114.886L108 114.822L107.917 114.851C107.796 114.894 107.57 114.97 107.331 114.96C107.221 114.955 106.966 114.925 106.738 114.726L106.233 114.838C105.682 114.961 105.162 114.791 104.78 114.391L104.254 113.838C103.915 113.483 103.743 113.029 103.773 112.531L103.794 112.16L103.816 111.788C103.838 111.428 103.927 111.083 104.081 110.757L104.398 110.088C104.601 109.662 104.939 109.348 105.376 109.175L106.068 108.903C106.181 108.859 106.258 108.802 106.315 108.738L106.78 108.218C106.999 107.974 107.254 107.769 107.54 107.605L108.157 107.251C108.299 107.17 108.423 107.075 108.531 106.967L109.024 106.478C109.131 106.372 109.227 106.249 109.312 106.103L109.676 105.473C109.899 105.087 110.233 104.807 110.644 104.645L111.273 104.397L111.372 104.033L111.481 103.637L111.509 103.542C111.584 103.318 111.708 103.1 111.898 102.918C112.115 102.708 112.376 102.586 112.64 102.528L113.398 102.362L113.533 102.075L113.693 101.737C113.856 101.393 114.09 101.096 114.397 100.864L114.952 100.443C115.031 100.383 115.1 100.305 115.159 100.195L115.506 99.5475C115.734 99.1215 116.101 98.8286 116.551 98.6842L117.279 98.4498C117.311 98.4396 117.323 98.4306 117.324 98.4293C117.326 98.4283 117.327 98.4271 117.328 98.4254C117.33 98.4236 117.334 98.42 117.338 98.4127L117.705 97.7867C117.918 97.424 118.223 97.1455 118.604 96.9674L118.933 96.8131L119.263 96.6578C119.28 96.6497 119.287 96.6442 119.29 96.6412C119.293 96.638 119.303 96.6263 119.316 96.5973L119.624 95.9059C119.775 95.567 119.99 95.2675 120.274 95.025L120.803 94.5738C120.994 94.4106 121.191 94.2537 121.394 94.1031L121.954 93.6861C122.097 93.5801 122.228 93.4619 122.348 93.3317L122.82 92.8199C122.993 92.6325 123.172 92.4519 123.358 92.2789L123.867 91.8063C124.176 91.5196 124.551 91.3508 124.949 91.2721L125.748 91.1149C125.795 91.1056 125.815 91.0945 125.818 91.0924L126.234 90.5221C126.341 90.3764 126.438 90.2146 126.524 90.0358L126.851 89.3649C126.997 89.0628 127.184 88.7886 127.416 88.5504L127.901 88.0524C128.07 87.8791 128.242 87.7087 128.416 87.5416L128.917 87.0611C129.139 86.8481 129.388 86.6659 129.658 86.5143L129.97 86.3395L130.281 86.1656C130.476 86.0568 130.666 85.9431 130.852 85.8258L131.448 85.4488C131.563 85.3763 131.661 85.2885 131.744 85.1832L132.18 84.6315C132.359 84.4039 132.559 84.1956 132.777 84.0074L133.304 83.5543C133.473 83.4087 133.696 83.2279 133.92 83.1324L134.045 83.0797L134.169 83.027L134.265 82.9899C134.493 82.9145 134.742 82.9004 134.927 82.8961L135.547 82.8815Z" fill="#1F2792"/>
<path d="M39.8546 81.4087C40.2927 81.352 40.7034 81.4692 41.0548 81.6938L41.38 81.9028L41.7062 82.1099C41.7929 82.1653 41.8306 82.1639 41.8351 82.1636L42.1613 82.145L42.4865 82.1274C42.6778 82.1169 42.8773 82.0974 43.0841 82.0688L43.4289 82.021L43.7726 81.9741C44.1485 81.9221 44.523 81.9648 44.8781 82.1089L45.4972 82.3599C45.8 82.4828 46.0752 82.6561 46.3205 82.8735L46.5812 83.104L46.7892 83.2895L47.5665 83.1626L47.6642 83.1499C47.8946 83.1254 48.1469 83.1453 48.3956 83.2495C48.6848 83.3707 48.8992 83.576 49.047 83.8081L49.4474 84.439C49.4516 84.4455 49.4557 84.4495 49.4581 84.4526L50.1505 84.6186C50.5444 84.7125 50.8952 84.9108 51.172 85.2173L51.6251 85.7192C51.8418 85.9594 52.0148 86.2309 52.1447 86.5288L52.4259 87.1733C52.4945 87.3308 52.5716 87.4633 52.6554 87.5747L53.0421 88.0884C53.0592 88.111 53.1053 88.1596 53.2296 88.2114L53.588 88.3618L53.9464 88.5112C54.4026 88.7015 54.7512 89.0637 54.8712 89.5718L54.8917 89.6753L55.0109 90.3765C55.0379 90.5362 55.0811 90.6721 55.1369 90.7886L55.4191 91.3784C55.5313 91.6129 55.6268 91.855 55.7042 92.103L55.8986 92.7261C55.9817 92.9921 56.037 93.2647 56.0636 93.5425L56.1261 94.1948C56.1398 94.3375 56.1708 94.4752 56.2199 94.6089L56.4464 95.2241C56.5269 95.4431 56.6017 95.6663 56.672 95.8931L56.8703 96.5317C56.9509 96.7918 57.0075 97.0602 57.0148 97.3227L57.0285 97.7934C57.0307 97.8751 57.0311 97.9534 57.0294 98.0171C57.0288 98.0405 57.0271 98.0835 57.0216 98.1323C57.0262 98.1547 57.0306 98.1797 57.0363 98.2065L57.1789 98.8804C57.2418 99.1773 57.2666 99.4778 57.2521 99.7798L57.2199 100.458C57.2033 100.8 57.1192 101.13 56.9728 101.44L56.8263 101.752L56.6789 102.064C56.6123 102.205 56.566 102.347 56.5392 102.492L56.4171 103.153C56.3439 103.546 56.1606 103.893 55.8917 104.181L55.4093 104.699C55.3298 104.784 55.2838 104.864 55.258 104.944L55.0529 105.574C54.9807 105.795 54.9035 106.017 54.8205 106.24L54.7023 106.557L54.5831 106.875C54.4474 107.238 54.2216 107.547 53.9181 107.787L53.38 108.211C53.2285 108.331 53.0905 108.456 52.965 108.583L52.507 109.051C52.4897 109.069 52.4723 109.088 52.4552 109.111C52.7047 109.088 52.9565 109.1 53.2062 109.147L54.0822 109.31C54.235 109.339 54.3529 109.33 54.4503 109.303L55.2365 109.086C55.4626 109.024 55.6861 108.949 55.9074 108.862L56.673 108.56C56.8004 108.51 56.896 108.473 56.9591 108.448C56.9868 108.437 57.008 108.428 57.0226 108.422C57.0215 108.423 57.0199 108.424 57.0187 108.424C57.0153 108.426 57.0012 108.432 56.9835 108.441C56.9778 108.444 56.9488 108.458 56.9142 108.478C56.902 108.485 56.8518 108.514 56.7941 108.56C56.7864 108.566 56.7768 108.576 56.7648 108.587C56.9532 108.461 57.266 108.35 57.3859 108.337C57.5656 108.329 57.7059 108.373 57.713 108.375C57.7807 108.395 57.8322 108.417 57.838 108.419C57.8651 108.431 57.8863 108.442 57.8908 108.444C57.9033 108.45 57.9139 108.455 57.9162 108.457C57.9223 108.46 57.9276 108.463 57.9298 108.464C57.935 108.467 57.9416 108.47 57.9464 108.473C57.9567 108.479 57.9716 108.487 57.9894 108.497C58.0257 108.517 58.0795 108.548 58.1505 108.587L58.3634 108.707L58.5597 108.816C58.5665 108.818 58.5806 108.823 58.6027 108.829C58.6576 108.842 58.7429 108.859 58.8644 108.873L59.7882 108.975L59.9103 108.993C60.0096 109.011 60.1152 109.039 60.2218 109.081C60.321 109.066 60.4244 109.053 60.5314 109.04L61.2072 108.957L61.3039 108.948C61.5344 108.934 61.7886 108.973 62.0304 109.107C62.2711 109.24 62.4368 109.434 62.548 109.633L62.5929 109.719L62.8917 110.342C63.0495 110.671 63.1291 111.025 63.1134 111.394L63.0861 112.041C63.0648 112.538 62.8259 112.949 62.4542 113.235L61.9005 113.66C61.8017 113.736 61.7412 113.81 61.7023 113.879L61.3937 114.432C61.364 114.485 61.3385 114.56 61.3331 114.672L61.3175 115.022L61.2999 115.373C61.2767 115.864 61.0539 116.293 60.6603 116.591L60.1896 116.948L60.1974 117.225L60.2081 117.59C60.2253 118.152 59.9622 118.633 59.4855 118.923L58.8585 119.305C58.7738 119.357 58.7552 119.394 58.7501 119.405L58.4826 119.979C58.4309 120.09 58.3918 120.215 58.3703 120.358L58.2706 121.022C58.2278 121.306 58.155 121.582 58.0499 121.845L57.8136 122.436C57.7235 122.662 57.6219 122.882 57.5089 123.096L57.214 123.656C57.1117 123.85 57.0056 124.042 56.8976 124.233L56.5861 124.785C56.4863 124.961 56.3889 125.139 56.2941 125.318L55.9982 125.877C55.8214 126.211 55.5624 126.475 55.256 126.677L54.6554 127.074C54.622 127.096 54.6073 127.111 54.6027 127.117C54.599 127.121 54.5982 127.124 54.5968 127.128L54.3869 127.734C54.3452 127.854 54.3167 127.992 54.3068 128.151L54.2853 128.499L54.2638 128.845C54.2312 129.368 53.9629 129.798 53.5363 130.073L52.9474 130.453L52.8986 130.73L52.841 131.058C52.7743 131.437 52.6087 131.78 52.3478 132.067L51.9083 132.549C51.9062 132.552 51.9046 132.553 51.9044 132.553L51.9035 132.561C51.9023 132.567 51.9003 132.577 51.8996 132.591L51.8664 133.291C51.8461 133.713 51.6946 134.11 51.3986 134.433L51.1789 134.674L50.9581 134.915C50.898 134.98 50.8585 135.049 50.8341 135.128L50.7394 135.436L50.6456 135.745C50.5152 136.169 50.2413 136.497 49.8908 136.727L49.59 136.924L49.299 137.116L49.2443 137.401L49.1818 137.727C49.1333 137.981 49.0699 138.229 48.9894 138.47L48.7853 139.08C48.6531 139.475 48.4012 139.791 48.0753 140.025L47.7882 140.231L47.5597 140.394L47.5275 141.02C47.5073 141.415 47.3817 141.787 47.1505 142.112L46.755 142.667C46.4989 143.027 46.1378 143.269 45.7072 143.369L45.0441 143.522C44.6056 143.623 44.1736 143.557 43.7863 143.352L43.4699 143.184L43.1623 143.02L42.88 143.11L42.5636 143.209C42.132 143.345 41.6946 143.306 41.296 143.121L40.7208 142.854L40.1447 143.127C39.8635 143.261 39.57 143.355 39.2667 143.401L38.6339 143.497C38.2187 143.56 37.821 143.476 37.465 143.291L36.9367 143.017L36.4005 143.318C35.9708 143.559 35.4781 143.606 35.0021 143.409L34.3908 143.155L33.7794 143.411C33.3899 143.574 32.9708 143.604 32.5578 143.482L31.9249 143.294C31.8668 143.277 31.8189 143.277 31.7648 143.291L31.133 143.458C30.6879 143.575 30.2503 143.505 29.8644 143.3L29.34 143.022L28.8087 143.321C28.3357 143.587 27.7957 143.596 27.3136 143.315L26.7042 142.959C26.4785 142.828 26.2695 142.692 26.0792 142.552L25.5949 142.197C25.4303 142.076 25.0607 141.737 25.1369 141.188C25.2021 140.719 25.5581 140.471 25.6964 140.383L26.2804 140.014C26.3146 139.993 26.3352 139.97 26.3537 139.923L26.4816 139.596L26.6105 139.27C26.7492 138.917 26.97 138.606 27.2824 138.371L27.5363 138.18L27.7902 137.989C27.8902 137.913 27.9788 137.824 28.0558 137.719L28.4367 137.201C28.6104 136.964 28.8128 136.753 29.0431 136.573L29.2931 136.377L29.5431 136.181C29.6778 136.076 29.8045 135.961 29.923 135.838L30.3634 135.382C30.6732 135.061 31.068 134.898 31.4728 134.84L31.8537 134.787L32.1027 134.75L32.2951 134.246C32.3966 133.978 32.5194 133.725 32.6642 133.489L33.007 132.928L33.0568 132.85C33.317 132.473 33.7003 132.255 34.1212 132.171L34.4855 132.099L34.7003 132.056L34.7609 131.859L34.8693 131.51C34.9866 131.13 35.2004 130.785 35.5343 130.529L36.0392 130.143C36.1647 130.047 36.2802 129.94 36.3859 129.823L36.5978 129.586L36.8107 129.351C36.9539 129.192 37.0981 129.033 37.2423 128.875L37.6701 128.407C37.9716 128.077 38.3629 127.903 38.7687 127.837L39.1447 127.778L39.3185 127.75L39.4494 127.21C39.5435 126.823 39.7341 126.456 40.0587 126.176L40.299 125.969L40.5392 125.763C40.8029 125.536 41.1086 125.378 41.4386 125.279L42.1134 125.078C42.1784 125.058 42.1925 125.039 42.1984 125.031L42.5871 124.519C42.7329 124.327 42.8872 124.143 43.049 123.967L43.4777 123.5C43.6503 123.312 43.8368 123.137 44.0353 122.977L44.5285 122.579C44.6523 122.479 44.7672 122.369 44.8722 122.248L45.2882 121.767C45.4183 121.617 45.5461 121.463 45.6701 121.306L46.0665 120.803C46.2632 120.554 46.4992 120.345 46.7697 120.178L47.3185 119.84C47.4037 119.788 47.4737 119.724 47.5324 119.643L47.7218 119.382L47.9113 119.121C48.2104 118.709 48.6475 118.511 49.0929 118.457L49.4796 118.409L49.5958 118.394L49.6789 117.856C49.7574 117.352 50.0419 116.873 50.5998 116.651L51.2306 116.4C51.273 116.383 51.2851 116.368 51.298 116.347L51.4718 116.07L51.6456 115.791L51.6984 115.711C51.9709 115.327 52.3721 115.119 52.7999 115.05L53.3312 114.964L53.3664 114.796L53.4474 114.417C53.4589 114.363 53.4723 114.309 53.4874 114.255L52.8742 114.28C52.747 114.285 52.6049 114.317 52.4425 114.39L51.6281 114.757C51.0514 115.017 50.4418 114.981 49.8996 114.688L49.4923 114.467L49.1349 114.274L48.3839 114.626C47.8272 114.887 47.228 114.879 46.6789 114.611L45.8644 114.211C45.7098 114.136 45.581 114.108 45.4718 114.105L45.0646 114.092L44.6574 114.081C44.3668 114.072 44.0757 114.055 43.7853 114.03L42.9708 113.959C42.9598 113.959 42.9487 113.958 42.9376 113.958C42.7718 114 42.6038 114.048 42.4337 114.102L41.7921 114.304C41.4714 114.405 41.1402 114.443 40.8048 114.416L40.1447 114.362C39.8739 114.339 39.6067 114.293 39.3439 114.224L38.7033 114.056C38.6514 114.043 38.5823 114.038 38.4796 114.065L38.1281 114.158L37.7755 114.251C37.3861 114.355 36.9829 114.351 36.5919 114.215L35.9552 113.994C35.7864 113.935 35.6115 113.889 35.4308 113.856L35.0939 113.794L34.758 113.733C34.3877 113.665 34.0503 113.509 33.758 113.274L33.2179 112.838C32.9838 112.65 32.7744 112.434 32.589 112.195L32.1554 111.635C32.0826 111.541 32.0107 111.485 31.9415 111.45L31.6525 111.301L31.3634 111.152C31.1959 111.066 31.0169 110.984 30.8273 110.908L30.1886 110.649C29.7357 110.466 29.4146 110.119 29.2482 109.675L28.9943 109C28.9927 108.995 28.9915 108.992 28.9904 108.99C28.9896 108.989 28.9884 108.988 28.9874 108.988L28.3488 108.677C28.0128 108.514 27.7243 108.278 27.505 107.969L27.1203 107.427C27.0012 107.259 26.8769 107.093 26.7472 106.929L26.5382 106.666L26.3302 106.401C26.1273 106.144 25.9728 105.859 25.8703 105.548L25.6593 104.909C25.5757 104.655 25.5108 104.397 25.465 104.134L25.3498 103.474C25.324 103.327 25.2811 103.188 25.2208 103.056L24.9445 102.454C24.8646 102.279 24.7726 102.1 24.6681 101.918L24.3165 101.307C24.1179 100.962 24.0212 100.578 24.0421 100.176L24.0607 99.8354L24.0783 99.4936C24.0882 99.3029 24.0863 99.1147 24.0724 98.9292L24.047 98.5942L24.0216 98.2583C24.0028 98.0072 23.9969 97.7554 24.0021 97.5034L24.0158 96.8306C24.0247 96.4015 24.1763 96.0145 24.423 95.6851L24.8341 95.1362L24.6349 94.4731C24.5149 94.0723 24.5089 93.6482 24.6613 93.2368L24.7785 92.9214L24.8947 92.605C24.9871 92.3556 25.0973 92.114 25.2238 91.8804L25.5441 91.2886C25.6811 91.0357 25.8442 90.799 26.0324 90.5806L26.4748 90.0669C26.5311 90.0014 26.5717 89.9262 26.5968 89.8286L26.7706 89.1528C26.854 88.8283 26.9916 88.5258 27.1847 88.2524L27.5734 87.7026C27.7673 87.4282 28.0078 87.1974 28.2882 87.0122L28.8624 86.6323C29.0117 86.5337 29.1455 86.4271 29.2648 86.313L29.7414 85.8569C29.998 85.6116 30.3001 85.434 30.6349 85.3218L30.9621 85.2124L31.2892 85.102C31.3494 85.0818 31.3889 85.0542 31.4249 85.0093L31.8527 84.4761C32.1372 84.1222 32.5253 83.905 32.9718 83.8423L33.3136 83.7944L33.6203 83.7515C33.6209 83.7506 33.6225 83.7495 33.6232 83.7485L34.0646 83.1206C34.3312 82.7419 34.7202 82.4656 35.2169 82.395L35.8878 82.3003C36.0014 82.2842 36.1115 82.2468 36.2218 82.1851L36.8292 81.8452C37.165 81.6573 37.5335 81.5625 37.9201 81.5698L38.6027 81.5825C38.7727 81.5857 38.9392 81.5722 39.1027 81.5425L39.4347 81.4829L39.7667 81.4224L39.8546 81.4087ZM56.6251 108.729C56.5492 108.841 56.434 109.205 56.4279 109.502C56.4399 109.247 56.5653 108.836 56.7316 108.619C56.6957 108.654 56.6538 108.695 56.6251 108.729Z" fill="#D4CBBF"/>
<path d="M97.68 83.1529C98.0283 83.1448 98.3644 83.2207 98.681 83.3541L99.3402 83.6315C99.8418 83.843 100.15 84.2551 100.284 84.733L100.504 85.5152C100.658 86.0599 100.54 86.6113 100.131 87.0348L99.5902 87.5943C99.447 87.7425 99.3326 87.8874 99.2435 88.0279L99.057 88.3219L98.8704 88.6168C98.7233 88.8487 98.5587 89.0711 98.3782 89.2828L97.9154 89.8258C97.8413 89.9128 97.7915 90.0057 97.7611 90.1109L97.5648 90.7906C97.5013 91.0102 97.4407 91.2316 97.3822 91.4537L97.2005 92.1402C97.103 92.51 96.92 92.8403 96.6614 93.1207L96.1732 93.651C96.1641 93.6609 96.1616 93.6658 96.1605 93.6686C96.1591 93.6721 96.1535 93.6886 96.1527 93.7252L96.1429 94.11L96.1351 94.4957C96.1224 95.0433 95.8612 95.5052 95.4183 95.8092L94.7669 96.2555C94.6449 96.3392 94.5771 96.4197 94.5374 96.4899L94.1956 97.0953C94.1144 97.2391 94.0485 97.3919 93.9993 97.5553L93.7962 98.2311C93.7554 98.3668 93.7313 98.5238 93.7308 98.7067L93.7298 99.4859C93.7283 100.066 93.4393 100.542 92.9632 100.835L92.2698 101.26C92.2485 101.273 92.2362 101.284 92.2298 101.29L92.0618 101.973C91.9751 102.327 91.8165 102.65 91.5892 102.935L91.1468 103.49C91.0591 103.6 90.9931 103.716 90.9476 103.843L90.8304 104.173L90.7122 104.503C90.6254 104.745 90.5286 104.983 90.4222 105.216L90.1331 105.849C90.089 105.946 90.059 106.066 90.0531 106.217L90.0228 106.981C90.001 107.533 89.7257 107.988 89.2796 108.282L88.6126 108.721C88.5243 108.78 88.507 108.821 88.5003 108.839L88.2591 109.496C88.1507 109.79 87.9934 110.059 87.7962 110.302L88.0609 110.304L88.4115 110.307C88.6845 110.309 88.9593 110.328 89.2347 110.366L89.5941 110.415L89.9466 110.463C89.9519 110.46 89.9615 110.454 89.974 110.445L90.6009 109.964C90.935 109.709 91.3282 109.548 91.7659 109.532L92.1156 109.519L92.4652 109.505C92.7591 109.495 93.0544 109.514 93.3499 109.563L94.0716 109.682C94.2421 109.71 94.403 109.716 94.556 109.702L95.2493 109.639C95.4305 109.623 95.6096 109.591 95.7864 109.544L96.1234 109.454L96.4613 109.364C96.6969 109.301 96.935 109.25 97.1751 109.21C97.19 109.207 97.205 109.204 97.22 109.201L97.7464 109.098C97.9462 109.06 98.1674 109.026 98.4075 108.997L99.0833 108.914L99.181 108.905C99.4115 108.892 99.6648 108.931 99.9066 109.065C100.147 109.199 100.314 109.391 100.425 109.59L100.47 109.676L100.769 110.299C100.927 110.628 101.006 110.982 100.991 111.351L100.963 111.998C100.943 112.47 100.724 112.863 100.384 113.146C100.467 113.287 100.539 113.495 100.495 113.749C100.443 114.057 100.253 114.236 100.159 114.309C100.059 114.386 99.963 114.427 99.9134 114.446C99.7436 114.512 99.5486 114.531 99.4437 114.541L99.2161 114.561C99.2132 114.582 99.2114 114.605 99.2103 114.63L99.1937 114.979L99.1771 115.33C99.1538 115.821 98.9303 116.251 98.5364 116.549L98.0657 116.906L98.0745 117.183L98.0853 117.547C98.1024 118.109 97.8386 118.59 97.3616 118.88L96.7347 119.263C96.6501 119.315 96.6314 119.351 96.6263 119.362L96.3587 119.936C96.3071 120.047 96.269 120.172 96.2474 120.315L96.1976 120.647L96.1468 120.979C96.1039 121.264 96.0312 121.539 95.9261 121.802L95.6898 122.393C95.5997 122.619 95.498 122.839 95.3851 123.053L95.0902 123.613C94.9878 123.807 94.8828 124 94.7747 124.191L94.4632 124.742C94.3633 124.918 94.2652 125.097 94.1702 125.276L93.8743 125.835C93.6975 126.168 93.4395 126.433 93.1331 126.635L92.5325 127.031C92.499 127.053 92.4843 127.069 92.4798 127.075C92.4762 127.079 92.4744 127.082 92.473 127.086L92.264 127.691C92.2223 127.811 92.1938 127.949 92.1839 128.108L92.1624 128.456L92.14 128.802C92.1073 129.326 91.84 129.755 91.4134 130.03L90.8245 130.41L90.7747 130.687L90.7171 131.015C90.6505 131.394 90.4849 131.737 90.224 132.024L89.7845 132.507C89.7824 132.51 89.7816 132.511 89.7816 132.511L89.7796 132.518C89.7784 132.524 89.7774 132.534 89.7767 132.548L89.7425 133.248C89.7222 133.67 89.5717 134.067 89.2757 134.39L89.055 134.631L88.8343 134.872C88.7742 134.937 88.7356 135.006 88.7113 135.086L88.6165 135.394L88.5218 135.702C88.3914 136.126 88.1184 136.454 87.7679 136.684L87.4671 136.882L87.1761 137.073L87.1214 137.358L87.0589 137.684C87.0104 137.938 86.9461 138.187 86.8656 138.428L86.6624 139.037C86.5302 139.433 86.2776 139.749 85.9515 139.983L85.6654 140.188L85.4359 140.352L85.4046 140.977C85.3844 141.372 85.2589 141.744 85.0277 142.069L84.6322 142.625C84.3761 142.985 84.015 143.226 83.5843 143.326L82.9202 143.48C82.4817 143.581 82.0497 143.515 81.6624 143.309L81.346 143.141L81.0394 142.977L80.7562 143.067L80.4398 143.167C80.0082 143.303 79.5707 143.263 79.1722 143.078L78.598 142.811L78.0208 143.085C77.7398 143.218 77.447 143.312 77.1439 143.358L76.5111 143.454C76.0955 143.517 75.6974 143.434 75.3411 143.249L74.8138 142.974L74.2777 143.275C73.8477 143.516 73.3544 143.563 72.8782 143.366L72.2669 143.112L71.6556 143.368C71.266 143.531 70.847 143.561 70.4339 143.439L69.8021 143.252C69.7438 143.234 69.6961 143.234 69.6419 143.249L69.0091 143.415C68.5641 143.532 68.1274 143.462 67.7415 143.257L67.2161 142.979L66.6859 143.279C66.2129 143.545 65.6728 143.553 65.1907 143.272L64.5814 142.917C64.3557 142.785 64.1457 142.649 63.9554 142.509L63.472 142.154C63.3075 142.033 62.9378 141.695 63.014 141.145C63.0793 140.676 63.4354 140.428 63.5736 140.34L64.1575 139.971C64.1917 139.95 64.2113 139.927 64.2298 139.88L64.3587 139.554L64.4866 139.227C64.6253 138.875 64.8464 138.564 65.1585 138.329L65.4134 138.137L65.6673 137.946C65.7672 137.871 65.855 137.781 65.932 137.676L66.3138 137.158C66.4875 136.921 66.6898 136.711 66.9202 136.53L67.1702 136.335L67.4193 136.138C67.554 136.033 67.6807 135.918 67.7991 135.796L68.2396 135.339C68.5494 135.018 68.945 134.855 69.3499 134.797L69.7308 134.744L69.9798 134.708L70.1712 134.203C70.2728 133.936 70.3956 133.683 70.5404 133.446L70.8831 132.885L70.9339 132.808C71.194 132.431 71.5765 132.212 71.9974 132.129L72.3616 132.056L72.5765 132.014L72.638 131.816L72.7454 131.467C72.8628 131.087 73.0766 130.742 73.4105 130.486L73.9154 130.1C74.0408 130.004 74.1563 129.897 74.262 129.78L74.4749 129.545L74.6878 129.308C74.831 129.149 74.9743 128.99 75.1185 128.833L75.5472 128.365C75.8489 128.035 76.2399 127.86 76.6458 127.795L77.0208 127.735L77.1956 127.707L77.3255 127.168C77.4197 126.78 77.6112 126.413 77.9359 126.133L78.1761 125.927L78.4154 125.72C78.679 125.493 78.9848 125.336 79.3148 125.237L79.9906 125.035C80.0556 125.015 80.0696 124.996 80.0755 124.988L80.4642 124.476C80.6099 124.284 80.7635 124.1 80.9251 123.924L81.3548 123.457C81.5274 123.269 81.713 123.094 81.9115 122.934L82.4056 122.537C82.5295 122.437 82.6433 122.326 82.7484 122.205L82.9564 121.964L83.1654 121.724C83.2954 121.574 83.4223 121.42 83.5462 121.263L83.9437 120.76C84.1403 120.511 84.3755 120.302 84.6458 120.135L84.9212 119.967L85.1956 119.798C85.2808 119.746 85.3508 119.681 85.4095 119.6L85.7884 119.079C86.0875 118.667 86.5237 118.468 86.9691 118.414L87.3568 118.367L87.472 118.352L87.556 117.813C87.6346 117.309 87.9188 116.83 88.4769 116.608L89.1068 116.357C89.1491 116.34 89.1622 116.325 89.1751 116.304L89.349 116.027L89.5218 115.749L89.5745 115.67C89.7012 115.491 89.8567 115.351 90.0286 115.245C89.9373 115.222 89.8467 115.204 89.7572 115.19L89.4105 115.136L89.0628 115.082C88.933 115.062 88.8041 115.065 88.6722 115.09L88.3255 115.159L87.9779 115.227C87.7869 115.265 87.5939 115.316 87.3988 115.382L86.7044 115.62C86.1822 115.798 85.671 115.694 85.2464 115.418L84.5521 114.965C84.4371 114.891 84.3718 114.883 84.3431 114.883H84.2659L83.9573 115.106C83.5869 115.373 83.1508 115.488 82.6917 115.428L81.9974 115.338C81.979 115.335 81.9602 115.334 81.9417 115.333C81.9122 115.343 81.8824 115.352 81.8529 115.363L81.5062 115.486L81.1585 115.608C80.6601 115.784 80.1612 115.71 79.7298 115.46L79.4427 115.293L78.9193 115.012C78.8938 114.999 78.8684 114.988 78.8441 114.976C78.811 114.968 78.7827 114.963 78.7581 114.963L78.4105 114.953L78.0638 114.944C78.0284 114.943 77.9615 114.95 77.8499 115.017L77.1556 115.438C76.7738 115.67 76.3317 115.785 75.8616 115.707L75.514 115.649L75.1673 115.591C74.9844 115.561 74.8023 115.546 74.6214 115.547L74.2747 115.549L73.9271 115.551C73.6813 115.553 73.4355 115.548 73.1898 115.538L72.4954 115.507C72.1435 115.492 71.8071 115.4 71.4906 115.249C71.0789 115.367 70.6634 115.318 70.2855 115.158L70.1341 115.093L70.0511 115.123C69.9301 115.166 69.7032 115.241 69.4642 115.231C69.3538 115.226 69.0992 115.196 68.8714 114.998L68.3665 115.11C67.8145 115.232 67.2947 115.063 66.9134 114.663L66.387 114.11C66.0481 113.754 65.8749 113.301 65.9046 112.803L65.9271 112.431L65.9495 112.06C65.971 111.7 66.0596 111.354 66.2142 111.029L66.5316 110.36C66.7336 109.935 67.0713 109.62 67.5081 109.448L68.2005 109.174C68.313 109.13 68.3908 109.074 68.4486 109.009L68.9134 108.49C69.1325 108.245 69.3866 108.04 69.6722 107.877L70.2904 107.522C70.4316 107.441 70.5557 107.347 70.6644 107.239L71.1575 106.75C71.2641 106.644 71.3606 106.52 71.4447 106.375L71.8079 105.746C72.0314 105.359 72.3655 105.078 72.7767 104.917L73.4066 104.67L73.5052 104.305L73.6126 103.91L73.6419 103.813C73.7168 103.589 73.8409 103.372 74.0306 103.189C74.2482 102.98 74.5091 102.858 74.7728 102.8L75.5306 102.633L75.6663 102.347L75.8265 102.009C75.9894 101.666 76.2224 101.368 76.5286 101.136L77.0853 100.715C77.1641 100.656 77.2333 100.577 77.2923 100.466L77.639 99.819C77.8671 99.393 78.2331 99.1001 78.6829 98.9557L79.4124 98.7223C79.4436 98.7122 79.4554 98.7033 79.4573 98.7018C79.4587 98.7007 79.4598 98.6995 79.4613 98.6979C79.4628 98.6961 79.4666 98.6917 79.471 98.6842L79.8372 98.0582C80.0498 97.6955 80.3564 97.418 80.7366 97.2399L81.0657 97.0846L81.3958 96.9303C81.4134 96.9221 81.4203 96.9157 81.4232 96.9127C81.4266 96.9091 81.4368 96.8974 81.4495 96.8688L81.7572 96.1783C81.9082 95.8393 82.1233 95.5391 82.4075 95.2965L82.9359 94.8453C83.127 94.6821 83.3242 94.5251 83.5267 94.3746L84.0872 93.9586C84.2299 93.8525 84.3609 93.7343 84.4808 93.6041L84.9534 93.0914C85.126 92.9041 85.3054 92.7233 85.4915 92.5504L86.0003 92.0777C86.3088 91.7912 86.6841 91.6232 87.0823 91.5445L87.8812 91.3863C87.927 91.3773 87.9464 91.3662 87.9505 91.3639L88.3675 90.7945C88.4739 90.6489 88.5709 90.487 88.6575 90.3082L88.9827 89.6363C89.1292 89.3343 89.3175 89.061 89.5491 88.8229L90.0335 88.3248C90.2023 88.1514 90.3747 87.9803 90.5491 87.8131L91.0501 87.3326C91.2725 87.1195 91.5206 86.9374 91.7913 86.7858L92.1029 86.6109L92.4144 86.4371C92.6086 86.3283 92.7989 86.2145 92.9847 86.0973L93.5814 85.7213C93.6963 85.6487 93.7942 85.5609 93.8773 85.4557L94.3128 84.9029C94.4922 84.6757 94.6912 84.4678 94.9095 84.2799L95.4368 83.8258C95.6061 83.6801 95.8292 83.4993 96.0531 83.4039L96.1781 83.3512L96.3021 83.2984L96.3978 83.2623C96.6259 83.1869 96.8755 83.1719 97.0599 83.1676L97.68 83.1529Z" fill="#FF5E32"/>
</svg>
